<svg width="20" height="20" viewBox="0 0 20 20" fill="none" xmlns="http://www.w3.org/2000/svg">
							<path d="M18.9607 14.4659V17.1693C18.9617 17.4203 18.9103 17.6687 18.8097 17.8986C18.7092 18.1286 18.5617 18.335 18.3768 18.5046C18.1919 18.6743 17.9735 18.8035 17.7358 18.8839C17.4981 18.9643 17.2462 18.9941 16.9962 18.9715C14.2233 18.6702 11.5598 17.7227 9.21954 16.2051C7.04228 14.8216 5.19634 12.9756 3.81282 10.7984C2.2899 8.44753 1.34216 5.77101 1.04638 2.98565C1.02386 2.73646 1.05347 2.48531 1.13334 2.2482C1.2132 2.01108 1.34156 1.79319 1.51024 1.6084C1.67893 1.42361 1.88424 1.27596 2.11312 1.17487C2.34199 1.07378 2.5894 1.02144 2.83961 1.02121H5.54297C5.98029 1.01691 6.40425 1.17177 6.73584 1.45693C7.06742 1.74209 7.284 2.1381 7.34521 2.57114C7.45931 3.43627 7.67092 4.28572 7.976 5.10329C8.09724 5.42582 8.12347 5.77635 8.05161 6.11333C7.97974 6.45032 7.81277 6.75965 7.57049 7.00465L6.42607 8.14907C7.70886 10.4051 9.57679 12.273 11.8328 13.5558L12.9772 12.4114C13.2222 12.1691 13.5315 12.0021 13.8685 11.9303C14.2055 11.8584 14.556 11.8846 14.8786 12.0059C15.6961 12.3109 16.5456 12.5226 17.4107 12.6367C17.8485 12.6984 18.2482 12.9189 18.534 13.2562C18.8198 13.5935 18.9716 14.024 18.9607 14.4659Z" fill="url(#paint0_radial_629_1815)"/>
							<defs>
							<radialGradient id="paint0_radial_629_1815" cx="0" cy="0" r="1" gradientUnits="userSpaceOnUse" gradientTransform="translate(4.5 1) rotate(8.48895) scale(33.8711 21.3869)">
							<stop stop-color="#DDD2FF"/>
							<stop offset="1" stop-color="#775ACE"/>
							</radialGradient>
							</defs>
						</svg>
