<svg width="40" height="40" viewBox="0 0 40 40" fill="none" xmlns="http://www.w3.org/2000/svg">
<path d="M8.33366 25C6.76699 25 5.31699 25.55 4.16699 26.4667C2.63366 27.6833 1.66699 29.5667 1.66699 31.6667C1.66699 32.9167 2.017 34.1 2.63366 35.1C3.78366 37.0333 5.90033 38.3333 8.33366 38.3333C10.017 38.3333 11.5503 37.7167 12.717 36.6667C13.2337 36.2333 13.6837 35.7 14.0337 35.1C14.6503 34.1 15.0003 32.9167 15.0003 31.6667C15.0003 27.9833 12.017 25 8.33366 25ZM11.7837 30.95L8.23366 34.2333C8.00033 34.45 7.68365 34.5667 7.38365 34.5667C7.06698 34.5667 6.75032 34.45 6.50032 34.2L4.85033 32.55C4.367 32.0667 4.367 31.2666 4.85033 30.7833C5.33366 30.3 6.13366 30.3 6.61699 30.7833L7.41699 31.5834L10.0837 29.1166C10.5837 28.65 11.3837 28.6833 11.8503 29.1833C12.317 29.6833 12.2837 30.4833 11.7837 30.95Z" fill="white"/>
<path opacity="0.4" d="M32.467 21.5832H35.8337V19.1832C35.8337 15.7332 33.017 12.9165 29.567 12.9165H10.4336C6.98365 12.9165 4.16699 15.7332 4.16699 19.1832V26.4665C5.31699 25.5498 6.76699 24.9998 8.33366 24.9998C12.017 24.9998 15.0003 27.9832 15.0003 31.6665C15.0003 32.9165 14.6503 34.0998 14.0337 35.0998C13.6837 35.6998 13.2337 36.2332 12.717 36.6665H29.567C33.017 36.6665 35.8337 33.8498 35.8337 30.3998V28.4165H32.667C30.867 28.4165 29.217 27.0998 29.067 25.2998C28.967 24.2498 29.367 23.2665 30.067 22.5831C30.6836 21.9498 31.5337 21.5832 32.467 21.5832Z" fill="url(#paint0_radial_339_16224)"/>
<path d="M24.7503 6.58256V12.9159H10.4336C6.98365 12.9159 4.16699 15.7326 4.16699 19.1826V13.0659C4.16699 11.0826 5.38365 9.31585 7.23365 8.61585L20.467 3.61585C22.5337 2.84918 24.7503 4.3659 24.7503 6.58256Z" fill="white"/>
<path d="M37.5993 23.2834V26.7169C37.5993 27.6335 36.866 28.3835 35.9326 28.4168H32.666C30.866 28.4168 29.216 27.1001 29.066 25.3001C28.966 24.2501 29.366 23.2668 30.066 22.5835C30.6826 21.9501 31.5326 21.5835 32.466 21.5835H35.9326C36.866 21.6168 37.5993 22.3668 37.5993 23.2834Z" fill="white"/>
<path d="M23.3337 21.25H11.667C10.9837 21.25 10.417 20.6833 10.417 20C10.417 19.3167 10.9837 18.75 11.667 18.75H23.3337C24.017 18.75 24.5837 19.3167 24.5837 20C24.5837 20.6833 24.017 21.25 23.3337 21.25Z" fill="white"/>
<defs>
<radialGradient id="paint0_radial_339_16224" cx="0" cy="0" r="1" gradientUnits="userSpaceOnUse" gradientTransform="translate(10.2821 12.8886) rotate(6.37457) scale(59.5594 28.4217)">
<stop stop-color="#DDD2FF"/>
<stop offset="1" stop-color="#775ACE"/>
</radialGradient>
</defs>
</svg>
