<svg width="40" height="40" viewBox="0 0 40 40" fill="none" xmlns="http://www.w3.org/2000/svg">
<g clip-path="url(#clip0_339_16254)">
<path d="M17.6461 26.2065H22.3539C24.4559 26.2065 26.166 24.4964 26.166 22.3944V20.3326C26.166 19.9537 26.0184 19.5976 25.7503 19.3299C25.4827 19.0626 25.1271 18.9155 24.749 18.9155H24.7469L21.9502 18.9196C21.5207 18.9202 21.1712 19.2702 21.1712 19.6997V19.7025C21.1712 20.3493 20.6468 20.8737 20 20.8737C19.3532 20.8737 18.8288 20.3493 18.8288 19.7025C18.8288 19.2724 18.4788 18.9225 18.0487 18.9225H15.251C14.4696 18.9225 13.834 19.5581 13.834 20.3394V22.3943C13.834 24.4963 15.5441 26.2065 17.6461 26.2065Z" fill="white"/>
<path d="M18.049 16.58C18.7859 16.58 19.4641 16.8366 19.9988 17.2652C20.5329 16.8359 21.2106 16.5781 21.947 16.5771L24.7438 16.573H24.7494C25.7526 16.573 26.6956 16.9633 27.4057 17.6723C28.0903 18.3558 28.4777 19.2566 28.506 20.2194H30.9508C31.357 18.9545 32.4025 17.9755 33.703 17.6688V8.8246C32.3766 8.51172 31.3155 7.49971 30.9274 6.19824H8.77175C8.36557 7.46309 7.32006 8.44208 6.01953 8.74886V17.593C7.3459 17.9059 8.40711 18.918 8.79518 20.2194H11.4949C11.5586 18.2019 13.2186 16.5801 15.2513 16.5801H18.049V16.58ZM11.531 10.7882C11.531 10.1414 12.0554 9.61697 12.7022 9.61697H27.0201C27.667 9.61697 28.1914 10.1414 28.1914 10.7882C28.1914 11.435 27.667 11.9594 27.0201 11.9594H12.7022C12.0554 11.9594 11.531 11.435 11.531 10.7882Z" fill="white"/>
<path opacity="0.4" d="M38.6684 0.00488281H1.33161C0.596154 0.00488281 0 0.601036 0 1.33641V25.0822C0 25.8176 0.596154 26.4138 1.33161 26.4138H12.9912C12.0929 25.374 11.5353 24.0319 11.4958 22.5625H7.78279C7.13596 22.5625 6.61157 22.0381 6.61157 21.3912V21.3155C6.61157 20.4992 5.95545 19.8351 5.14894 19.8351H4.84794C4.20111 19.8351 3.67671 19.3107 3.67671 18.6639V7.67922C3.67671 7.03239 4.20111 6.508 4.84794 6.508H5.14894C5.95545 6.508 6.61157 5.84391 6.61157 5.02772C6.61157 4.38089 7.13596 3.8565 7.78279 3.8565H31.939C32.5858 3.8565 33.1102 4.38089 33.1102 5.02772V5.10346C33.1102 5.91965 33.7663 6.58373 34.5729 6.58373H34.8739C35.5207 6.58373 36.0451 7.10813 36.0451 7.75496V18.7399C36.0451 19.3867 35.5207 19.9111 34.8739 19.9111H34.5729C33.7663 19.9111 33.1102 20.5752 33.1102 21.3914C33.1102 22.0382 32.5858 22.5626 31.939 22.5626H28.5042C28.4646 24.0321 27.9071 25.3742 27.0088 26.414H38.6684C39.4038 26.414 40 25.8178 40 25.0824V1.33641C40 0.601036 39.4038 0.00488281 38.6684 0.00488281Z" fill="url(#paint0_radial_339_16254)"/>
<path d="M22.354 28.549H17.6461C16.5777 28.549 15.5728 28.2741 14.6965 27.7931C14.4189 29.2305 14.1416 31.1075 14.1416 32.8701C14.1416 35.2531 14.6092 37.6694 14.9123 38.9857C15.0484 39.577 15.5744 39.9957 16.1811 39.9957H16.1837C16.899 39.9957 17.4795 39.4186 17.4856 38.7033C17.5075 36.1144 17.8031 32.6835 19.9431 32.6835C22.092 32.6835 22.5164 36.16 22.5981 38.7349C22.6204 39.4378 23.1963 39.9957 23.8994 39.9957H23.9175C24.5048 39.9957 25.0199 39.6028 25.1737 39.0359C25.5268 37.735 26.0859 35.3006 26.0859 32.9269C26.0859 31.1491 25.7574 29.1979 25.437 27.7178C24.53 28.2454 23.4771 28.549 22.354 28.549Z" fill="white"/>
</g>
<defs>
<radialGradient id="paint0_radial_339_16254" cx="0" cy="0" r="1" gradientUnits="userSpaceOnUse" gradientTransform="translate(7.72438 -0.026174) rotate(5.61676) scale(75.1285 31.6478)">
<stop stop-color="#DDD2FF"/>
<stop offset="1" stop-color="#775ACE"/>
</radialGradient>
<clipPath id="clip0_339_16254">
<rect width="40" height="40" fill="white"/>
</clipPath>
</defs>
</svg>
