<svg width="20" height="20" viewBox="0 0 20 20" fill="none" xmlns="http://www.w3.org/2000/svg">
<path d="M15 18.5H5C2 18.5 0 17 0 13.5V6.5C0 3 2 1.5 5 1.5H15C18 1.5 20 3 20 6.5V13.5C20 17 18 18.5 15 18.5Z" fill="url(#paint0_radial_199_5852)"/>
<path d="M10.0008 10.87C9.16075 10.87 8.31076 10.61 7.66076 10.08L4.53075 7.57997C4.21075 7.31997 4.15076 6.84997 4.41076 6.52997C4.67076 6.20997 5.14076 6.14997 5.46076 6.40997L8.59075 8.90997C9.35075 9.51997 10.6407 9.51997 11.4007 8.90997L14.5308 6.40997C14.8508 6.14997 15.3308 6.19997 15.5808 6.52997C15.8408 6.84997 15.7908 7.32997 15.4608 7.57997L12.3308 10.08C11.6908 10.61 10.8408 10.87 10.0008 10.87Z" fill="#6149AB"/>
<defs>
<radialGradient id="paint0_radial_199_5852" cx="0" cy="0" r="1" gradientUnits="userSpaceOnUse" gradientTransform="translate(3.86219 1.48001) rotate(7.21607) scale(37.6824 20.3084)">
<stop stop-color="#DDD2FF"/>
<stop offset="1" stop-color="#775ACE"/>
</radialGradient>
</defs>
</svg>
