<svg width="40" height="40" viewBox="0 0 40 40" fill="none" xmlns="http://www.w3.org/2000/svg">
<g id="lucide/newspaper">
<g id="hospital">
<path id="Vector" d="M35.8334 34.6459H4.16669C3.51752 34.6459 2.97919 35.1842 2.97919 35.8334C2.97919 36.4825 3.51752 37.0209 4.16669 37.0209H35.8334C36.4825 37.0209 37.0209 36.4825 37.0209 35.8334C37.0209 35.1842 36.4825 34.6459 35.8334 34.6459Z" fill="white"/>
<path id="Vector_2" opacity="0.4" d="M27.9167 4.16663H12.0833C7.33333 4.16663 5.75 7.00079 5.75 10.5V35.8333H34.25V10.5C34.25 7.00079 32.6667 4.16663 27.9167 4.16663Z" fill="white"/>
<path id="Vector_3" d="M23.261 24.75H16.7218C15.9143 24.75 15.2335 25.415 15.2335 26.2383V35.8333H24.7335V26.2383C24.7494 25.415 24.0843 24.75 23.261 24.75Z" fill="white"/>
<path id="Vector_4" d="M23.9584 13.2708H21.1875V10.5C21.1875 9.85083 20.6492 9.3125 20 9.3125C19.3509 9.3125 18.8125 9.85083 18.8125 10.5V13.2708H16.0417C15.3925 13.2708 14.8542 13.8092 14.8542 14.4583C14.8542 15.1075 15.3925 15.6458 16.0417 15.6458H18.8125V18.4167C18.8125 19.0658 19.3509 19.6042 20 19.6042C20.6492 19.6042 21.1875 19.0658 21.1875 18.4167V15.6458H23.9584C24.6075 15.6458 25.1459 15.1075 25.1459 14.4583C25.1459 13.8092 24.6075 13.2708 23.9584 13.2708Z" fill="white"/>
</g>
</g>
</svg>
