<svg width="136" height="54" viewBox="0 0 136 54" fill="none" xmlns="http://www.w3.org/2000/svg">
<path d="M73.6162 42.3637V29.8843H78.6103C79.9187 29.8843 81.0635 30.1517 82.0448 30.6865C83.0378 31.2094 83.8088 31.9404 84.3578 32.8793C84.9069 33.8182 85.1814 34.8998 85.1814 36.124C85.1814 37.3481 84.9069 38.4297 84.3578 39.3686C83.8088 40.3075 83.0378 41.0444 82.0448 41.5793C81.0635 42.1022 79.9187 42.3637 78.6103 42.3637H73.6162ZM74.9129 41.2227H78.5402C79.6266 41.2227 80.567 41.0088 81.3614 40.5809C82.1675 40.1411 82.7924 39.541 83.2364 38.7803C83.6803 38.0078 83.9022 37.1223 83.9022 36.124C83.9022 35.1137 83.6803 34.2283 83.2364 33.4676C82.7924 32.707 82.1675 32.1127 81.3614 31.6849C80.567 31.2451 79.6266 31.0252 78.5402 31.0252H74.9129V41.2227Z" fill="#3156AB"/>
<path d="M89.2498 35.4643H95.7333V36.5875H89.2498V35.4643ZM89.39 41.2227H96.7672V42.3637H88.0933V29.8843H96.5043V31.0252H89.39V41.2227Z" fill="#3156AB"/>
<path d="M99.8152 42.3637V29.8843H100.884L109.348 40.7235H108.787V29.8843H110.066V42.3637H108.997L100.551 31.5244H101.112V42.3637H99.8152Z" fill="#3156AB"/>
<path d="M116.453 42.3637V31.0252H112.142V29.8843H122.06V31.0252H117.75V42.3637H116.453Z" fill="#3156AB"/>
<path d="M74.748 17.5359L74.6953 15.9261L82.1497 8.1274H83.6442L78.2115 13.9228L77.4731 14.7277L74.748 17.5359ZM73.6228 20.6483V8.1274H74.9239V20.6483H73.6228ZM82.4662 20.6483L77.1567 14.4236L78.0357 13.4577L84.0134 20.6483H82.4662Z" fill="#C235C3"/>
<path d="M91.0555 20.7556C90.1295 20.7556 89.268 20.6006 88.471 20.2905C87.6857 19.9686 87.0001 19.5214 86.414 18.949C85.8397 18.3647 85.3885 17.691 85.0603 16.9278C84.7438 16.1527 84.5856 15.306 84.5856 14.3878C84.5856 13.4696 84.7438 12.6289 85.0603 11.8658C85.3885 11.0907 85.8397 10.4169 86.414 9.84454C87.0001 9.26024 87.6857 8.81306 88.471 8.50302C89.2563 8.18106 90.1178 8.02007 91.0555 8.02007C91.9814 8.02007 92.837 8.18106 93.6223 8.50302C94.4076 8.81306 95.0874 9.25427 95.6618 9.82666C96.2478 10.399 96.6991 11.0728 97.0155 11.8479C97.3437 12.623 97.5078 13.4696 97.5078 14.3878C97.5078 15.306 97.3437 16.1527 97.0155 16.9278C96.6991 17.7029 96.2478 18.3766 95.6618 18.949C95.0874 19.5214 94.4076 19.9686 93.6223 20.2905C92.837 20.6006 91.9814 20.7556 91.0555 20.7556ZM91.0555 19.575C91.7939 19.575 92.4737 19.4498 93.0949 19.1994C93.7278 18.9371 94.2728 18.5734 94.73 18.1083C95.1988 17.6313 95.5621 17.0828 95.82 16.4627C96.0778 15.8307 96.2068 15.1391 96.2068 14.3878C96.2068 13.6366 96.0778 12.9509 95.82 12.3308C95.5621 11.6988 95.1988 11.1503 94.73 10.6852C94.2728 10.2082 93.7278 9.84454 93.0949 9.59413C92.4737 9.33178 91.7939 9.20061 91.0555 9.20061C90.3171 9.20061 89.6314 9.33178 88.9985 9.59413C88.3655 9.84454 87.8147 10.2082 87.3458 10.6852C86.8887 11.1503 86.5254 11.6988 86.2558 12.3308C85.9979 12.9509 85.869 13.6366 85.869 14.3878C85.869 15.1272 85.9979 15.8128 86.2558 16.4448C86.5254 17.0768 86.8887 17.6313 87.3458 18.1083C87.8147 18.5734 88.3655 18.9371 88.9985 19.1994C89.6314 19.4498 90.3171 19.575 91.0555 19.575Z" fill="#C235C3"/>
<path d="M103.817 20.7556C102.903 20.7556 102.024 20.6065 101.18 20.3084C100.348 19.9984 99.7031 19.6049 99.246 19.1279L99.7559 18.1083C100.19 18.5376 100.77 18.9013 101.496 19.1994C102.235 19.4856 103.008 19.6287 103.817 19.6287C104.591 19.6287 105.218 19.5333 105.698 19.3425C106.191 19.1398 106.548 18.8715 106.771 18.5376C107.005 18.2037 107.122 17.8341 107.122 17.4286C107.122 16.9397 106.982 16.5462 106.7 16.2481C106.431 15.95 106.073 15.7174 105.628 15.5505C105.183 15.3716 104.69 15.2166 104.151 15.0854C103.612 14.9543 103.073 14.8171 102.534 14.674C101.995 14.519 101.496 14.3163 101.039 14.0659C100.594 13.8154 100.231 13.4875 99.9492 13.0821C99.6797 12.6647 99.5449 12.1221 99.5449 11.4544C99.5449 10.8343 99.7031 10.2679 100.02 9.75511C100.348 9.23042 100.846 8.81306 101.514 8.50302C102.182 8.18106 103.038 8.02007 104.081 8.02007C104.772 8.02007 105.458 8.12143 106.138 8.32415C106.818 8.51495 107.404 8.78325 107.896 9.12906L107.456 10.1844C106.929 9.82666 106.366 9.56431 105.769 9.39737C105.183 9.23042 104.614 9.14695 104.063 9.14695C103.325 9.14695 102.715 9.24831 102.235 9.45103C101.754 9.65375 101.397 9.92802 101.162 10.2738C100.94 10.6077 100.828 10.9893 100.828 11.4186C100.828 11.9075 100.963 12.301 101.233 12.5991C101.514 12.8972 101.877 13.1298 102.323 13.2967C102.78 13.4637 103.278 13.6127 103.817 13.7439C104.356 13.8751 104.89 14.0182 105.417 14.1732C105.956 14.3282 106.448 14.5309 106.894 14.7813C107.351 15.0198 107.714 15.3418 107.984 15.7472C108.265 16.1527 108.406 16.6833 108.406 17.3392C108.406 17.9473 108.242 18.5138 107.914 19.0384C107.585 19.5512 107.081 19.9686 106.402 20.2905C105.733 20.6006 104.872 20.7556 103.817 20.7556Z" fill="#C235C3"/>
<path d="M111.241 20.6483V8.1274H112.313L117.939 17.8937H117.376L122.95 8.1274H124.022V20.6483H122.774V10.1128H123.073L117.939 19.0563H117.324L112.155 10.1128H112.489V20.6483H111.241Z" fill="#C235C3"/>
<path d="M128.032 20.6483V8.1274H129.333V20.6483H128.032Z" fill="#C235C3"/>
<path d="M62.667 2.7L62.667 51.3" stroke="#3156AB" stroke-miterlimit="10"/>
<path d="M51.175 22.1684C48.4912 20.9416 47.7795 18.8175 46.9632 17.3046C46.1465 19.4899 47.3462 21.6575 48.0482 22.4681C41.6191 17.4879 52.0758 12.6989 44.4264 9.97588C39.0691 8.06874 32.2788 18.6087 31.3576 23.5936C31.3319 23.7326 31.4677 23.8351 31.5918 23.7768C35.5274 21.9252 38.205 19.6845 39.1787 22.0023C39.9068 23.7354 37.1063 25.6695 35.2292 26.6272C35.0759 26.7055 35.1158 26.9493 35.2836 26.98C51.2668 29.8963 52.4467 22.7497 51.175 22.1684Z" fill="#3156AB"/>
<path d="M38.2586 50.226C38.5367 47.1808 40.2471 45.8116 41.3687 44.5295C39.1254 44.4018 37.5279 46.2687 37.0095 47.2181C39.5331 39.2859 47.1558 48.1624 47.2446 39.7247C47.3069 33.8157 35.5986 30.3718 30.7747 31.014C30.6398 31.032 30.5882 31.199 30.6799 31.3037C33.5936 34.6292 36.4684 36.5854 34.6636 38.275C33.3143 39.5382 30.6806 37.3653 29.223 35.8025C29.1041 35.6751 28.894 35.7918 28.9186 35.9679C31.2566 52.7303 38.1269 51.6689 38.2586 50.226Z" fill="#3156AB"/>
<path d="M8.58244 45.9726C11.4462 45.3271 13.2139 46.6145 14.7239 47.3423C14.1611 45.0713 11.9733 44.047 10.9497 43.8187C18.9543 43.9279 13.1603 54.2011 20.889 51.7344C26.3012 50.007 25.8994 37.3144 23.8527 32.7081C23.7954 32.5792 23.627 32.5781 23.5593 32.701C21.4062 36.6074 20.4912 40.0604 18.4024 38.7762C16.841 37.8161 18.0264 34.5378 19.0115 32.614C19.0918 32.4572 18.921 32.2834 18.7677 32.3612C4.17633 39.7635 7.22552 46.2784 8.58244 45.9726Z" fill="#3156AB"/>
<path d="M3.41822 15.2109C4.87892 17.8626 4.24267 20.0126 4.03837 21.7359C5.93881 20.4848 6.2072 17.9971 6.10384 16.9096C8.44127 24.9038 -2.69481 22.269 1.9085 29.2046C5.13262 34.0622 16.5926 29.7962 20.1698 26.358C20.2695 26.2622 20.2185 26.0956 20.0855 26.0656C15.8662 25.1135 12.4374 25.2548 12.9731 22.7864C13.3736 20.9406 16.7272 21.1222 18.782 21.5164C18.9499 21.5486 19.0566 21.3281 18.939 21.1993C7.74195 8.93776 2.72606 13.9544 3.41822 15.2109Z" fill="#3156AB"/>
<path d="M29.8836 0.66585C27.913 2.9294 25.7579 2.95504 24.1241 3.27942C25.8465 4.78553 28.1969 4.29088 29.1568 3.85529C22.5833 8.62553 21.5771 -3.2502 16.6624 3.44832C13.2208 8.13892 20.6143 18.2213 24.8446 20.7273C24.9631 20.7976 25.1013 20.6964 25.0879 20.5554C24.6646 16.07 23.4863 12.7051 25.9009 12.4821C27.7058 12.3154 28.5667 15.7016 28.8366 17.8648C28.8585 18.041 29.0949 18.0785 29.1764 17.9221C36.9256 3.04291 30.8174 -0.406642 29.8836 0.66585Z" fill="#3156AB"/>
</svg>
