<svg width="100" height="100" viewBox="0 0 100 100" fill="none" xmlns="http://www.w3.org/2000/svg">
<path d="M75.8757 37.2549C78.348 29.2104 80.3702 20.0457 75.2518 13.3387C70.1991 6.7178 61.4236 3.09119 52.3458 6.03185C52.3161 6.04651 52.2865 6.04651 52.2569 6.06118C49.8431 6.8531 47.2356 6.8531 44.8218 6.06118C44.7922 6.04651 44.7626 6.04651 44.733 6.03185C28.5595 0.796672 13.3191 16.4142 18.4436 32.6623L19.199 35.0526C20.5285 39.5588 22.4085 43.8875 24.7975 47.9426C25.867 49.5525 26.4855 51.4149 26.5896 53.3391C26.5896 57.7384 28.0411 90 36.8239 90C42.4521 90 44.0961 81.2014 44.0961 72.4028V65.0706C44.0961 65.0706 44.1553 59.2048 48.5394 59.2048C52.9234 59.2048 52.9826 65.0706 52.9826 65.0706V72.4028C52.9826 81.2014 54.6266 90 60.2548 90C68.3415 90 70.2077 62.651 70.4595 54.8788L75.8757 37.2549Z" fill="url(#paint0_linear_90_390)"/>
<path d="M78.9805 10.6403L82.4544 18.0296C82.5292 18.1928 82.6431 18.335 82.7861 18.4436C82.929 18.5521 83.0966 18.6236 83.2739 18.6517L91.0679 19.8399C91.2709 19.8768 91.46 19.9684 91.6149 20.1048C91.7697 20.2411 91.8845 20.4171 91.9469 20.6138C92.0093 20.8106 92.0168 21.0206 91.9688 21.2213C91.9208 21.422 91.819 21.6058 91.6743 21.753L86.0139 27.5418C85.8883 27.6709 85.7948 27.8276 85.7407 27.9994C85.6867 28.1712 85.6738 28.3533 85.7029 28.531L87.0356 36.6886C87.078 36.8918 87.0615 37.1028 86.988 37.2969C86.9145 37.491 86.7871 37.66 86.6207 37.7841C86.4544 37.9082 86.256 37.9821 86.0491 37.9971C85.8421 38.0122 85.6351 37.9678 85.4526 37.8691L78.5139 34.0368C78.3573 33.9503 78.1813 33.905 78.0023 33.905C77.8234 33.905 77.6474 33.9503 77.4907 34.0368L70.5474 37.8675C70.3649 37.9662 70.1579 38.0106 69.9509 37.9956C69.744 37.9805 69.5456 37.9066 69.3793 37.7825C69.2129 37.6585 69.0855 37.4895 69.012 37.2954C68.9384 37.1013 68.9219 36.8902 68.9644 36.687L70.2971 28.5294C70.3262 28.3517 70.3133 28.1696 70.2593 27.9978C70.2052 27.826 70.1117 27.6693 69.9861 27.5403L64.3257 21.7514C64.181 21.6042 64.0792 21.4204 64.0312 21.2197C63.9832 21.019 63.9907 20.809 64.0531 20.6123C64.1155 20.4156 64.2303 20.2396 64.3851 20.1032C64.54 19.9668 64.7291 19.8753 64.9321 19.8384L72.726 18.6501C72.9033 18.622 73.0709 18.5505 73.2139 18.442C73.3569 18.3335 73.4708 18.1912 73.5456 18.028L77.0195 10.6387C77.1035 10.4486 77.2409 10.2869 77.4151 10.1735C77.5893 10.0601 77.7927 9.99984 78.0005 10C78.2083 10.0002 78.4116 10.0608 78.5856 10.1745C78.7596 10.2881 78.8968 10.45 78.9805 10.6403Z" fill="url(#paint1_linear_90_390)"/>
<path d="M11.2269 41.4997C12.5348 46.3586 14.4583 51.0304 16.9505 55.4018C17.9139 56.8665 18.471 58.5608 18.5648 60.3115C18.5648 70.4032 21.2025 98.2407 29.94 93.0654C23.6694 88.9148 22.5673 63.9805 22.5673 60.3115C22.4735 58.5608 21.9164 56.8665 20.953 55.4018C18.4642 51.0288 16.5409 46.3574 15.2294 41.4997C14.3756 38.8047 14.1222 35.9554 14.4868 33.1521C14.8515 30.3487 15.8254 27.6591 17.3402 25.2722C18.855 22.8853 20.874 20.8589 23.2553 19.3354C25.6367 17.8119 28.3227 16.8281 31.1247 16.4532C18.0832 15.003 7.01355 28.0072 11.2269 41.4997Z" fill="white"/>
<path d="M9.60851 30.6355L12.1968 31.2839C11.4015 34.5232 11.5066 37.9183 12.501 41.1021L9.95273 41.9026C8.81236 38.2486 8.69332 34.3523 9.60851 30.6355Z" fill="white"/>
<path d="M35.2687 15.9903C32.6326 15.1743 29.8626 14.8811 27.1142 15.1271C24.3538 15.453 21.6877 16.3334 19.2759 17.7154C16.9126 19.1555 14.8327 21.0157 13.1387 23.2042C11.519 25.4462 10.3209 27.9643 9.60318 30.6355C9.56148 30.8118 9.55567 30.9948 9.58608 31.1734C9.6165 31.352 9.68253 31.5227 9.78023 31.6753C9.87794 31.8279 10.0053 31.9593 10.1548 32.0616C10.3043 32.164 10.4729 32.2353 10.6505 32.2712C10.9853 32.3392 11.3334 32.2742 11.6211 32.0899C11.9088 31.9056 12.1133 31.6165 12.1915 31.2839C12.8244 28.9556 13.8711 26.7602 15.2814 24.8025C16.7609 22.8991 18.5714 21.2779 20.6261 20.0168C22.7111 18.8267 25.0134 18.0663 27.397 17.7808C29.7898 17.5724 32.2003 17.8302 34.4948 18.5399L34.5389 18.5572L34.5722 18.5679C37.0167 19.3791 39.6578 19.3791 42.1023 18.5679L42.133 18.5586L42.1823 18.5412C45.5459 17.4297 49.1725 17.3952 52.5565 18.4427C55.9406 19.4902 58.9135 21.5675 61.0609 24.3849L60.0843 26.4676L53.6135 27.4535C53.1996 27.5175 52.8114 27.6948 52.4921 27.9658C52.1728 28.2369 51.9347 28.5911 51.8044 28.9891C51.6666 29.393 51.6435 29.8272 51.7377 30.2434C51.8319 30.6596 52.0398 31.0415 52.3381 31.3466L57.0664 36.183L55.9483 43.01C55.8732 43.4377 55.921 43.8779 56.0864 44.2794C56.2517 44.681 56.5277 45.0273 56.8823 45.2781C57.2255 45.5232 57.6312 45.6658 58.0523 45.6894C58.4734 45.7131 58.8926 45.6167 59.2611 45.4115L63.5611 43.0393L63.4837 43.2821C62.3192 47.279 60.6709 51.1188 58.5753 54.716C57.474 56.3845 56.8489 58.322 56.7675 60.3195C56.7675 69.4332 54.422 92.3397 48.8826 92.3397C45.6165 92.3397 43.6659 86.8535 43.6659 77.6638V70.9715C43.6419 68.6688 42.4972 64.314 38.3292 64.314C34.1613 64.314 33.0166 68.6688 32.9926 70.9849V77.6558C32.9926 86.8455 31.042 92.3316 27.7759 92.3316C22.2351 92.3316 19.891 69.4252 19.891 60.3115C19.8095 58.3142 19.1849 56.3769 18.0845 54.708C15.9876 51.1102 14.3383 47.2695 13.1734 43.2715L12.4917 41.0968C12.4391 40.9296 12.3541 40.7745 12.2416 40.6401C12.1291 40.5058 11.9912 40.395 11.8358 40.314C11.5221 40.1503 11.1562 40.1181 10.8186 40.2242C10.481 40.3304 10.1995 40.5663 10.0358 40.88C9.8722 41.1938 9.8399 41.5597 9.94606 41.8973L10.6252 44.0693C11.8548 48.2748 13.5956 52.3137 15.8084 56.0955C16.6473 57.3502 17.138 58.8051 17.2306 60.3115C17.2306 60.6584 17.6843 95 27.7839 95C32.9419 95 35.6689 89.0029 35.6689 77.6558V71.0022C35.6689 70.8381 35.7623 66.9824 38.3373 66.9824C40.9122 66.9824 41.0056 70.8381 41.0056 70.9849V77.6558C41.0056 89.0029 43.7326 95 48.8906 95C58.9902 95 59.4439 60.6584 59.4439 60.3115C59.5368 58.8049 60.0281 57.3501 60.8674 56.0955C63.0763 52.3153 64.8139 48.2787 66.0414 44.076L66.3802 42.9899L70.7723 45.4128C71.1408 45.618 71.56 45.7144 71.9811 45.6908C72.4022 45.6672 72.8079 45.5245 73.1512 45.2794C73.5055 45.0284 73.7813 44.6821 73.9466 44.2806C74.1119 43.8791 74.1599 43.439 74.0851 43.0113L72.9697 36.183L77.698 31.3466C77.9963 31.0415 78.2041 30.6596 78.2984 30.2434C78.3926 29.8272 78.3695 29.393 78.2317 28.9891C78.1013 28.5911 77.8633 28.2369 77.544 27.9658C77.2246 27.6948 76.8365 27.5175 76.4226 27.4535L69.9571 26.4676L67.0673 20.3143C66.8869 19.9235 66.5984 19.5926 66.2358 19.3606C65.8732 19.1286 65.4518 19.0054 65.0214 19.0054C64.5909 19.0054 64.1695 19.1286 63.8069 19.3606C63.4444 19.5926 63.1558 19.9235 62.9754 20.3143L62.3083 21.7246C59.7701 18.8086 56.4254 16.7092 52.6959 15.6912C48.9664 14.6731 45.019 14.7818 41.3512 16.0036L41.3285 16.0116C41.3098 16.0116 41.2884 16.0236 41.2684 16.0317C39.365 16.6609 37.3095 16.6609 35.4061 16.0317V16.0383L35.3207 16.009L35.2687 15.9903ZM67.633 27.787C67.7903 28.1252 68.0285 28.4194 68.3267 28.6435C68.6248 28.8676 68.9735 29.0147 69.3421 29.0719L75.3085 29.9818L70.9404 34.4486C70.6867 34.7099 70.4979 35.0271 70.3892 35.3747C70.2805 35.7223 70.255 36.0906 70.3147 36.4498L71.3313 42.6751L66.1027 39.7906C65.7711 39.6071 65.3984 39.5108 65.0194 39.5108C64.6404 39.5108 64.2676 39.6071 63.936 39.7906L58.7101 42.6684L59.7267 36.4432C59.7861 36.0838 59.7603 35.7155 59.6514 35.3679C59.5425 35.0203 59.3535 34.7031 59.0997 34.4419L54.7329 29.9764L60.6993 29.0665C61.0677 29.0095 61.4164 28.8626 61.7145 28.6387C62.0126 28.4149 62.2509 28.121 62.4084 27.783L65.0207 22.2329L67.633 27.787Z" fill="#6149AB"/>
<path d="M10.3703 37.5866C10.1951 37.5874 10.0215 37.5538 9.85925 37.4876C9.69705 37.4213 9.54948 37.3238 9.42497 37.2005C9.17351 36.9515 9.03125 36.6129 9.02948 36.2591C9.02771 35.9052 9.16658 35.5652 9.41554 35.3137C9.66449 35.0622 10.0031 34.92 10.357 34.9182H10.3703C10.7242 34.9182 11.0635 35.0588 11.3137 35.309C11.5639 35.5592 11.7045 35.8985 11.7045 36.2524C11.7045 36.6062 11.5639 36.9456 11.3137 37.1958C11.0635 37.446 10.7242 37.5866 10.3703 37.5866Z" fill="#6149AB"/>
<path d="M29.3516 23.0081C29.7054 23.0081 30.0448 22.8675 30.295 22.6173C30.5452 22.3671 30.6858 22.0277 30.6858 21.6739C30.6858 21.32 30.5452 20.9807 30.295 20.7305C30.0448 20.4803 29.7054 20.3397 29.3516 20.3397C26.9922 20.3705 24.673 20.9546 22.5805 22.0451C20.488 23.1356 18.6807 24.702 17.304 26.6183C15.8699 28.5587 14.9185 30.8126 14.5285 33.1937C14.1385 35.5748 14.3211 38.0145 15.0613 40.311C15.108 40.4847 15.1894 40.6473 15.3006 40.7888C15.4118 40.9303 15.5504 41.0479 15.7082 41.1344C15.866 41.2209 16.0397 41.2746 16.2187 41.2923C16.3978 41.31 16.5787 41.2912 16.7503 41.2372C16.922 41.1831 17.0809 41.0949 17.2176 40.9779C17.3543 40.8608 17.4659 40.7173 17.5456 40.556C17.6254 40.3947 17.6717 40.2189 17.6818 40.0392C17.6918 39.8595 17.6655 39.6797 17.6042 39.5105C16.993 37.6133 16.8422 35.598 17.1645 33.631C17.4867 31.6641 18.2727 29.8022 19.4574 28.1993C20.5858 26.6206 22.0687 25.3285 23.7871 24.4269C25.5054 23.5254 27.4113 23.0394 29.3516 23.0081Z" fill="#6149AB"/>
<path d="M54.2499 46.3054C54.1434 45.9801 53.9487 45.6907 53.6875 45.4695C53.4262 45.2484 53.1087 45.104 52.7703 45.0526L49.4883 44.5523L48.0207 41.4196C47.8722 41.101 47.6358 40.8313 47.3393 40.6423C47.0428 40.4534 46.6985 40.353 46.347 40.353C45.9954 40.353 45.6511 40.4534 45.3546 40.6423C45.0581 40.8313 44.8217 41.101 44.6732 41.4196L43.2057 44.5523L39.9223 45.0526C39.5841 45.1042 39.2669 45.2487 39.0059 45.4699C38.7449 45.691 38.5504 45.9803 38.444 46.3054C38.3298 46.6333 38.3093 46.9865 38.3847 47.3254C38.4601 47.6642 38.6285 47.9754 38.8709 48.2239L41.2884 50.6948L40.7161 54.193C40.6574 54.5406 40.6983 54.8977 40.8341 55.2231C40.9699 55.5484 41.1949 55.8287 41.4832 56.0315C41.765 56.2314 42.0975 56.3475 42.4424 56.3664C42.7874 56.3853 43.1306 56.3062 43.4325 56.1382L46.341 54.5372L49.2508 56.1382C49.5525 56.3061 49.8955 56.3851 50.2402 56.3662C50.5848 56.3473 50.9172 56.2313 51.1987 56.0315C51.487 55.8287 51.7121 55.5484 51.8478 55.2231C51.9836 54.8977 52.0245 54.5406 51.9658 54.193L51.3935 50.6948L53.8137 48.2239C54.0577 47.9764 54.2278 47.6657 54.3049 47.3268C54.382 46.9878 54.3629 46.6341 54.2499 46.3054ZM49.2068 49.1071C49.0016 49.3185 48.8487 49.5749 48.7604 49.856C48.6722 50.137 48.6509 50.4348 48.6984 50.7255L49.0667 52.9803L47.2295 51.9676C46.9578 51.817 46.6523 51.738 46.3416 51.738C46.031 51.738 45.7254 51.817 45.4537 51.9676L43.6179 52.9803L43.9848 50.7295C44.0332 50.4383 44.0126 50.1397 43.9245 49.8579C43.8365 49.5762 43.6835 49.319 43.4778 49.1071L41.8608 47.4528L44.0288 47.1219C44.3304 47.0766 44.6159 46.9573 44.86 46.7745C45.104 46.5917 45.2988 46.3512 45.427 46.0746L46.3423 44.132L47.2562 46.0719C47.3836 46.3494 47.5779 46.5908 47.8218 46.7746C48.0656 46.9583 48.3513 47.0786 48.6531 47.1246L50.8238 47.4554L49.2068 49.1071Z" fill="#6149AB"/>
<path d="M47.4336 26.3741L44.1516 25.8738L42.68 22.7412C42.5315 22.4225 42.2951 22.1528 41.9986 21.9639C41.7021 21.7749 41.3578 21.6746 41.0063 21.6746C40.6547 21.6746 40.3104 21.7749 40.0139 21.9639C39.7174 22.1528 39.481 22.4225 39.3325 22.7412L37.865 25.8738L34.5816 26.3741C34.2434 26.4258 33.9262 26.5702 33.6652 26.7914C33.4042 27.0126 33.2097 27.3018 33.1033 27.6269C32.9896 27.9552 32.9697 28.3086 33.0459 28.6475C33.122 28.9864 33.2911 29.2974 33.5342 29.5455L35.9518 32.0163L35.3794 35.5145C35.3207 35.8622 35.3617 36.2193 35.4974 36.5446C35.6332 36.8699 35.8582 37.1502 36.1465 37.353C36.4281 37.5534 36.7607 37.6698 37.1057 37.6887C37.4507 37.7076 37.794 37.6282 38.0958 37.4598L41.0043 35.8588L43.9141 37.4598C44.2158 37.6276 44.5588 37.7066 44.9035 37.6878C45.2482 37.6689 45.5805 37.5528 45.862 37.353C46.1503 37.1502 46.3754 36.8699 46.5111 36.5446C46.6469 36.2193 46.6878 35.8622 46.6291 35.5145L46.0568 32.0163L48.477 29.5455C48.7205 29.2987 48.8905 28.9891 48.968 28.6512C49.0455 28.3133 49.0275 27.9605 48.9159 27.6323C48.81 27.3056 48.6153 27.0149 48.3535 26.7927C48.0917 26.5705 47.7732 26.4255 47.4336 26.3741ZM43.8701 30.4314C43.6649 30.6427 43.512 30.8991 43.4238 31.1802C43.3355 31.4612 43.3142 31.759 43.3617 32.0497L43.73 34.3045L41.8928 33.2918C41.6211 33.1412 41.3156 33.0623 41.0049 33.0623C40.6943 33.0623 40.3888 33.1412 40.117 33.2918L38.2812 34.3045L38.6481 32.0537C38.6965 31.7625 38.6759 31.4639 38.5878 31.1821C38.4998 30.9004 38.3468 30.6432 38.1411 30.4314L36.5241 28.777L38.6921 28.4461C38.9937 28.4008 39.2792 28.2815 39.5233 28.0987C39.7673 27.9159 39.9621 27.6754 40.0904 27.3988L41.0056 25.4536L41.9195 27.3934C42.0469 27.6709 42.2412 27.9124 42.4851 28.0961C42.7289 28.2798 43.0146 28.4001 43.3164 28.4461L45.4871 28.777L43.8701 30.4314Z" fill="#6149AB"/>
<defs>
<linearGradient id="paint0_linear_90_390" x1="47.9338" y1="5" x2="47.9338" y2="90" gradientUnits="userSpaceOnUse">
<stop stop-color="#F5F2FF"/>
<stop offset="1" stop-color="#D0D1F9"/>
</linearGradient>
<linearGradient id="paint1_linear_90_390" x1="78" y1="10" x2="78" y2="38" gradientUnits="userSpaceOnUse">
<stop stop-color="#F5F2FF"/>
<stop offset="1" stop-color="#D0D1F9"/>
</linearGradient>
</defs>
</svg>
