<svg width="100" height="100" viewBox="0 0 100 100" fill="none" xmlns="http://www.w3.org/2000/svg">
<path d="M77.4419 37.2549C79.9141 29.2104 81.9364 20.0457 76.8179 13.3387C71.7653 6.7178 62.9898 3.09119 53.9119 6.03185C53.8823 6.04651 53.8526 6.04651 53.823 6.06118C51.4092 6.8531 48.8018 6.8531 46.388 6.06118C46.3583 6.04651 46.3287 6.04651 46.2991 6.03185C30.1256 0.796672 14.8852 16.4142 20.0098 32.6623L20.7651 35.0526C22.0946 39.5588 23.9747 43.8875 26.3636 47.9426C27.4332 49.5525 28.0516 51.4149 28.1558 53.3391C28.1558 57.7384 29.6072 90 38.3901 90C44.0182 90 45.6622 81.2014 45.6622 72.4028V65.0706C45.6622 65.0706 45.7215 59.2048 50.1055 59.2048C54.4895 59.2048 54.5488 65.0706 54.5488 65.0706V72.4028C54.5488 81.2014 56.1928 90 61.8209 90C69.9076 90 71.7738 62.651 72.0256 54.8788L77.4419 37.2549Z" fill="url(#paint0_linear_88_506)"/>
<path d="M91.8082 26.4C91.8292 31.629 90.0104 36.6988 86.6702 40.722L77.7942 48.366C73.3479 52.0228 70.5211 57.2839 69.9262 63.01C69.3382 69.1 70.1222 77.57 73.9722 89.19C74.0503 89.4198 74.0882 89.6613 74.0842 89.904C74.084 90.3632 73.9461 90.8117 73.6884 91.1917C73.4308 91.5718 73.0652 91.8659 72.6388 92.0362C72.2123 92.2065 71.7447 92.245 71.2961 92.147C70.8476 92.0489 70.4387 91.8187 70.1222 91.486C65.7542 86.642 63.4722 79.516 62.2822 73.398V73.384C61.5157 69.4331 61.0895 65.4237 61.0082 61.4C60.8262 53.7359 63.6677 46.308 68.9182 40.722L77.7942 33.932C92.5642 24.202 82.0082 11 82.0082 11C82.0082 11 91.8082 13.8 91.8082 26.4Z" fill="url(#paint1_linear_88_506)"/>
<path d="M82.0082 11C83.2519 12.6767 84.216 14.5437 84.8628 16.5286C86.757 19.4649 87.7144 22.9074 87.6082 26.4C87.6292 31.629 85.8104 36.6988 82.4702 40.722L73.5942 48.366C69.1479 52.0228 66.3211 57.2839 65.7262 63.01C65.1382 69.1 65.9222 77.57 69.7722 89.19C69.8503 89.4198 69.8882 89.6613 69.8842 89.904C69.8809 90.256 69.7961 90.6025 69.6364 90.9162C69.7974 91.1066 69.9542 91.3012 70.1222 91.486C70.4387 91.8187 70.8476 92.0489 71.2961 92.147C71.7447 92.245 72.2123 92.2065 72.6388 92.0362C73.0652 91.8659 73.4308 91.5718 73.6884 91.1917C73.9461 90.8117 74.084 90.3632 74.0842 89.904C74.0882 89.6613 74.0503 89.4198 73.9722 89.19C70.1222 77.57 69.3382 69.1 69.9262 63.01C70.5211 57.2839 73.3479 52.0228 77.7942 48.366L86.6702 40.722C90.0104 36.6988 91.8292 31.629 91.8082 26.4C91.8082 13.8 82.0082 11 82.0082 11Z" fill="url(#paint2_linear_88_506)"/>
<path d="M94.5802 61.4C94.5802 61.4 94.5802 81.406 85.4662 91.486C85.1498 91.8187 84.7409 92.0489 84.2923 92.147C83.8438 92.245 83.3761 92.2065 82.9497 92.0362C82.5233 91.8659 82.1577 91.5718 81.9 91.1917C81.6424 90.8117 81.5045 90.3632 81.5042 89.904C81.5003 89.6613 81.5382 89.4198 81.6162 89.19C85.4662 77.57 86.2502 69.1 85.6622 63.01C85.0673 57.2839 82.2406 52.0228 77.7942 48.366C77.097 47.7801 76.3679 47.2333 75.6102 46.728C73.0929 45.0705 70.8373 43.0461 68.9182 40.722C65.578 36.6988 63.7592 31.629 63.7802 26.4C63.6852 23.0708 64.5398 19.7834 66.2442 16.922C67.9401 14.1669 70.5294 12.0766 73.5802 11C73.5802 11 63.0242 24.202 77.7942 33.932C78.2282 34.226 78.6902 34.52 79.1802 34.8C81.9551 36.3941 84.4791 38.3897 86.6702 40.722C91.9208 46.308 94.7622 53.7359 94.5802 61.4Z" fill="url(#paint3_linear_88_506)"/>
<path d="M79.1802 34.8C62.3802 25 73.5802 11 73.5802 11C70.6927 12.0337 68.2174 13.9742 66.5242 16.5314C64.9016 21.5 64.8806 28.9088 74.9802 34.8C79.734 37.4018 83.6832 41.2574 86.3985 45.9473C89.1137 50.6373 90.4909 55.9819 90.3802 61.4C90.3802 61.4 90.3802 80.6794 81.7478 90.912C81.909 91.2449 82.1487 91.5337 82.4462 91.7534C82.7438 91.9731 83.0903 92.1172 83.4559 92.1733C83.8215 92.2294 84.1952 92.1957 84.545 92.0753C84.8947 91.9548 85.2099 91.7511 85.4634 91.4818C94.5802 81.4116 94.5802 61.4 94.5802 61.4C94.6909 55.9819 93.3137 50.6373 90.5985 45.9473C87.8832 41.2574 83.934 37.4018 79.1802 34.8Z" fill="url(#paint4_linear_88_506)"/>
<path d="M88.3172 31.001C88.3172 18.1439 78.12 15.0826 78.016 15.0519C77.7442 14.9741 77.4548 14.9847 77.1894 15.0821C76.9241 15.1795 76.6965 15.3588 76.5397 15.594C76.3829 15.8291 76.3048 16.1081 76.3169 16.3905C76.3289 16.6729 76.4304 16.9442 76.6067 17.1652C76.6467 17.2145 80.568 22.2318 79.6587 27.9117C79.1373 31.1703 77.0974 34.0663 73.6294 36.5436C70.6205 34.6557 68.4764 31.6585 67.6615 28.201C66.5709 22.4091 70.6255 17.2185 70.6668 17.1665C70.8436 16.9456 70.9456 16.6741 70.958 16.3914C70.9703 16.1087 70.8923 15.8294 70.7354 15.5939C70.5784 15.3584 70.3507 15.1789 70.085 15.0815C69.8193 14.9841 69.5295 14.9737 69.2575 15.0519C66.5708 16.0218 64.2134 17.7321 62.4576 19.9852C59.901 17.6982 56.784 16.1296 53.424 15.4392C50.0641 14.7487 46.5811 14.9611 43.3299 16.0546L43.3085 16.0679L43.2512 16.0826C41.3469 16.7158 39.2887 16.7154 37.3846 16.0812L37.3033 16.0599V16.0532L37.2513 16.0399C34.6174 15.2249 31.8496 14.9323 29.1034 15.1786C26.3443 15.5041 23.6795 16.3839 21.2689 17.7652C18.9071 19.2044 16.8285 21.0634 15.1357 23.2505C13.5169 25.491 12.3196 28.0076 11.6024 30.677C11.5607 30.8532 11.5549 31.036 11.5853 31.2145C11.6157 31.393 11.6817 31.5636 11.7793 31.7161C11.877 31.8686 12.0043 31.9999 12.1537 32.1022C12.3031 32.2045 12.4715 32.2757 12.649 32.3116C12.9836 32.3796 13.3315 32.3146 13.619 32.1304C13.9065 31.9463 14.1109 31.6574 14.189 31.325C14.8215 28.9982 15.8675 26.8042 17.277 24.8478C18.7557 22.9465 20.5651 21.3273 22.6182 20.0678C24.7016 18.8775 27.0024 18.1168 29.3848 17.8305C31.7759 17.6225 34.1847 17.8797 36.478 18.5879C36.4967 18.5879 36.514 18.6039 36.5327 18.6092L36.554 18.6172C38.998 19.4265 41.6378 19.4265 44.0819 18.6172H44.0992L44.1592 18.5972C47.0335 17.6318 50.1153 17.4617 53.0784 18.1048C56.0415 18.748 58.7755 20.1804 60.9909 22.2505C59.5933 24.9519 58.8939 27.9601 58.9563 31.001C58.9447 35.8978 60.5369 40.6636 63.4896 44.5701C58.7036 50.0247 56.1436 57.0794 56.3177 64.3338C56.3838 68.1892 56.7817 72.0318 57.507 75.819C56.0364 86.1628 53.5591 92.3334 50.8644 92.3334C47.6005 92.3334 45.6512 86.8508 45.6512 77.6669V70.987C45.6285 68.6857 44.4845 64.3338 40.3179 64.3338C36.1513 64.3338 35.0073 68.6857 34.9847 71.0004V77.6669C34.9847 86.8508 33.0354 92.3334 29.7714 92.3334C24.2355 92.3334 21.8916 69.4417 21.8916 60.3339C21.8104 58.338 21.1867 56.4019 20.0876 54.734C17.991 51.1383 16.3423 47.2996 15.1783 43.3035L14.4983 41.1342C14.3922 40.7966 14.1564 40.5151 13.8427 40.3514C13.5291 40.1878 13.1632 40.1554 12.8257 40.2615C12.4882 40.3676 12.2066 40.6034 12.043 40.9171C11.8793 41.2308 11.847 41.5966 11.953 41.9342L12.6317 44.1048C13.8597 48.305 15.5965 52.3393 17.8036 56.1179C18.6418 57.3728 19.1323 58.8276 19.2249 60.3339C19.2249 60.6805 19.6783 95 29.7714 95C34.9273 95 37.6513 89.0068 37.6513 77.6669V71.0177C37.6513 70.8537 37.746 67.0004 40.3179 67.0004C42.8899 67.0004 42.9846 70.8537 42.9846 71.0004V77.6669C42.9846 89.0068 45.7098 95 50.8644 95C54.543 95 57.2537 90.7894 59.099 82.1882C60.3377 86.4907 62.4734 90.4822 65.3655 93.9C65.85 94.4113 66.4767 94.7655 67.1645 94.9169C67.8524 95.0683 68.5698 95.0099 69.2242 94.7494C69.8786 94.4888 70.4397 94.038 70.8352 93.4552C71.2307 92.8724 71.4424 92.1844 71.4428 91.48C71.4476 91.1062 71.389 90.7343 71.2694 90.3801C68.1108 80.8495 66.8362 72.647 67.4775 65.9938C67.9623 61.2915 70.155 56.9304 73.6401 53.7366C77.1239 56.9334 79.3198 61.2928 79.8147 65.9951C80.4493 72.6617 79.1733 80.8602 76.0227 90.3774C75.8486 90.9068 75.8022 91.4699 75.8873 92.0207C75.9723 92.5715 76.1864 93.0944 76.512 93.5467C76.8169 93.9675 77.2113 94.3155 77.6667 94.5656C78.1222 94.8158 78.6275 94.9618 79.1461 94.9933C79.6648 95.0248 80.1841 94.941 80.6664 94.7478C81.1488 94.5546 81.5824 94.2568 81.936 93.876C90.8598 84.0202 90.9625 65.1338 90.9585 64.4445C91.1887 57.1481 88.6418 50.0362 83.8319 44.5448C86.7643 40.6403 88.3394 35.884 88.3172 31.001ZM82.2959 28.3064C82.691 25.4779 82.3117 22.5952 81.1986 19.9652C82.7012 21.3683 83.8783 23.0833 84.6474 24.9898C85.4165 26.8963 85.7589 28.9481 85.6506 31.001C85.671 35.1558 84.3794 39.2111 81.9599 42.5888C80.1572 40.8757 78.1689 39.369 76.032 38.0969C79.3146 35.773 81.5617 32.2607 82.2959 28.3064ZM64.8162 65.7405C64.1389 72.7603 65.4562 81.3322 68.7402 91.2441C68.7627 91.3206 68.7726 91.4003 68.7695 91.48C68.7694 91.648 68.7198 91.8123 68.6268 91.9522C68.5339 92.0922 68.4018 92.2016 68.247 92.2669C68.0923 92.3322 67.9217 92.3505 67.7566 92.3194C67.5915 92.2883 67.4392 92.2092 67.3188 92.092C59.091 82.9909 58.9843 64.5191 58.9843 64.2231C58.8728 57.8119 61.0807 51.5761 65.2015 46.6634C66.8749 48.4866 68.7629 50.1005 70.8241 51.47C71.0908 51.642 71.3174 51.8407 71.5681 52.022C67.7445 55.6367 65.3481 60.5057 64.8162 65.7405ZM88.2892 64.3338C88.2892 64.5191 88.1945 82.9828 79.952 92.0867C79.8737 92.1679 79.7792 92.2318 79.6748 92.2743C79.5703 92.3167 79.4581 92.3369 79.3453 92.3334C79.2125 92.3343 79.0815 92.3032 78.9633 92.2426C78.8451 92.182 78.7434 92.0938 78.6667 91.9854C78.587 91.8759 78.5347 91.7489 78.514 91.6151C78.4934 91.4813 78.505 91.3445 78.548 91.2161C81.8159 81.3495 83.1319 72.7737 82.4626 65.7498C82.1062 62.4164 81.0083 59.205 79.2494 56.3511C77.4904 53.4972 75.1151 51.0732 72.2974 49.2567C67.4282 46.0101 61.6229 40.2142 61.6229 31.001C61.6229 25.2424 63.9096 21.8465 66.0935 19.9172C64.9122 22.6731 64.5453 25.7097 65.0362 28.6677C65.8789 33.201 68.9908 37.0676 74.2854 40.1529C89.3292 48.9274 88.3438 63.6045 88.2892 64.3338Z" fill="#6149AB"/>
<path d="M73.6241 45.6674C74.3605 45.6674 74.9574 45.0705 74.9574 44.3341C74.9574 43.5977 74.3605 43.0008 73.6241 43.0008C72.8877 43.0008 72.2908 43.5977 72.2908 44.3341C72.2908 45.0705 72.8877 45.6674 73.6241 45.6674Z" fill="#6149AB"/>
<path d="M12.3704 37.6235C12.0168 37.6253 11.6769 37.4865 11.4256 37.2377C11.1743 36.9889 11.0322 36.6505 11.0304 36.2969C11.0286 35.9433 11.1674 35.6034 11.4162 35.3521C11.665 35.1008 12.0034 34.9587 12.3571 34.9569H12.3704C12.724 34.9569 13.0631 35.0974 13.3132 35.3474C13.5632 35.5975 13.7037 35.9366 13.7037 36.2902C13.7037 36.6438 13.5632 36.983 13.3132 37.233C13.0631 37.4831 12.724 37.6235 12.3704 37.6235Z" fill="#6149AB"/>
<path d="M31.3381 23.0505C31.6917 23.0505 32.0308 22.91 32.2808 22.66C32.5309 22.4099 32.6714 22.0708 32.6714 21.7172C32.6714 21.3635 32.5309 21.0244 32.2808 20.7744C32.0308 20.5243 31.6917 20.3839 31.3381 20.3839C28.9802 20.4146 26.6625 20.9983 24.5713 22.0881C22.4802 23.1779 20.6741 24.7433 19.2982 26.6584C17.8649 28.5977 16.9139 30.8504 16.524 33.2301C16.134 35.6098 16.3162 38.0482 17.0556 40.3435C17.1407 40.614 17.3097 40.8503 17.5382 41.0181C17.7667 41.186 18.0427 41.2766 18.3263 41.2769C18.5356 41.2769 18.742 41.2276 18.9288 41.133C19.1155 41.0384 19.2774 40.9012 19.4013 40.7324C19.5251 40.5636 19.6075 40.368 19.6417 40.1615C19.6759 39.955 19.661 39.7433 19.5982 39.5435C18.9863 37.6469 18.835 35.6318 19.1571 33.6651C19.4792 31.6984 20.2652 29.8367 21.4502 28.2344C22.5783 26.6574 24.0605 25.367 25.7777 24.4667C27.4949 23.5664 29.3994 23.0813 31.3381 23.0505Z" fill="#6149AB"/>
<defs>
<linearGradient id="paint0_linear_88_506" x1="49.4999" y1="5" x2="49.4999" y2="90" gradientUnits="userSpaceOnUse">
<stop stop-color="#F5F2FF"/>
<stop offset="1" stop-color="#D0D1F9"/>
</linearGradient>
<linearGradient id="paint1_linear_88_506" x1="77.7942" y1="11" x2="77.7942" y2="92.2" gradientUnits="userSpaceOnUse">
<stop stop-color="#D0D1F9"/>
<stop offset="1" stop-color="#F5F2FF"/>
</linearGradient>
<linearGradient id="paint2_linear_88_506" x1="77.7942" y1="11" x2="77.7942" y2="92.2" gradientUnits="userSpaceOnUse">
<stop stop-color="#D0D1F9"/>
<stop offset="1" stop-color="#F5F2FF"/>
</linearGradient>
<linearGradient id="paint3_linear_88_506" x1="77.7942" y1="11" x2="77.7942" y2="92.2" gradientUnits="userSpaceOnUse">
<stop stop-color="#D0D1F9"/>
<stop offset="1" stop-color="#F5F2FF"/>
</linearGradient>
<linearGradient id="paint4_linear_88_506" x1="77.7942" y1="11" x2="77.7942" y2="92.2" gradientUnits="userSpaceOnUse">
<stop stop-color="#D0D1F9"/>
<stop offset="1" stop-color="#F5F2FF"/>
</linearGradient>
</defs>
</svg>
