<svg width="100" height="100" viewBox="0 0 100 100" fill="none" xmlns="http://www.w3.org/2000/svg">
<path d="M89.2408 62.875C89.6503 62.8759 90.0546 62.9675 90.4243 63.1432C90.794 63.3188 91.1199 63.5741 91.3786 63.8907C91.6373 64.2072 91.8222 64.5771 91.92 64.9736C92.0178 65.37 92.026 65.7832 91.9441 66.1833C90.62 72.9249 83.7941 89 52.0007 89C20.2073 89 13.3813 72.9249 12.0559 66.1833C11.9739 65.7831 11.9822 65.3698 12.0801 64.9732C12.178 64.5767 12.363 64.2067 12.6218 63.8901C12.8806 63.5736 13.2068 63.3183 13.5767 63.1427C13.9465 62.9672 14.3509 62.8757 14.7606 62.875H89.2408Z" fill="url(#paint0_linear_90_256)"/>
<path d="M42.3459 60.125H50.6214C50.9872 60.125 51.3381 60.2699 51.5967 60.5277C51.8554 60.7856 52.0007 61.1353 52.0007 61.5V71.125C52.0007 72.5837 51.4194 73.9826 50.3848 75.0141C49.3501 76.0455 47.9469 76.625 46.4836 76.625C45.0204 76.625 43.6171 76.0455 42.5825 75.0141C41.5478 73.9826 40.9666 72.5837 40.9666 71.125V61.5C40.9666 61.1353 41.1119 60.7856 41.3706 60.5277C41.6292 60.2699 41.98 60.125 42.3459 60.125Z" fill="url(#paint1_linear_90_256)"/>
<path d="M25.7947 57.375H31.3118C31.6776 57.375 32.0284 57.5199 32.287 57.7777C32.5457 58.0356 32.691 58.3853 32.691 58.75V67C32.691 68.094 32.2551 69.1432 31.4791 69.9168C30.7031 70.6904 29.6506 71.125 28.5532 71.125C27.4558 71.125 26.4034 70.6904 25.6274 69.9168C24.8514 69.1432 24.4154 68.094 24.4154 67V58.75C24.4154 58.3853 24.5608 58.0356 24.8194 57.7777C25.0781 57.5199 25.4289 57.375 25.7947 57.375Z" fill="url(#paint2_linear_90_256)"/>
<path d="M34.0703 58.75H39.5873C39.9531 58.75 40.304 58.8949 40.5626 59.1527C40.8213 59.4106 40.9666 59.7603 40.9666 60.125V68.375C40.9666 69.469 40.5306 70.5182 39.7547 71.2918C38.9787 72.0654 37.9262 72.5 36.8288 72.5C35.7314 72.5 34.6789 72.0654 33.9029 71.2918C33.127 70.5182 32.691 69.469 32.691 68.375V60.125C32.691 59.7603 32.8363 59.4106 33.095 59.1527C33.3537 58.8949 33.7045 58.75 34.0703 58.75Z" fill="url(#paint3_linear_90_256)"/>
<path d="M20.2777 56H23.0362C23.402 56 23.7528 56.1449 24.0115 56.4027C24.2701 56.6606 24.4154 57.0103 24.4154 57.375V64.25C24.4154 64.9793 24.1248 65.6788 23.6075 66.1945C23.0902 66.7103 22.3885 67 21.6569 67C20.9253 67 20.2237 66.7103 19.7063 66.1945C19.189 65.6788 18.8984 64.9793 18.8984 64.25V57.375C18.8984 57.0103 19.0437 56.6606 19.3024 56.4027C19.561 56.1449 19.9119 56 20.2777 56Z" fill="url(#paint4_linear_90_256)"/>
<path d="M75.4481 71.125C74.3507 71.125 73.2983 70.6904 72.5223 69.9168C71.7463 69.1432 71.3104 68.094 71.3104 67V58.75C71.3104 58.3853 71.4557 58.0356 71.7143 57.7777C71.973 57.5199 72.3238 57.375 72.6896 57.375H78.2067C78.5725 57.375 78.9233 57.5199 79.182 57.7777C79.4406 58.0356 79.5859 58.3853 79.5859 58.75V67C79.5859 68.094 79.15 69.1432 78.374 69.9168C77.598 70.6904 76.5456 71.125 75.4481 71.125Z" fill="url(#paint5_linear_90_256)"/>
<path d="M67.1726 72.5C66.0752 72.5 65.0227 72.0654 64.2467 71.2918C63.4707 70.5182 63.0348 69.469 63.0348 68.375V60.125C63.0348 59.7603 63.1801 59.4106 63.4388 59.1527C63.6974 58.8949 64.0482 58.75 64.414 58.75H69.9311C70.2969 58.75 70.6477 58.8949 70.9064 59.1527C71.165 59.4106 71.3104 59.7603 71.3104 60.125V68.375C71.3104 69.469 70.8744 70.5182 70.0984 71.2918C69.3224 72.0654 68.27 72.5 67.1726 72.5Z" fill="url(#paint6_linear_90_256)"/>
<path d="M82.3445 67C81.6128 67 80.9112 66.7103 80.3939 66.1946C79.8766 65.6788 79.5859 64.9794 79.5859 64.25V57.375C79.5859 57.0103 79.7312 56.6606 79.9899 56.4027C80.2486 56.1449 80.5994 56 80.9652 56H83.7237C84.0895 56 84.4403 56.1449 84.699 56.4027C84.9577 56.6606 85.103 57.0103 85.103 57.375V64.25C85.103 64.9794 84.8123 65.6788 84.295 66.1946C83.7777 66.7103 83.0761 67 82.3445 67Z" fill="url(#paint7_linear_90_256)"/>
<path d="M53.38 60.125H61.6555C62.0213 60.125 62.3721 60.2699 62.6308 60.5277C62.8895 60.7856 63.0348 61.1353 63.0348 61.5V71.125C63.0348 72.5837 62.4535 73.9826 61.4189 75.0141C60.3842 76.0455 58.9809 76.625 57.5177 76.625C56.0545 76.625 54.6512 76.0455 53.6166 75.0141C52.5819 73.9826 52.0007 72.5837 52.0007 71.125V61.5C52.0007 61.1353 52.146 60.7856 52.4047 60.5277C52.6633 60.2699 53.0141 60.125 53.38 60.125Z" fill="url(#paint8_linear_90_256)"/>
<path d="M17.6905 34.3286C17.2912 34.3278 16.897 34.2389 16.5365 34.0684C16.176 33.898 15.8581 33.6502 15.6059 33.3431C15.3537 33.0359 15.1734 32.677 15.078 32.2923C14.9826 31.9075 14.9746 31.5066 15.0545 31.1184C16.3066 24.7967 20.2243 9.58219 48.2793 9.00446C48.8141 8.99684 49.345 9.09604 49.8403 9.29615C50.3357 9.49626 50.7854 9.79319 51.1628 10.1693C51.916 10.9154 52.9368 11.3344 54.0012 11.3344C55.0656 11.3344 56.0865 10.9154 56.8397 10.1693C57.2169 9.7916 57.667 9.49341 58.1632 9.29256C58.6594 9.09172 59.1914 8.99236 59.7272 9.00046C87.7794 9.58886 91.6972 24.8021 92.9466 31.1238C93.0255 31.5111 93.0169 31.911 92.9214 32.2947C92.8259 32.6784 92.646 33.0363 92.3944 33.3427C92.1429 33.6492 91.826 33.8965 91.4667 34.067C91.1073 34.2374 90.7143 34.3268 90.316 34.3286H17.6905Z" fill="url(#paint9_linear_90_256)"/>
<path d="M48.6236 20.9862C50.0504 20.9862 51.4187 21.5484 52.4276 22.5493C53.4365 23.5502 54.0033 24.9077 54.0033 26.3232V35.663C54.0033 36.0168 53.8616 36.3562 53.6093 36.6064C53.3571 36.8567 53.015 36.9972 52.6583 36.9972H44.5889C44.2322 36.9972 43.8901 36.8567 43.6378 36.6064C43.3856 36.3562 43.2439 36.0168 43.2439 35.663V26.3232C43.2439 24.9077 43.8107 23.5502 44.8196 22.5493C45.8285 21.5484 47.1968 20.9862 48.6236 20.9862Z" fill="url(#paint10_linear_90_256)"/>
<path d="M31.1397 26.3232C32.2098 26.3232 33.236 26.7449 33.9927 27.4956C34.7494 28.2462 35.1744 29.2643 35.1744 30.3259V38.3315C35.1744 38.6854 35.0327 39.0247 34.7805 39.275C34.5283 39.5252 34.1862 39.6657 33.8295 39.6657H28.4499C28.0932 39.6657 27.7511 39.5252 27.4989 39.275C27.2466 39.0247 27.1049 38.6854 27.1049 38.3315V30.3259C27.1049 29.2643 27.53 28.2462 28.2867 27.4956C29.0434 26.7449 30.0696 26.3232 31.1397 26.3232Z" fill="url(#paint11_linear_90_256)"/>
<path d="M39.2092 24.9889C40.2793 24.9889 41.3055 25.4106 42.0622 26.1613C42.8188 26.912 43.2439 27.9301 43.2439 28.9917V36.9972C43.2439 37.3511 43.1022 37.6905 42.85 37.9407C42.5978 38.1909 42.2557 38.3315 41.899 38.3315H36.5194C36.1627 38.3315 35.8206 38.1909 35.5684 37.9407C35.3161 37.6905 35.1744 37.3511 35.1744 36.9972V28.9917C35.1744 27.9301 35.5995 26.912 36.3562 26.1613C37.1129 25.4106 38.1391 24.9889 39.2092 24.9889Z" fill="url(#paint12_linear_90_256)"/>
<path d="M24.4151 30.3259C25.1285 30.3259 25.8127 30.6071 26.3171 31.1075C26.8216 31.608 27.1049 32.2867 27.1049 32.9945V39.6657C27.1049 40.0196 26.9633 40.359 26.711 40.6092C26.4588 40.8594 26.1167 41 25.76 41H23.0702C22.7135 41 22.3714 40.8594 22.1192 40.6092C21.867 40.359 21.7253 40.0196 21.7253 39.6657V32.9945C21.7253 32.2867 22.0087 31.608 22.5131 31.1075C23.0176 30.6071 23.7017 30.3259 24.4151 30.3259Z" fill="url(#paint13_linear_90_256)"/>
<path d="M79.5567 39.6657H74.177C73.8203 39.6657 73.4782 39.5252 73.226 39.275C72.9738 39.0247 72.8321 38.6854 72.8321 38.3315V30.3259C72.8321 29.2643 73.2572 28.2462 74.0138 27.4956C74.7705 26.7449 75.7967 26.3232 76.8668 26.3232C77.9369 26.3232 78.9632 26.7449 79.7198 27.4956C80.4765 28.2462 80.9016 29.2643 80.9016 30.3259V38.3315C80.9016 38.6854 80.7599 39.0247 80.5077 39.275C80.2554 39.5252 79.9133 39.6657 79.5567 39.6657Z" fill="url(#paint14_linear_90_256)"/>
<path d="M71.4872 38.3315H66.1075C65.7508 38.3315 65.4087 38.1909 65.1565 37.9407C64.9043 37.6905 64.7626 37.3511 64.7626 36.9972V28.9917C64.7626 27.9301 65.1877 26.912 65.9443 26.1613C66.701 25.4106 67.7272 24.9889 68.7973 24.9889C69.8674 24.9889 70.8937 25.4106 71.6503 26.1613C72.407 26.912 72.8321 27.9301 72.8321 28.9917V36.9972C72.8321 37.3511 72.6904 37.6905 72.4382 37.9407C72.1859 38.1909 71.8438 38.3315 71.4872 38.3315Z" fill="url(#paint15_linear_90_256)"/>
<path d="M84.9363 41H82.2465C81.8898 41 81.5477 40.8594 81.2955 40.6092C81.0433 40.359 80.9016 40.0196 80.9016 39.6657V32.9945C80.9016 32.2867 81.185 31.608 81.6894 31.1075C82.1938 30.6071 82.878 30.3259 83.5914 30.3259C84.3048 30.3259 84.989 30.6071 85.4934 31.1075C85.9978 31.608 86.2812 32.2867 86.2812 32.9945V39.6657C86.2812 40.0196 86.1395 40.359 85.8873 40.6092C85.6351 40.8594 85.293 41 84.9363 41Z" fill="url(#paint16_linear_90_256)"/>
<path d="M59.3829 20.9862C60.8097 20.9862 62.178 21.5484 63.1869 22.5493C64.1958 23.5502 64.7626 24.9077 64.7626 26.3232V35.663C64.7626 36.0168 64.6209 36.3562 64.3687 36.6064C64.1164 36.8567 63.7744 36.9972 63.4177 36.9972H55.3482C54.9915 36.9972 54.6494 36.8567 54.3972 36.6064C54.145 36.3562 54.0033 36.0168 54.0033 35.663V26.3232C54.0033 24.9077 54.57 23.5502 55.5789 22.5493C56.5878 21.5484 57.9561 20.9862 59.3829 20.9862Z" fill="url(#paint17_linear_90_256)"/>
<path d="M77.147 67.4945C76.8015 67.0722 76.3662 66.7322 75.8728 66.4993C75.3793 66.2663 74.8402 66.1463 74.2946 66.1478H71.8281V62.4481C71.8281 61.794 71.5683 61.1666 71.1057 60.7041C70.6432 60.2415 70.0158 59.9817 69.3617 59.9817H66.8953C66.458 59.9833 66.0291 60.1015 65.6528 60.3241C65.2764 60.5468 64.9663 60.8658 64.7544 61.2482C64.6468 61.2296 64.538 61.2185 64.4288 61.2149H59.4959C59.0587 61.2165 58.6298 61.3347 58.2534 61.5573C57.8771 61.78 57.567 62.099 57.3551 62.4814C57.2474 62.4628 57.1387 62.4517 57.0295 62.4481H52.0966C51.6594 62.4497 51.2304 62.5679 50.8541 62.7906C50.4778 63.0132 50.1677 63.3322 49.9557 63.7147C49.8481 63.6961 49.7393 63.6849 49.6302 63.6814H42.2308C41.7966 63.6838 41.3708 63.8022 40.9976 64.0242C40.6244 63.8022 40.1987 63.6838 39.7644 63.6814H32.3651C32.2559 63.6849 32.1471 63.6961 32.0395 63.7147C31.8276 63.3322 31.5174 63.0132 31.1411 62.7906C30.7648 62.5679 30.3359 62.4497 29.8986 62.4481H24.9657C24.8566 62.4517 24.7478 62.4628 24.6402 62.4814C24.4282 62.099 24.1181 61.78 23.7418 61.5573C23.3655 61.3347 22.9365 61.2165 22.4993 61.2149H17.5664C17.4573 61.2185 17.3485 61.2296 17.2408 61.2482C17.0289 60.8658 16.7188 60.5468 16.3425 60.3241C15.9661 60.1015 15.5372 59.9833 15.1 59.9817H12.6335C11.9794 59.9817 11.352 60.2415 10.8895 60.7041C10.4269 61.1666 10.1671 61.794 10.1671 62.4481V66.1478H7.70064C7.15501 66.1463 6.61589 66.2663 6.12248 66.4993C5.62907 66.7322 5.19376 67.0722 4.8482 67.4945C4.49739 67.9201 4.24576 68.4185 4.11158 68.9535C3.97741 69.4884 3.96406 70.0466 4.07251 70.5874C5.06278 75.6202 10.653 92.0454 40.9976 92.0454C71.3423 92.0454 76.9325 75.6202 77.9227 70.5874C78.0312 70.0466 78.0178 69.4884 77.8837 68.9535C77.7495 68.4185 77.4978 67.9201 77.147 67.4945ZM66.8953 62.4481H69.3617V68.6142C69.3617 68.9413 69.2318 69.255 69.0005 69.4863C68.7692 69.7175 68.4556 69.8475 68.1285 69.8475C67.8014 69.8475 67.4877 69.7175 67.2565 69.4863C67.0252 69.255 66.8953 68.9413 66.8953 68.6142V62.4481ZM59.4959 63.6814H64.4288V71.0807C64.4288 71.7348 64.169 72.3622 63.7064 72.8247C63.2439 73.2873 62.6165 73.5471 61.9624 73.5471C61.3082 73.5471 60.6809 73.2873 60.2183 72.8247C59.7558 72.3622 59.4959 71.7348 59.4959 71.0807V63.6814ZM52.0966 64.9146H57.0295V72.3139C57.0295 72.968 56.7696 73.5954 56.3071 74.0579C55.8445 74.5205 55.2172 74.7803 54.5631 74.7803C53.9089 74.7803 53.2816 74.5205 52.819 74.0579C52.3565 73.5954 52.0966 72.968 52.0966 72.3139V64.9146ZM49.6302 66.1478V74.7803C49.6302 75.7616 49.2404 76.7026 48.5466 77.3964C47.8527 78.0902 46.9117 78.48 45.9305 78.48C44.9493 78.48 44.0083 78.0902 43.3144 77.3964C42.6206 76.7026 42.2308 75.7616 42.2308 74.7803V66.1478H49.6302ZM39.7644 66.1478V74.7803C39.7644 75.7616 39.3746 76.7026 38.6808 77.3964C37.987 78.0902 37.0459 78.48 36.0647 78.48C35.0835 78.48 34.1425 78.0902 33.4487 77.3964C32.7549 76.7026 32.3651 75.7616 32.3651 74.7803V66.1478H39.7644ZM29.8986 64.9146V72.3139C29.8986 72.968 29.6388 73.5954 29.1762 74.0579C28.7137 74.5205 28.0863 74.7803 27.4322 74.7803C26.778 74.7803 26.1507 74.5205 25.6881 74.0579C25.2256 73.5954 24.9657 72.968 24.9657 72.3139V64.9146H29.8986ZM22.4993 63.6814V71.0807C22.4993 71.7348 22.2394 72.3622 21.7769 72.8247C21.3143 73.2873 20.687 73.5471 20.0329 73.5471C19.3787 73.5471 18.7514 73.2873 18.2888 72.8247C17.8263 72.3622 17.5664 71.7348 17.5664 71.0807V63.6814H22.4993ZM12.6335 62.4481H15.1V68.6142C15.1 68.9413 14.97 69.255 14.7388 69.4863C14.5075 69.7175 14.1938 69.8475 13.8668 69.8475C13.5397 69.8475 13.226 69.7175 12.9947 69.4863C12.7635 69.255 12.6335 68.9413 12.6335 68.6142V62.4481ZM40.9976 89.579C13.3118 89.579 7.64392 75.963 6.49332 70.1089C6.45577 69.9257 6.45953 69.7365 6.50433 69.5549C6.54913 69.3734 6.63384 69.2041 6.7523 69.0594C6.86713 68.9192 7.01191 68.8064 7.17601 68.7293C7.34011 68.6523 7.51937 68.613 7.70064 68.6142H10.1671C10.1636 69.216 10.3079 69.8093 10.5871 70.3424C10.8663 70.8754 11.2721 71.3318 11.7687 71.6715C12.2654 72.0113 12.8378 72.224 13.4358 72.2911C14.0338 72.3581 14.6391 72.2775 15.1986 72.0562C15.4249 73.1719 16.0296 74.1752 16.9105 74.8963C17.7915 75.6174 18.8944 76.0121 20.0329 76.0136C21.1995 76.0087 22.3259 75.5866 23.2084 74.8235C23.545 75.3995 23.9958 75.9005 24.533 76.2959C25.0703 76.6913 25.6827 76.9728 26.3327 77.1229C26.9827 77.273 27.6565 77.2887 28.3128 77.169C28.969 77.0493 29.5939 76.7967 30.149 76.4267C30.4504 77.5395 31.06 78.5447 31.9076 79.3263C32.7551 80.1079 33.8062 80.6343 34.9398 80.8449C36.0734 81.0554 37.2433 80.9416 38.3151 80.5165C39.3868 80.0913 40.3167 79.3722 40.9976 78.4418C41.6785 79.3732 42.6087 80.0933 43.6811 80.519C44.7535 80.9447 45.9243 81.0586 47.0586 80.8477C48.193 80.6369 49.2446 80.1097 50.0923 79.3271C50.94 78.5444 51.5493 77.5381 51.85 76.4242C52.4051 76.7942 53.0299 77.0468 53.6862 77.1665C54.3424 77.2863 55.0162 77.2706 55.6662 77.1204C56.3162 76.9703 56.9286 76.6889 57.4659 76.2935C58.0032 75.8981 58.4539 75.397 58.7905 74.821C59.6717 75.5842 60.7967 76.0072 61.9624 76.0136C63.1008 76.0121 64.2038 75.6174 65.0847 74.8963C65.9656 74.1752 66.5703 73.1719 66.7966 72.0562C67.3562 72.2775 67.9615 72.3581 68.5595 72.2911C69.1575 72.224 69.7299 72.0113 70.2265 71.6715C70.7232 71.3318 71.1289 70.8754 71.4081 70.3424C71.6874 69.8093 71.8316 69.216 71.8281 68.6142H74.2946C74.4757 68.6132 74.6547 68.6526 74.8186 68.7296C74.9824 68.8066 75.127 68.9193 75.2417 69.0594C75.3602 69.2041 75.4449 69.3734 75.4897 69.5549C75.5345 69.7365 75.5382 69.9257 75.5007 70.1089C74.3513 75.963 68.6834 89.579 40.9976 89.579Z" fill="#6149AB"/>
<path d="M6.60801 36.2212C6.28094 36.2228 5.96661 36.0945 5.73418 35.8644C5.50175 35.6342 5.37026 35.3212 5.36862 34.9941C5.36699 34.6671 5.49535 34.3528 5.72546 34.1203C5.95558 33.8879 6.26861 33.7564 6.59568 33.7548H6.60801C6.93508 33.7548 7.24875 33.8847 7.48003 34.116C7.7113 34.3472 7.84123 34.6609 7.84123 34.988C7.84123 35.3151 7.7113 35.6287 7.48003 35.86C7.24875 36.0913 6.93508 36.2212 6.60801 36.2212Z" fill="#6149AB"/>
<path d="M77.9228 39.5102C76.9079 34.3529 73.8212 18.6491 46.2747 18.0682C44.9473 18.0639 43.6717 18.5827 42.7242 19.5123C42.2645 19.9701 41.6422 20.2271 40.9934 20.2271C40.3446 20.2271 39.7223 19.9701 39.2626 19.5123C38.3183 18.5867 37.0468 18.0713 35.7245 18.0781C30.5198 18.1285 25.3533 18.9723 20.4029 20.5803C19.7779 20.7868 19.1659 21.031 18.5704 21.3116C17.9686 21.5829 17.3495 21.8135 16.7637 22.1206C15.5842 22.7319 14.4511 23.4289 13.3736 24.2059C11.1681 25.7448 9.27388 27.6872 7.79078 29.9306C7.69621 30.0679 7.63098 30.2232 7.59915 30.3868C7.56733 30.5505 7.5696 30.7189 7.60583 30.8817C7.64205 31.0444 7.71146 31.1979 7.8097 31.3326C7.90793 31.4673 8.0329 31.5803 8.17678 31.6645C8.45063 31.8241 8.77457 31.8746 9.08403 31.8061C9.39349 31.7375 9.66575 31.5548 9.84656 31.2945C11.1633 29.2989 12.8479 27.5721 14.8103 26.2062C15.7862 25.5036 16.8121 24.8729 17.8798 24.3194C18.4125 24.0395 18.9897 23.8261 19.5385 23.5795C20.0874 23.3191 20.6521 23.0934 21.2292 22.9037C25.9323 21.3841 30.839 20.5883 35.7812 20.5433C36.1054 20.5415 36.4266 20.6039 36.7266 20.7269C37.0265 20.8499 37.2991 21.031 37.5287 21.2598C38.4517 22.1768 39.7 22.6914 41.0011 22.6911C42.3022 22.6909 43.5503 22.1759 44.4729 21.2585C44.9389 20.798 45.5677 20.5397 46.2229 20.5396C71.7839 21.0785 74.587 35.3148 75.502 39.9936C75.5396 40.1768 75.5358 40.3661 75.491 40.5476C75.4462 40.7292 75.3615 40.8984 75.2431 41.0431C75.1277 41.1825 74.9827 41.2943 74.8187 41.3705C74.6546 41.4467 74.4756 41.4852 74.2947 41.4834H71.8283C71.8317 40.8816 71.6875 40.2883 71.4082 39.7552C71.129 39.2222 70.7233 38.7658 70.2266 38.4261C69.73 38.0863 69.1576 37.8736 68.5596 37.8066C67.9616 37.7395 67.3563 37.8202 66.7967 38.0415C66.5705 36.9257 65.9657 35.9224 65.0848 35.2013C64.2039 34.4802 63.1009 34.0855 61.9625 34.084C60.7958 34.0889 59.6694 34.511 58.7869 35.2741C58.4504 34.6982 57.9996 34.1971 57.4623 33.8017C56.925 33.4063 56.3126 33.1248 55.6626 32.9747C55.0127 32.8246 54.3389 32.8089 53.6826 32.9286C53.0263 33.0483 52.4015 33.3009 51.8464 33.6709C51.5449 32.5581 50.9353 31.553 50.0878 30.7713C49.2402 29.9897 48.1891 29.4633 47.0556 29.2527C45.922 29.0422 44.752 29.156 43.6803 29.5812C42.6086 30.0063 41.6787 30.7255 40.9977 31.6558C40.3169 30.7244 39.3866 30.0043 38.3143 29.5786C37.2419 29.153 36.0711 29.039 34.9367 29.2499C33.8024 29.4608 32.7508 29.9879 31.903 30.7705C31.0553 31.5532 30.446 32.5595 30.1454 33.6734C29.5903 33.3034 28.9654 33.0508 28.3092 32.9311C27.6529 32.8113 26.9791 32.827 26.3291 32.9772C25.6791 33.1273 25.0667 33.4087 24.5295 33.8041C23.9922 34.1996 23.5414 34.7006 23.2048 35.2766C22.3236 34.5134 21.1987 34.0905 20.033 34.084C18.8945 34.0855 17.7916 34.4802 16.9107 35.2013C16.0298 35.9224 15.425 36.9257 15.1987 38.0415C14.6392 37.8202 14.0339 37.7395 13.4359 37.8066C12.8379 37.8736 12.2655 38.0863 11.7688 38.4261C11.2722 38.7658 10.8665 39.2222 10.5872 39.7552C10.308 40.2883 10.1638 40.8816 10.1672 41.4834H7.70076C7.51969 41.4845 7.34067 41.445 7.1768 41.368C7.01293 41.291 6.86835 41.1783 6.75364 41.0382C6.63519 40.8935 6.55048 40.7242 6.50568 40.5427C6.46088 40.3611 6.45712 40.1719 6.49467 39.9887C6.55812 39.6675 6.49138 39.3343 6.30914 39.0623C6.1269 38.7903 5.84407 38.6019 5.52289 38.5384C5.20171 38.475 4.86847 38.5417 4.59649 38.724C4.32452 38.9062 4.13607 39.189 4.07262 39.5102C3.96437 40.0508 3.97781 40.6087 4.11198 41.1435C4.24615 41.6783 4.49768 42.1764 4.84832 42.6019C5.19375 43.0244 5.62901 43.3646 6.12242 43.5978C6.61584 43.8309 7.15502 43.9512 7.70076 43.9498H10.1672V47.6495C10.1672 48.3036 10.4271 48.931 10.8896 49.3935C11.3522 49.8561 11.9795 50.1159 12.6336 50.1159H15.1001C15.5373 50.1143 15.9662 49.9961 16.3426 49.7735C16.7189 49.5509 17.029 49.2319 17.241 48.8494C17.3486 48.868 17.4574 48.8791 17.5665 48.8827H22.4994C22.9367 48.8811 23.3656 48.7629 23.7419 48.5403C24.1182 48.3176 24.4284 47.9986 24.6403 47.6162C24.7479 47.6348 24.8567 47.6459 24.9659 47.6495H29.8987C30.336 47.6479 30.7649 47.5297 31.1412 47.3071C31.5176 47.0844 31.8277 46.7654 32.0396 46.383C32.1472 46.4016 32.256 46.4127 32.3652 46.4163H39.7645C40.1988 46.4138 40.6245 46.2954 40.9977 46.0734C41.371 46.2954 41.7967 46.4138 42.231 46.4163H49.6303C49.7394 46.4127 49.8482 46.4016 49.9559 46.383C50.1678 46.7654 50.4779 47.0844 50.8542 47.3071C51.2306 47.5297 51.6595 47.6479 52.0967 47.6495H57.0296C57.1388 47.6459 57.2476 47.6348 57.3552 47.6162C57.5671 47.9986 57.8772 48.3176 58.2536 48.5403C58.6299 48.7629 59.0588 48.8811 59.4961 48.8827H64.4289C64.5381 48.8791 64.6469 48.868 64.7545 48.8494C64.9664 49.2319 65.2766 49.5509 65.6529 49.7735C66.0292 49.9961 66.4581 50.1143 66.8954 50.1159H69.3618C70.016 50.1159 70.6433 49.8561 71.1059 49.3935C71.5684 48.931 71.8283 48.3036 71.8283 47.6495V43.9498H74.2947C74.8401 43.9512 75.379 43.831 75.8722 43.5981C76.3654 43.3651 76.8005 43.0252 77.1459 42.6031C77.4969 42.1776 77.7488 41.6793 77.8832 41.1443C78.0176 40.6093 78.0311 40.0511 77.9228 39.5102ZM15.1001 47.6495H12.6336V41.4834C12.6336 41.1563 12.7636 40.8426 12.9948 40.6114C13.2261 40.3801 13.5398 40.2502 13.8669 40.2502C14.1939 40.2502 14.5076 40.3801 14.7389 40.6114C14.9702 40.8426 15.1001 41.1563 15.1001 41.4834V47.6495ZM22.4994 46.4163H17.5665V39.0169C17.5665 38.3628 17.8264 37.7354 18.2889 37.2729C18.7515 36.8103 19.3788 36.5505 20.033 36.5505C20.6871 36.5505 21.3145 36.8103 21.777 37.2729C22.2396 37.7354 22.4994 38.3628 22.4994 39.0169V46.4163ZM29.8987 45.183H24.9659V37.7837C24.9659 37.1296 25.2257 36.5022 25.6883 36.0397C26.1508 35.5771 26.7782 35.3173 27.4323 35.3173C28.0864 35.3173 28.7138 35.5771 29.1763 36.0397C29.6389 36.5022 29.8987 37.1296 29.8987 37.7837V45.183ZM32.3652 43.9498V35.3173C32.3652 34.3361 32.755 33.395 33.4488 32.7012C34.1426 32.0074 35.0836 31.6176 36.0648 31.6176C37.0461 31.6176 37.9871 32.0074 38.6809 32.7012C39.3747 33.395 39.7645 34.3361 39.7645 35.3173V43.9498H32.3652ZM42.231 43.9498V35.3173C42.231 34.3361 42.6207 33.395 43.3146 32.7012C44.0084 32.0074 44.9494 31.6176 45.9306 31.6176C46.9118 31.6176 47.8529 32.0074 48.5467 32.7012C49.2405 33.395 49.6303 34.3361 49.6303 35.3173V43.9498H42.231ZM52.0967 45.183V37.7837C52.0967 37.1296 52.3566 36.5022 52.8191 36.0397C53.2817 35.5771 53.909 35.3173 54.5632 35.3173C55.2173 35.3173 55.8447 35.5771 56.3072 36.0397C56.7698 36.5022 57.0296 37.1296 57.0296 37.7837V45.183H52.0967ZM59.4961 46.4163V39.0169C59.4961 38.3628 59.7559 37.7354 60.2185 37.2729C60.681 36.8103 61.3084 36.5505 61.9625 36.5505C62.6166 36.5505 63.244 36.8103 63.7065 37.2729C64.1691 37.7354 64.4289 38.3628 64.4289 39.0169V46.4163H59.4961ZM69.3618 47.6495H66.8954V41.4834C66.8954 41.1563 67.0253 40.8426 67.2566 40.6114C67.4879 40.3801 67.8015 40.2502 68.1286 40.2502C68.4557 40.2502 68.7693 40.3801 69.0006 40.6114C69.2319 40.8426 69.3618 41.1563 69.3618 41.4834V47.6495Z" fill="#6149AB"/>
<defs>
<linearGradient id="paint0_linear_90_256" x1="52" y1="56" x2="52" y2="89" gradientUnits="userSpaceOnUse">
<stop stop-color="#F5F2FF"/>
<stop offset="1" stop-color="#D0D1F9"/>
</linearGradient>
<linearGradient id="paint1_linear_90_256" x1="52" y1="56" x2="52" y2="89" gradientUnits="userSpaceOnUse">
<stop stop-color="#F5F2FF"/>
<stop offset="1" stop-color="#D0D1F9"/>
</linearGradient>
<linearGradient id="paint2_linear_90_256" x1="52" y1="56" x2="52" y2="89" gradientUnits="userSpaceOnUse">
<stop stop-color="#F5F2FF"/>
<stop offset="1" stop-color="#D0D1F9"/>
</linearGradient>
<linearGradient id="paint3_linear_90_256" x1="52" y1="56" x2="52" y2="89" gradientUnits="userSpaceOnUse">
<stop stop-color="#F5F2FF"/>
<stop offset="1" stop-color="#D0D1F9"/>
</linearGradient>
<linearGradient id="paint4_linear_90_256" x1="52" y1="56" x2="52" y2="89" gradientUnits="userSpaceOnUse">
<stop stop-color="#F5F2FF"/>
<stop offset="1" stop-color="#D0D1F9"/>
</linearGradient>
<linearGradient id="paint5_linear_90_256" x1="52" y1="56" x2="52" y2="89" gradientUnits="userSpaceOnUse">
<stop stop-color="#F5F2FF"/>
<stop offset="1" stop-color="#D0D1F9"/>
</linearGradient>
<linearGradient id="paint6_linear_90_256" x1="52" y1="56" x2="52" y2="89" gradientUnits="userSpaceOnUse">
<stop stop-color="#F5F2FF"/>
<stop offset="1" stop-color="#D0D1F9"/>
</linearGradient>
<linearGradient id="paint7_linear_90_256" x1="52" y1="56" x2="52" y2="89" gradientUnits="userSpaceOnUse">
<stop stop-color="#F5F2FF"/>
<stop offset="1" stop-color="#D0D1F9"/>
</linearGradient>
<linearGradient id="paint8_linear_90_256" x1="52" y1="56" x2="52" y2="89" gradientUnits="userSpaceOnUse">
<stop stop-color="#F5F2FF"/>
<stop offset="1" stop-color="#D0D1F9"/>
</linearGradient>
<linearGradient id="paint9_linear_90_256" x1="54" y1="9" x2="54" y2="41" gradientUnits="userSpaceOnUse">
<stop stop-color="#F5F2FF"/>
<stop offset="1" stop-color="#D0D1F9"/>
</linearGradient>
<linearGradient id="paint10_linear_90_256" x1="54" y1="9" x2="54" y2="41" gradientUnits="userSpaceOnUse">
<stop stop-color="#F5F2FF"/>
<stop offset="1" stop-color="#D0D1F9"/>
</linearGradient>
<linearGradient id="paint11_linear_90_256" x1="54" y1="9" x2="54" y2="41" gradientUnits="userSpaceOnUse">
<stop stop-color="#F5F2FF"/>
<stop offset="1" stop-color="#D0D1F9"/>
</linearGradient>
<linearGradient id="paint12_linear_90_256" x1="54" y1="9" x2="54" y2="41" gradientUnits="userSpaceOnUse">
<stop stop-color="#F5F2FF"/>
<stop offset="1" stop-color="#D0D1F9"/>
</linearGradient>
<linearGradient id="paint13_linear_90_256" x1="54" y1="9" x2="54" y2="41" gradientUnits="userSpaceOnUse">
<stop stop-color="#F5F2FF"/>
<stop offset="1" stop-color="#D0D1F9"/>
</linearGradient>
<linearGradient id="paint14_linear_90_256" x1="54" y1="9" x2="54" y2="41" gradientUnits="userSpaceOnUse">
<stop stop-color="#F5F2FF"/>
<stop offset="1" stop-color="#D0D1F9"/>
</linearGradient>
<linearGradient id="paint15_linear_90_256" x1="54" y1="9" x2="54" y2="41" gradientUnits="userSpaceOnUse">
<stop stop-color="#F5F2FF"/>
<stop offset="1" stop-color="#D0D1F9"/>
</linearGradient>
<linearGradient id="paint16_linear_90_256" x1="54" y1="9" x2="54" y2="41" gradientUnits="userSpaceOnUse">
<stop stop-color="#F5F2FF"/>
<stop offset="1" stop-color="#D0D1F9"/>
</linearGradient>
<linearGradient id="paint17_linear_90_256" x1="54" y1="9" x2="54" y2="41" gradientUnits="userSpaceOnUse">
<stop stop-color="#F5F2FF"/>
<stop offset="1" stop-color="#D0D1F9"/>
</linearGradient>
</defs>
</svg>
