<svg width="205" height="129" viewBox="0 0 205 129" fill="none" xmlns="http://www.w3.org/2000/svg">
<g clip-path="url(#clip0_358_64130)">
<path d="M68.1646 129C91.1948 129 109.864 126.215 109.864 122.78C109.864 119.345 91.1948 116.56 68.1646 116.56C45.1345 116.56 26.4648 119.345 26.4648 122.78C26.4648 126.215 45.1345 129 68.1646 129Z" fill="#DDDAEB"/>
<path d="M205.001 121.435C205.003 124.526 186.613 127.046 163.923 127.064C141.235 127.082 122.84 124.588 122.836 121.494C122.836 118.403 141.226 115.883 163.914 115.865C186.602 115.848 204.996 118.341 204.998 121.435H205.001Z" fill="#DDDAEB"/>
<path d="M180.523 48.641C182.768 47.7634 184.502 45.9598 185.916 44.0525C187.272 42.2246 188.425 40.1387 189.268 38.0198C190.135 35.8413 190.604 33.4644 190.81 31.1316C191.022 28.7326 190.891 26.2476 190.07 23.9699C189.59 22.6403 187.615 23.5642 188.093 24.8828C188.782 26.7922 188.804 28.9134 188.647 30.9155C188.482 33.0168 188.036 35.1027 187.302 37.0761C186.599 38.9657 185.555 40.7671 184.41 42.4164C183.186 44.1804 181.653 45.8561 179.621 46.6477C178.312 47.1593 179.225 49.1481 180.528 48.6388L180.523 48.641Z" fill="#6149AB"/>
<path d="M186.308 16.4136C183.641 17.5624 184.83 20.2877 186.127 21.9987C185.5 21.6746 184.561 21.2534 184.075 22.0737C183.628 22.83 184.622 23.5399 185.213 23.8575C186.685 24.649 188.13 25.4979 188.699 27.2023L189.838 30.3157C189.72 27.1913 191.046 24.2962 190.81 21.1939C190.639 18.9537 189.271 15.1369 186.308 16.4136Z" fill="#6149AB"/>
<path d="M20.2244 87.7742C21.017 84.4712 21.8162 81.1021 23.4474 78.1012C25.107 75.0495 27.7213 72.8644 30.9728 71.7024C32.2865 71.2328 31.726 69.1138 30.4013 69.5879C26.7229 70.902 23.7495 73.2613 21.7614 76.6569C19.8762 79.8761 18.9895 83.6091 18.1246 87.2076C17.7962 88.579 19.8959 89.1523 20.2244 87.7764V87.7742Z" fill="#6149AB"/>
<path d="M20.312 96.0582C23.165 95.5246 22.5957 92.603 21.7002 90.6473C22.241 91.1015 23.0665 91.7189 23.7189 91.0243C24.3211 90.3849 23.5044 89.4742 22.9964 89.0333C21.733 87.9374 20.5069 86.7908 20.3208 85.0026L19.8851 81.7151C19.3224 84.7909 17.3977 87.3222 16.9555 90.4025C16.6358 92.6273 17.1438 96.6535 20.312 96.0582Z" fill="#6149AB"/>
<path d="M110.754 87.0091C109.788 83.7524 108.794 80.4384 108.704 77.0164C108.612 73.5392 109.779 70.3244 112.01 67.6718C112.91 66.6002 111.369 65.0524 110.46 66.135C107.94 69.1337 106.548 72.6792 106.526 76.6217C106.506 80.359 107.603 84.0347 108.654 87.5824C109.055 88.9341 111.157 88.3652 110.754 87.0091Z" fill="#6149AB"/>
<path d="M110.817 96.0891C113.57 95.163 112.606 92.3495 111.452 90.537C112.05 90.9119 112.952 91.4102 113.502 90.6318C114.01 89.913 113.077 89.1259 112.512 88.7598C111.111 87.8492 109.74 86.8856 109.311 85.1393L108.431 81.9422C108.295 85.0666 106.736 87.8426 106.721 90.9538C106.71 93.2006 107.763 97.1188 110.82 96.0891H110.817Z" fill="#6149AB"/>
<path d="M106.927 88.4423C106.292 85.1063 105.657 81.7018 104.17 78.6237C102.659 75.4949 100.152 73.1841 96.9598 71.8656C95.6723 71.3342 96.3314 69.2439 97.6319 69.7819C101.242 71.2725 104.1 73.7729 105.924 77.2611C107.653 80.5685 108.361 84.3389 109.05 87.9749C109.313 89.3596 107.189 89.8314 106.924 88.4423H106.927Z" fill="#6149AB"/>
<path d="M45.7312 124.006C40.3887 124.032 35.6922 123.159 32.5108 114.3C30.3212 108.201 30.7394 100.913 29.9184 96.2236C29.0973 91.5337 23.0739 77.3449 22.0316 65.8219C20.9894 54.2988 27.7091 42.0482 39.2436 40.959C50.7781 39.8697 55.5754 43.7218 61.5835 43.7592C69.3804 43.8077 75.1893 38.8158 85.6772 38.9525C95.9155 39.087 101.396 50.2263 102.232 62.2278C102.97 72.8336 97.1569 88.6827 97.4832 93.99C97.9583 101.758 98.1597 121.563 89.4914 121.849C79.4676 122.18 76.7986 107.881 73.8186 105.149C68.3514 100.14 63.8562 99.8176 59.3414 104.684C54.1084 110.324 54.185 123.96 45.7312 124.004V124.006Z" fill="#F0EDF7"/>
<path d="M45.9037 46.4449C41.8356 45.5188 38.5228 46.8395 35.8516 49.2297C33.5745 50.6431 31.501 53.1479 30.5945 54.8898C28.4553 59.0042 27.0847 64.5628 29.5479 68.9176C31.5973 72.5469 36.2085 72.3794 37.5528 68.3223C38.7396 64.7436 37.4477 60.9953 39.6044 57.6063C41.6692 54.365 44.7542 54.257 47.7167 52.1512C50.9747 49.8339 49.0435 47.1593 45.9037 46.4427V46.4449Z" fill="white"/>
<path d="M102.262 62.3226C101.502 51.4104 96.9541 41.1354 88.428 39.2744C104.061 45.1285 99.9625 70.2538 92.9779 80.7868C91.0423 83.7061 87.9441 84.3875 84.119 87.2914C80.5894 89.9704 89.5731 89.8888 92.6691 98.0426C94.5149 102.907 96.9913 115.012 90.1774 117.342C87.9441 118.108 84.8218 118.319 82.7067 117.444C81.3514 116.882 79.4465 115.36 78.332 113.484C80.6748 117.825 83.9679 122.132 89.5206 121.949C98.189 121.662 97.9875 101.857 97.5124 94.0892C97.1883 88.7819 103.002 72.9306 102.262 62.327V62.3226Z" fill="#B9BAEA"/>
<path d="M65.5601 81.252C65.4484 81.2565 65.3368 81.2587 65.2229 81.2609C59.7863 81.3336 56.5896 79.3271 54.8664 77.6315C52.9965 75.7948 52.4251 73.9427 52.401 73.8655C52.2959 73.5149 52.5455 73.1533 52.9571 73.0607C53.3709 72.9681 53.7891 73.1754 53.8964 73.5237C53.9796 73.7949 56.0159 80.068 65.2163 79.9467C68.9211 79.8938 71.242 78.5157 72.5382 77.3647C74.5394 75.5876 75.2028 73.4752 75.159 72.0927C75.1481 71.7289 75.4831 71.4246 75.9101 71.4114C76.337 71.3982 76.6917 71.6804 76.7027 72.042C76.7705 74.1477 75.6013 76.5335 73.6483 78.2688C72.1878 79.5675 69.6086 81.1197 65.5623 81.2543L65.5601 81.252Z" fill="#6149AB"/>
<path d="M89.2217 50.4358C87.8927 49.8493 85.2214 49.5737 83.934 50.7246C83.3975 51.2031 83.3997 51.9837 84.3128 52.3453C85.4163 52.7686 85.9374 51.955 88.578 52.7003C89.491 52.9582 90.6164 53.5646 90.8836 52.2681C91.1113 51.1656 90.0559 50.8018 89.2195 50.4336L89.2217 50.4358Z" fill="#6149AB"/>
<path d="M37.638 53.1258C38.7832 52.2262 41.3011 51.2935 42.8316 52.0851C43.4688 52.4158 43.6593 53.1721 42.8623 53.7498C41.8967 54.4356 41.1939 53.7763 38.816 55.1588C37.9949 55.6373 37.0556 56.5038 36.4776 55.3175C35.9849 54.3055 36.9177 53.6903 37.638 53.1258Z" fill="#6149AB"/>
<path d="M49.2616 66.7082C48.7887 65.1846 46.9254 62.4218 43.2469 62.8672C42.1171 63.0039 41.2041 63.3303 40.4684 63.758L38.0687 61.4958C37.7775 61.2201 37.3177 61.2356 37.044 61.5288C36.7703 61.8243 36.7856 62.2851 37.0768 62.5608L39.2992 64.6554C38.7869 65.167 38.4278 65.7248 38.1891 66.2518L35.4982 65.178C35.1259 65.0303 34.7034 65.2133 34.5567 65.5881C34.41 65.963 34.5917 66.3885 34.9639 66.5363L37.8081 67.6718C37.8191 68.029 38.0862 68.3311 38.4497 68.3708C38.4847 68.3752 38.5197 68.3752 38.5548 68.3752C38.9073 68.3642 39.2072 68.0929 39.251 67.7291C39.2664 67.6079 39.6451 64.7723 43.4199 64.3159C46.8049 63.9058 47.8362 67.0125 47.8778 67.1426C47.9982 67.5285 48.4033 67.7424 48.7865 67.6211C49.1696 67.502 49.382 67.0919 49.2616 66.706V66.7082Z" fill="#6149AB"/>
<path d="M78.6858 65.081C78.9814 63.5133 80.5206 60.5543 84.2253 60.5741C85.3617 60.5807 86.3076 60.799 87.0849 61.1408L89.2109 58.6183C89.4693 58.3118 89.9269 58.2721 90.2334 58.5345C90.5378 58.7947 90.5772 59.2556 90.3166 59.5642L88.3461 61.9015C88.9131 62.3513 89.3335 62.865 89.6291 63.3589L92.1799 61.9831C92.5325 61.7934 92.9726 61.9257 93.1609 62.2829C93.3492 62.6379 93.2178 63.0811 92.8631 63.2707L90.1656 64.726C90.194 65.081 89.9641 65.4117 89.6094 65.4955C89.5744 65.5044 89.5394 65.5088 89.5043 65.511C89.1518 65.5396 88.8234 65.3059 88.7402 64.9487C88.7117 64.8296 88.0132 62.058 84.2122 62.0382C80.8031 62.0183 80.1309 65.2243 80.1046 65.3588C80.0302 65.7557 79.6492 66.0159 79.2573 65.9387C78.8632 65.8638 78.6048 65.4801 78.6814 65.0854L78.6858 65.081Z" fill="#6149AB"/>
<path d="M76.361 70.3177C76.8514 70.5559 77.4382 70.9726 77.7185 71.4577C77.955 71.8634 78.568 71.4753 78.3316 71.0696C77.99 70.4831 77.3003 69.9672 76.7047 69.6761C76.2844 69.471 75.9384 70.1149 76.3588 70.3177H76.361Z" fill="#6149AB"/>
<path d="M51.4537 71.9714C50.8778 72.4168 50.5209 73.1004 50.221 73.7508C50.0239 74.1764 50.6611 74.5248 50.8581 74.0992C51.099 73.5788 51.3748 72.9482 51.839 72.591C52.2069 72.3066 51.8237 71.6848 51.4537 71.9736V71.9714Z" fill="#6149AB"/>
<path d="M141.625 112.055C136.46 113.429 131.696 113.768 126.412 105.996C122.773 100.642 121.368 93.485 119.406 89.1501C117.444 84.8174 108.084 72.5998 104.206 61.7074C100.331 50.815 103.788 37.2591 114.683 33.2946C125.578 29.3301 131.181 31.8481 137.008 30.3686C144.568 28.4481 148.949 22.1508 159.137 19.6372C169.082 17.1831 177.159 26.5849 180.954 37.9933C184.308 48.0743 182.622 64.8848 184.258 69.9407C186.651 77.3405 191.772 96.4639 183.452 98.929C173.831 101.778 167.69 88.6077 164.125 86.7159C157.585 83.2453 153.153 84.0677 149.994 89.9174C146.333 96.6976 149.797 109.879 141.625 112.053V112.055Z" fill="#F0EDF7"/>
<path d="M122.497 36.9217C118.328 37.0518 115.449 39.1664 113.459 42.154C111.604 44.0966 110.22 47.0446 109.778 48.9607C108.732 53.483 108.788 59.2093 112.255 62.8055C115.143 65.802 119.563 64.4769 119.857 60.2103C120.115 56.4465 117.932 53.1435 119.178 49.3201C120.369 45.6621 123.331 44.7779 125.674 41.9931C128.251 38.9282 125.718 36.8247 122.499 36.9239L122.497 36.9217Z" fill="white"/>
<path d="M180.954 37.9933C177.503 27.6191 170.508 18.9052 161.789 19.2557C178.379 20.9778 180.68 46.2398 176.538 58.1994C175.39 61.5134 172.559 62.9554 169.579 66.7303C166.829 70.2141 175.507 67.868 180.532 74.9812C183.529 79.2257 188.937 90.3187 182.92 94.2943C180.948 95.5974 177.979 96.5918 175.715 96.2765C174.263 96.0736 172.038 95.0814 170.495 93.5468C173.842 97.1585 178.123 100.508 183.452 98.929C191.773 96.4639 186.632 77.3294 184.238 69.9297C182.603 64.8737 184.308 48.0743 180.954 37.9933Z" fill="#B9BAEA"/>
<path d="M150.185 65.6609C150.078 65.6918 149.971 65.7226 149.861 65.7535C144.617 67.1955 141.022 66.06 138.931 64.8539C136.663 63.5463 135.649 61.8993 135.607 61.8287C135.417 61.5156 135.57 61.1033 135.947 60.9092C136.323 60.7152 136.781 60.81 136.971 61.1209C137.118 61.3613 140.65 66.9221 149.528 64.4812C153.102 63.4956 155.007 61.5751 155.974 60.1331C157.47 57.9061 157.588 55.6946 157.201 54.3672C157.1 54.0188 157.347 53.6373 157.757 53.5183C158.166 53.397 158.58 53.5822 158.681 53.9284C159.272 55.9503 158.731 58.5544 157.273 60.7284C156.18 62.3557 154.072 64.5077 150.187 65.6587L150.185 65.6609Z" fill="#6149AB"/>
<path d="M165.427 29.8571C163.995 29.6256 161.339 30.0313 160.38 31.4711C159.981 32.0686 160.176 32.8249 161.15 32.944C162.324 33.0763 162.626 32.1568 165.37 32.212C166.318 32.2318 167.557 32.5339 167.494 31.2131C167.439 30.0886 166.329 30.0026 165.427 29.8571Z" fill="#6149AB"/>
<path d="M116.158 45.4747C117.043 44.3149 119.248 42.7758 120.927 43.1573C121.625 43.3161 122 44.0018 121.372 44.7603C120.607 45.6687 119.762 45.2079 117.805 47.146C117.128 47.8163 116.434 48.8946 115.58 47.8891C114.853 47.0336 115.602 46.2023 116.158 45.4747Z" fill="#6149AB"/>
<path d="M130.79 55.6924C129.953 54.3363 127.462 52.1314 124.011 53.4896C122.953 53.9064 122.148 54.4532 121.543 55.053L118.658 53.4676C118.307 53.2736 117.865 53.4059 117.674 53.7587C117.482 54.1136 117.613 54.5568 117.963 54.7487L120.635 56.2172C120.267 56.8412 120.057 57.4718 119.958 58.0428L117.085 57.6812C116.689 57.6305 116.326 57.915 116.275 58.3163C116.225 58.7154 116.507 59.0814 116.906 59.1321L119.943 59.5135C120.044 59.8553 120.376 60.0802 120.738 60.0295C120.773 60.0251 120.808 60.0163 120.841 60.0075C121.18 59.9082 121.403 59.5687 121.355 59.2071C121.34 59.0858 121.003 56.2458 124.541 54.8523C127.716 53.5999 129.487 56.3495 129.559 56.4641C129.769 56.8059 130.218 56.9117 130.558 56.7C130.897 56.4884 131.002 56.0364 130.792 55.6946L130.79 55.6924Z" fill="#6149AB"/>
<path d="M158.87 46.694C158.767 45.102 159.52 41.8497 163.114 40.9325C164.215 40.6525 165.185 40.6238 166.023 40.7583L167.455 37.7794C167.631 37.4156 168.064 37.2635 168.423 37.4399C168.784 37.6163 168.936 38.0528 168.76 38.4144L167.436 41.1728C168.095 41.4661 168.631 41.8564 169.041 42.2599L171.169 40.2842C171.462 40.0108 171.922 40.0307 172.194 40.3261C172.465 40.6216 172.448 41.0846 172.152 41.358L169.903 43.4461C170.019 43.7835 169.879 44.1605 169.555 44.3303C169.525 44.3479 169.492 44.3612 169.459 44.3722C169.126 44.4891 168.747 44.3457 168.579 44.0216C168.522 43.9136 167.155 41.4066 163.47 42.3459C160.166 43.1881 160.313 46.4603 160.32 46.597C160.346 47.0005 160.044 47.3467 159.643 47.3731C159.242 47.3996 158.899 47.0953 158.872 46.6918L158.87 46.694Z" fill="#6149AB"/>
<path d="M157.92 52.3519C158.455 52.4577 159.125 52.7157 159.519 53.1126C159.849 53.4455 160.347 52.9141 160.016 52.5812C159.541 52.1005 158.744 51.772 158.093 51.6441C157.636 51.5537 157.461 52.2615 157.918 52.3541L157.92 52.3519Z" fill="#6149AB"/>
<path d="M134.221 60.2345C133.774 60.81 133.599 61.5619 133.47 62.2675C133.385 62.7283 134.09 62.9069 134.173 62.4439C134.276 61.8794 134.387 61.2003 134.749 60.7351C135.033 60.3668 134.51 59.8619 134.221 60.2345Z" fill="#6149AB"/>
<path d="M19.9291 27.9763C17.3695 29.3477 27.31 40.4276 27.31 40.4276C26.5459 39.0363 23.0886 26.2829 19.9291 27.9763Z" fill="white"/>
<path d="M36.8426 25.7735C35.2267 26.1528 39.111 33.7488 39.111 33.7488C38.892 32.8668 38.8373 25.3039 36.8426 25.7735Z" fill="white"/>
<path d="M60.7095 24.6336C59.2272 23.8861 57.3945 32.2274 57.3945 32.2274C57.7843 31.4072 62.5399 25.5552 60.7095 24.6336Z" fill="white"/>
<path d="M11.6466 40.6018C10.3373 41.6271 17.0176 46.8925 17.0176 46.8925C16.4527 46.1847 13.2647 39.3361 11.6466 40.6018Z" fill="white"/>
<path d="M50.5584 18.7288C47.7054 18.2106 48.7017 33.1094 48.7017 33.1094C48.9556 31.5395 54.0814 19.3682 50.5584 18.7288Z" fill="white"/>
<path d="M0.0870247 47.6179C-1.2464 50.2087 13.1848 53.6484 13.1848 53.6484C11.7704 52.9406 1.73575 44.4163 0.0870247 47.6179Z" fill="white"/>
<path d="M149.22 0.0242413C146.373 0.573271 152.622 14.116 152.622 14.116C152.3 12.5593 152.736 -0.652675 149.22 0.0242413Z" fill="white"/>
<path d="M160.525 4.54437C158.876 4.72518 161.819 12.7379 161.819 12.7379C161.707 11.8361 162.561 4.32167 160.525 4.54437Z" fill="white"/>
<path d="M182.695 7.88707C181.467 6.76476 177.471 14.3012 177.471 14.3012C178.066 13.6177 184.212 9.27177 182.695 7.88707Z" fill="white"/>
<path d="M138.388 8.92561C136.838 9.51653 141.675 16.5327 141.675 16.5327C141.342 15.6882 140.304 8.19798 138.388 8.92561Z" fill="white"/>
<path d="M173.458 0.504941C170.594 0.0529285 171.927 14.9252 171.927 14.9252C172.146 13.3509 176.994 1.065 173.458 0.504941Z" fill="white"/>
<path d="M126.032 9.20782C123.86 11.1415 136.093 19.5843 136.093 19.5843C135.027 18.4112 128.714 6.81987 126.032 9.20782Z" fill="white"/>
</g>
<defs>
<clipPath id="clip0_358_64130">
<rect width="205" height="129" fill="white"/>
</clipPath>
</defs>
</svg>
