<svg width="608" height="579" viewBox="0 0 608 579" fill="none" xmlns="http://www.w3.org/2000/svg">
<g opacity="0.1">
<path d="M602.745 243.075C570.644 229.322 562.132 205.511 552.369 188.551C542.6 213.049 556.95 237.347 565.346 246.434C488.449 190.605 613.519 136.919 522.027 106.393C458.853 85.315 379.021 199.862 366.222 256.649C365.64 259.228 368.307 261.206 370.762 260.107C416.607 239.558 447.799 215.645 459.26 241.213C467.466 259.521 438.194 279.832 416.003 291.097C412.998 292.623 413.741 297.205 417.08 297.753C604.06 328.472 617.838 249.541 602.745 243.075Z" fill="#6149AB"/>
<path d="M448.258 557.61C451.584 523.473 472.042 508.123 485.457 493.75C458.625 492.319 439.518 513.247 433.318 523.89C463.502 434.967 554.675 534.476 555.738 439.887C556.472 374.574 420.344 336.127 361.221 341.961C358.535 342.226 357.448 345.324 359.282 347.262C393.546 383.466 426.5 404.997 405.259 423.635C390.048 436.982 361.191 416.111 343.325 398.999C340.906 396.681 336.69 398.803 337.2 402.079C365.769 585.5 446.695 573.661 448.258 557.61Z" fill="#6149AB"/>
<path d="M93.3131 509.928C127.566 502.692 148.709 517.124 166.769 525.283C160.038 499.825 133.87 488.342 121.628 485.783C217.369 487.006 148.068 602.172 240.509 574.52C304.338 555.426 300.559 416.823 276.973 363.448C275.902 361.024 272.556 360.948 271.224 363.245C246.341 406.165 235.352 443.421 210.768 429.254C193.164 419.109 204.751 385.874 216.006 364.03C217.53 361.072 214.187 357.783 211.152 359.25C41.1718 441.439 77.208 513.33 93.3131 509.928Z" fill="#6149AB"/>
<path d="M31.5402 165.08C49.0112 194.806 41.4013 218.908 38.9576 238.227C61.6883 224.201 64.8985 196.313 63.6623 184.122C91.6197 273.739 -41.5763 244.203 13.4828 321.953C51.5005 375.638 185.26 329.917 230.032 291.682C232.065 289.945 231.121 286.804 228.479 286.261C179.128 276.134 139.519 277.233 145.824 250.003C150.338 230.505 186.215 231.188 210.904 235.029C214.247 235.549 216.431 231.431 214.079 229.049C82.3291 95.6249 23.3256 151.103 31.5402 165.08Z" fill="#6149AB"/>
<path d="M348.082 2.0244C324.511 27.3995 298.735 27.687 279.193 31.3234C299.795 48.2073 327.907 42.6622 339.389 37.7791C260.764 91.2551 248.73 -41.8759 189.945 33.2168C149.355 85.0674 234.774 195.688 285.674 225.697C287.986 227.06 290.753 225.218 290.472 222.591C285.219 173.514 272.027 136.949 300.446 134.488C320.796 132.727 331.112 166.36 334.932 190.536C335.45 193.811 340.124 194.585 341.722 191.664C431.194 28.0828 359.164 -9.90653 348.082 2.0244Z" fill="#6149AB"/>
</g>
</svg>
