<svg width="40" height="40" viewBox="0 0 40 40" fill="none" xmlns="http://www.w3.org/2000/svg">
<g clip-path="url(#clip0_339_16238)">
<path d="M39.9158 23.2993C39.4546 20.0779 37.3729 17.4503 34.7385 16.7602C33.4386 16.4231 31.7574 16.6065 30.5823 17.2076C30.5773 17.2101 30.5727 17.2143 30.5679 17.2168C28.1368 18.4679 26.4278 21.3799 26.4278 24.7654C26.4278 25.4131 25.9036 25.9372 25.2559 25.9372C24.6082 25.9372 24.084 25.4131 24.084 24.7654C24.084 21.5728 25.3458 18.7419 27.2941 16.8063C26.3059 16.5262 25.2636 16.485 24.2111 16.7602C21.5755 17.4503 19.4938 20.0779 19.0326 23.2982C18.7008 25.6134 19.7193 27.7385 20.7607 29.5135C21.1715 30.2117 21.3878 30.9944 21.3878 31.7772V36.1088C21.3878 38.2545 22.8915 39.9998 24.7397 39.9998C26.2172 39.9998 27.5035 38.9011 27.9383 37.267L28.7234 34.3224C29.0863 32.9685 29.3014 32.9685 29.4743 32.9685C29.6471 32.9685 29.8622 32.9685 30.2239 34.3223L31.01 37.2668C31.4449 38.901 32.7312 39.9996 34.2086 39.9996C36.0568 39.9996 37.5606 38.2544 37.5606 36.1086V31.7771C37.5606 30.9942 37.7769 30.2115 38.1877 29.5123C39.2292 27.7396 40.2477 25.6145 39.9158 23.2993Z" fill="white"/>
<path d="M21.1142 0H9.3955C8.10347 0 7.05176 1.05172 7.05176 2.34375C7.05176 3.63577 8.10347 4.68749 9.3955 4.68749H21.1142C22.4063 4.68749 23.458 3.63577 23.458 2.34375C23.458 1.05172 22.4063 0 21.1142 0Z" fill="white"/>
<path opacity="0.4" d="M26.9736 2.34375H25.8017C25.8017 4.92898 23.6994 7.03124 21.1142 7.03124H9.39549C6.81026 7.03124 4.708 4.92898 4.708 2.34375H3.53613C1.59754 2.34375 0.0205078 3.92078 0.0205078 5.85937V33.9843C0.0205078 35.9229 1.59754 37.4999 3.53613 37.4999H19.0862C18.9689 37.0024 18.8872 36.4899 18.8872 35.9527V31.6211C18.8872 31.2549 18.7818 30.8841 18.5827 30.5453C17.3365 28.4202 16.12 25.8407 16.556 22.8092C17.1488 18.6675 19.924 15.2619 23.4614 14.3372C25.4378 13.8199 27.5126 14.0522 29.3173 14.9792C29.6954 14.784 30.0908 14.6376 30.4892 14.5046V5.85937C30.4892 3.92078 28.9122 2.34375 26.9736 2.34375ZM13.7395 27.7816L9.05205 32.4691C8.59432 32.9268 7.85268 32.9268 7.39495 32.4691L5.0512 30.1253C4.59347 29.6676 4.59347 28.926 5.0512 28.4682C5.50893 28.0105 6.25058 28.0105 6.70831 28.4682L8.22354 29.9835L12.0825 26.1245C12.5403 25.6668 13.2819 25.6668 13.7396 26.1245C14.1974 26.5822 14.1974 27.3239 13.7395 27.7816ZM13.7395 19.5785L9.05205 24.266C8.59432 24.7237 7.85268 24.7237 7.39495 24.266L5.0512 21.9222C4.59347 21.4645 4.59347 20.7229 5.0512 20.2651C5.50893 19.8074 6.25058 19.8074 6.70831 20.2651L8.22354 21.7804L12.0825 17.9214C12.5403 17.4636 13.2819 17.4636 13.7396 17.9214C14.1974 18.3791 14.1974 19.1207 13.7395 19.5785ZM13.7395 11.3754L9.05205 16.0629C8.59432 16.5206 7.85268 16.5206 7.39495 16.0629L5.0512 13.7191C4.59347 13.2614 4.59347 12.5197 5.0512 12.062C5.50893 11.6043 6.25058 11.6043 6.70831 12.062L8.22354 13.5772L12.0825 9.71827C12.5403 9.26053 13.2819 9.26053 13.7396 9.71827C14.1974 10.176 14.1974 10.9176 13.7395 11.3754Z" fill="url(#paint0_radial_339_16238)"/>
</g>
<defs>
<radialGradient id="paint0_radial_339_16238" cx="0" cy="0" r="1" gradientUnits="userSpaceOnUse" gradientTransform="translate(5.90431 2.30241) rotate(9.75241) scale(57.787 41.7215)">
<stop stop-color="#DDD2FF"/>
<stop offset="1" stop-color="#775ACE"/>
</radialGradient>
<clipPath id="clip0_339_16238">
<rect width="40" height="40" fill="white"/>
</clipPath>
</defs>
</svg>
