<svg width="40" height="40" viewBox="0 0 40 40" fill="none" xmlns="http://www.w3.org/2000/svg">
<g clip-path="url(#clip0_339_16266)">
<path opacity="0.4" d="M22.3384 27.0244L17.2783 40.0001H19.0212L24.4895 31.2676L22.3384 27.0244Z" fill="url(#paint0_radial_339_16266)"/>
<path d="M11.0732 29.1513L14.9693 39.4594L18.9895 29.1504C16.4609 30.1673 13.6034 30.1674 11.0732 29.1513Z" fill="white"/>
<path opacity="0.4" d="M7.6323 26.9014L5.41895 31.2673L10.8872 39.9998H12.6641L7.76012 27.0252C7.71707 26.9845 7.67465 26.9429 7.6323 26.9014Z" fill="url(#paint1_radial_339_16266)"/>
<path d="M10.0508 23.5299V25.8977C12.9905 28.1351 17.0916 28.1222 20.0188 25.8872V23.4468C16.8713 25.0914 13.1502 25.0841 10.0508 23.5299Z" fill="white"/>
<path opacity="0.4" d="M3.02422 30.7991L4.82773 27.2417L3.69492 27.3904C1.59141 27.6234 0 29.398 0 31.5104V39.2188C0 39.6503 0.349766 40.0001 0.78125 40.0001H8.11758L3.07617 31.9493C2.85836 31.6015 2.83867 31.1652 3.02422 30.7991Z" fill="url(#paint2_radial_339_16266)"/>
<path d="M28.8377 10.625C28.8377 9.16875 27.6549 7.98828 26.1959 7.98828H25.9121V13.2617H26.1959C27.6548 13.2617 28.8377 12.0812 28.8377 10.625Z" fill="white"/>
<path d="M3.9959 13.2546V7.99561C2.62379 8.09092 1.54004 9.23139 1.54004 10.6251C1.54004 12.0189 2.62379 13.1593 3.9959 13.2546Z" fill="white"/>
<path opacity="0.4" d="M24.6586 35.4189L21.79 40H26.0464C25.6152 39.1552 24.9543 36.9068 24.6586 35.4189Z" fill="url(#paint3_radial_339_16266)"/>
<path d="M39.9908 25.7906C39.7721 22.2306 35.7617 20.277 32.8275 22.1677C29.8676 20.2604 25.8821 22.2596 25.6643 25.7893C25.5837 27.0949 26.0457 28.344 26.9241 29.2703C26.0195 32.7012 27.3846 36.9759 28.0546 38.7466C28.7426 40.5652 31.4185 40.3464 31.7767 38.4152L32.5734 34.1213C32.627 33.8334 33.0293 33.8334 33.0828 34.1213L33.8751 38.3912C34.2378 40.3464 36.9098 40.5843 37.6044 38.746C38.6595 35.9537 39.5002 32.182 38.7297 29.2716C39.6085 28.3454 40.0709 27.0964 39.9908 25.7906Z" fill="white"/>
<path opacity="0.4" d="M18.3508 5.9375H23.5643V1.17188C23.5643 0.524687 23.0386 0 22.3902 0H7.51789C6.86945 0 6.34375 0.524687 6.34375 1.17188V5.9375H11.7099C12.8175 2.82086 17.2427 2.81922 18.3508 5.9375Z" fill="url(#paint4_radial_339_16266)"/>
<path opacity="0.4" d="M15.0306 8.28125C15.679 8.28125 16.2047 7.75658 16.2047 7.10938C16.2047 6.46217 15.679 5.9375 15.0306 5.9375C14.3821 5.9375 13.8564 6.46217 13.8564 7.10938C13.8564 7.75658 14.3821 8.28125 15.0306 8.28125Z" fill="url(#paint5_radial_339_16266)"/>
<path d="M14.954 22.3438C19.7017 22.3438 23.5642 18.4886 23.5642 13.75V8.28125H18.3507C17.2432 11.3979 12.818 11.3995 11.7099 8.28125H6.34375V13.75C6.34375 18.4886 10.2063 22.3438 14.954 22.3438ZM12.3341 14.2977C12.8956 13.9739 13.6137 14.166 13.938 14.7265C14.389 15.506 15.5185 15.5068 15.97 14.7265C16.2943 14.166 17.0123 13.9741 17.5739 14.2977C18.1355 14.6214 18.3277 15.3381 18.0035 15.8986C16.6506 18.2368 13.2584 18.239 11.9044 15.8986C11.5802 15.338 11.7725 14.6213 12.3341 14.2977Z" fill="white"/>
</g>
<defs>
<radialGradient id="paint0_radial_339_16266" cx="0" cy="0" r="1" gradientUnits="userSpaceOnUse" gradientTransform="translate(18.6709 27.0092) rotate(15.0045) scale(13.9549 15.092)">
<stop stop-color="#DDD2FF"/>
<stop offset="1" stop-color="#775ACE"/>
</radialGradient>
<radialGradient id="paint1_radial_339_16266" cx="0" cy="0" r="1" gradientUnits="userSpaceOnUse" gradientTransform="translate(6.81805 26.886) rotate(15.0722) scale(14.0251 15.2299)">
<stop stop-color="#DDD2FF"/>
<stop offset="1" stop-color="#775ACE"/>
</radialGradient>
<radialGradient id="paint2_radial_339_16266" cx="0" cy="0" r="1" gradientUnits="userSpaceOnUse" gradientTransform="translate(1.56758 27.2267) rotate(13.1766) scale(15.5836 14.9585)">
<stop stop-color="#DDD2FF"/>
<stop offset="1" stop-color="#775ACE"/>
</radialGradient>
<radialGradient id="paint3_radial_339_16266" cx="0" cy="0" r="1" gradientUnits="userSpaceOnUse" gradientTransform="translate(22.612 35.4136) rotate(9.10805) scale(8.05765 5.44668)">
<stop stop-color="#DDD2FF"/>
<stop offset="1" stop-color="#775ACE"/>
</radialGradient>
<radialGradient id="paint4_radial_339_16266" cx="0" cy="0" r="1" gradientUnits="userSpaceOnUse" gradientTransform="translate(9.6692 -0.00698244) rotate(2.9401) scale(32.231 7.14023)">
<stop stop-color="#DDD2FF"/>
<stop offset="1" stop-color="#775ACE"/>
</radialGradient>
<radialGradient id="paint5_radial_339_16266" cx="0" cy="0" r="1" gradientUnits="userSpaceOnUse" gradientTransform="translate(14.3099 5.93474) rotate(8.45626) scale(4.43764 2.79154)">
<stop stop-color="#DDD2FF"/>
<stop offset="1" stop-color="#775ACE"/>
</radialGradient>
<clipPath id="clip0_339_16266">
<rect width="40" height="40" fill="white"/>
</clipPath>
</defs>
</svg>
