<svg width="20" height="20" viewBox="0 0 20 20" fill="none" xmlns="http://www.w3.org/2000/svg">
	<path d="M17.7259 8.06871C17.7259 12.8902 12.3771 17.9117 10.581 19.4625C10.4137 19.5883 10.21 19.6564 10.0007 19.6564C9.7913 19.6564 9.58762 19.5883 9.42029 19.4625C7.62417 17.9117 2.27539 12.8902 2.27539 8.06871C2.27539 6.01984 3.0893 4.05489 4.53807 2.60612C5.98683 1.15735 7.95178 0.343445 10.0007 0.343445C12.0495 0.343445 14.0145 1.15735 15.4632 2.60612C16.912 4.05489 17.7259 6.01984 17.7259 8.06871Z" fill="url(#paint0_radial_629_1822)"/>
	<path d="M10 10.8333C11.3807 10.8333 12.5 9.71405 12.5 8.33334C12.5 6.95262 11.3807 5.83334 10 5.83334C8.61929 5.83334 7.5 6.95262 7.5 8.33334C7.5 9.71405 8.61929 10.8333 10 10.8333Z" fill="#6149AB"/>
	<defs>
	<radialGradient id="paint0_radial_629_1822" cx="0" cy="0" r="1" gradientUnits="userSpaceOnUse" gradientTransform="translate(5.25903 0.320733) rotate(10.5474) scale(29.3764 22.8627)">
	<stop stop-color="#DDD2FF"/>
	<stop offset="1" stop-color="#775ACE"/>
	</radialGradient>
	</defs>
</svg>
