<svg width="65" height="62" viewBox="0 0 65 62" fill="none" xmlns="http://www.w3.org/2000/svg">
<path d="M64.2804 26.2737C60.8866 24.8198 59.9867 22.3023 58.9545 20.5093C57.9217 23.0992 59.4388 25.6682 60.3264 26.6289C52.1967 20.7264 65.4194 15.0506 55.7467 11.8233C49.0678 9.59492 40.6277 21.7052 39.2745 27.7088C39.2131 27.9815 39.495 28.1906 39.7545 28.0743C44.6014 25.9019 47.8992 23.3737 49.1108 26.0768C49.9784 28.0125 46.8836 30.1598 44.5376 31.3507C44.2198 31.512 44.2985 31.9965 44.6515 32.0545C64.4194 35.3021 65.8761 26.9573 64.2804 26.2737Z" fill="#6149AB"/>
<path d="M47.9477 59.5272C48.2993 55.9181 50.4621 54.2953 51.8804 52.7758C49.0437 52.6244 47.0236 54.837 46.3681 55.9622C49.5593 46.5611 59.1983 57.0814 59.3107 47.0812C59.3882 40.1761 44.9965 36.1114 38.7458 36.7282C38.4619 36.7562 38.3469 37.0837 38.5408 37.2886C42.1633 41.1162 45.6474 43.3925 43.4017 45.363C41.7936 46.7741 38.7426 44.5675 36.8539 42.7584C36.5981 42.5134 36.1524 42.7377 36.2063 43.084C39.2267 62.4758 47.7823 61.2241 47.9477 59.5272Z" fill="#6149AB"/>
<path d="M10.4219 54.4861C14.0433 53.7211 16.2786 55.2468 18.1879 56.1095C17.4763 53.418 14.7098 52.2039 13.4155 51.9334C23.5374 52.0627 16.2108 64.2384 25.9838 61.3149C32.732 59.2963 32.3325 44.6428 29.8389 38.9999C29.7257 38.7436 29.372 38.7355 29.2311 38.9784C26.6005 43.516 25.4386 47.4548 22.8395 45.957C20.9784 44.8845 22.2034 41.3708 23.3934 39.0614C23.5545 38.7487 23.201 38.4009 22.8801 38.5561C4.90943 47.2453 8.71926 54.8457 10.4219 54.4861Z" fill="#6149AB"/>
<path d="M3.89115 18.0278C5.73823 21.1705 4.93369 23.7187 4.67534 25.7611C7.07849 24.2783 7.41788 21.3299 7.28718 20.0411C10.2429 29.5156 -3.83892 26.393 1.98208 34.6129C6.00141 40.2886 20.1428 35.4549 24.8762 31.4126C25.0912 31.229 24.9913 30.8968 24.712 30.8395C19.4945 29.7688 15.3069 29.8849 15.9735 27.0062C16.4508 24.9448 20.2438 25.017 22.8539 25.4231C23.2074 25.4781 23.4383 25.0427 23.1896 24.7908C9.26068 10.6849 3.02268 16.5502 3.89115 18.0278Z" fill="#6149AB"/>
<path d="M37.3567 0.78922C34.8648 3.47195 32.1396 3.50234 30.0736 3.88679C32.2517 5.6718 35.2239 5.08555 36.4377 4.5693C28.1253 10.2229 26.853 -3.85203 20.6381 4.08696C16.3469 9.56874 25.3776 21.2639 30.7588 24.4364C31.0033 24.5806 31.2958 24.3859 31.2661 24.1081C30.7107 18.9195 29.316 15.0538 32.3205 14.7937C34.472 14.6074 35.5627 18.1632 35.9666 20.7192C36.0213 21.0654 36.5155 21.1472 36.6844 20.8384C46.1436 3.54418 38.5284 -0.472149 37.3567 0.78922Z" fill="#6149AB"/>
</svg>
