<svg width="173" height="64" viewBox="0 0 173 64" fill="none" xmlns="http://www.w3.org/2000/svg">
<g clip-path="url(#clip0_420_4223)">
<path d="M92.8356 50.3994V37.5628H87.7072V38.7096C87.7072 40.5818 87.6031 42.2005 87.3949 43.5657C87.1867 44.9231 86.8545 46.062 86.3981 46.9825C85.9497 47.8953 85.3532 48.6247 84.6085 49.1707C83.8639 49.7168 82.9471 50.1107 81.8581 50.3526L80.501 47.0879C81.1976 46.9396 81.7661 46.7095 82.2064 46.3975C82.6548 46.0854 83.0031 45.6252 83.2513 45.0167C83.5076 44.4082 83.6837 43.5969 83.7798 42.5828C83.8839 41.5608 83.9359 40.2698 83.9359 38.7096V34.0173H96.8231V50.3994H92.8356ZM80.501 54.5183V47.0879L82.7469 47.1698L83.996 46.8538H99.5374V54.5183H95.7541V50.3994H84.2842V54.5183H80.501Z" fill="#6149AB"/>
<path d="M102.084 50.3994V34.0173H113.902V37.3873H106.071V40.4297H112.641V43.5423H106.071V46.9942H113.998V50.3994H102.084Z" fill="#6149AB"/>
<path d="M117.331 50.3994V34.0173H121.319V40.0904H127.948V34.0173H131.936V50.3994H127.948V43.6359H121.319V50.3994H117.331Z" fill="#6149AB"/>
<path d="M138.864 50.3994V37.5628H134.385V34.0173H147.356V37.5628H142.876V50.3994H138.864Z" fill="#6149AB"/>
<path d="M92.4161 26.2146L85.6543 17.7427L91.7675 9.83249H96.7398L90.5184 17.731L97.5445 26.2146H92.4161ZM82.0752 26.2146V9.83249H86.0626V15.9056H89.2333V19.4511H86.0626V26.2146H82.0752Z" fill="#AE8CBF"/>
<path d="M106.422 26.5656C105.133 26.5656 103.94 26.3511 102.843 25.9221C101.754 25.4852 100.806 24.8806 99.9969 24.1083C99.1882 23.336 98.5596 22.4311 98.1112 21.3936C97.6709 20.356 97.4507 19.2327 97.4507 18.0235C97.4507 16.8066 97.6709 15.6793 98.1112 14.6418C98.5596 13.6043 99.1882 12.6994 99.9969 11.9271C100.806 11.1548 101.754 10.5541 102.843 10.125C103.94 9.69597 105.133 9.48145 106.422 9.48145C107.72 9.48145 108.913 9.69987 110.002 10.1367C111.09 10.5736 112.039 11.1821 112.848 11.9622C113.657 12.7423 114.281 13.6511 114.722 14.6886C115.17 15.7183 115.394 16.83 115.394 18.0235C115.394 19.2327 115.17 20.356 114.722 21.3936C114.281 22.4311 113.657 23.336 112.848 24.1083C112.039 24.8806 111.09 25.4852 110.002 25.9221C108.913 26.3511 107.72 26.5656 106.422 26.5656ZM106.422 22.9148C107.119 22.9148 107.756 22.8017 108.332 22.5754C108.917 22.3492 109.425 22.0216 109.857 21.5925C110.29 21.1634 110.622 20.6486 110.854 20.0479C111.094 19.4394 111.215 18.7646 111.215 18.0235C111.215 17.025 111.006 16.1591 110.59 15.4258C110.182 14.6925 109.613 14.1269 108.885 13.7291C108.164 13.3234 107.343 13.1206 106.422 13.1206C105.734 13.1206 105.097 13.2376 104.513 13.4717C103.928 13.6979 103.42 14.0255 102.987 14.4546C102.563 14.8836 102.231 15.3985 101.991 15.9992C101.75 16.5999 101.63 17.2746 101.63 18.0235C101.63 19.0143 101.838 19.8763 102.255 20.6096C102.671 21.3429 103.24 21.9123 103.96 22.318C104.689 22.7158 105.51 22.9148 106.422 22.9148Z" fill="#AE8CBF"/>
<path d="M126.335 26.5656C124.597 26.5656 123.064 26.2185 121.735 25.5242C120.406 24.8299 119.369 23.847 118.624 22.5754C117.879 21.3039 117.507 19.8022 117.507 18.0703C117.507 16.8066 117.723 15.652 118.156 14.6067C118.596 13.5536 119.213 12.6448 120.005 11.8803C120.806 11.1158 121.747 10.5268 122.828 10.1133C123.917 9.69207 125.106 9.48145 126.395 9.48145C127.796 9.48145 128.973 9.65307 129.926 9.99631C130.879 10.3396 131.739 10.8271 132.508 11.459L130.514 14.6535C130.05 14.1854 129.489 13.8383 128.833 13.6121C128.176 13.378 127.452 13.261 126.659 13.261C125.874 13.261 125.174 13.3741 124.557 13.6004C123.949 13.8188 123.428 14.1347 122.996 14.5482C122.571 14.9616 122.247 15.4609 122.023 16.046C121.799 16.6311 121.687 17.2863 121.687 18.0118C121.687 19.0104 121.887 19.8646 122.287 20.5745C122.696 21.2844 123.276 21.8304 124.029 22.2127C124.781 22.5871 125.682 22.7744 126.731 22.7744C127.484 22.7744 128.228 22.6651 128.965 22.4467C129.71 22.2205 130.414 21.8577 131.079 21.3585L132.904 24.6232C132.128 25.2083 131.199 25.6802 130.118 26.0391C129.037 26.3901 127.776 26.5656 126.335 26.5656Z" fill="#AE8CBF"/>
<path d="M135.324 26.2146V9.83249H139.156L145.545 20.1649L143.96 20.1766L150.037 9.83249H153.856V26.2146H149.989L150.061 14.7939L150.77 15.0397L145.917 23.1254H143.263L138.219 15.0397L138.903 14.7939L138.975 26.2146H135.324Z" fill="#AE8CBF"/>
<path d="M157.82 26.2146V9.83249H161.772V20.0713L168.581 9.83249H172.545V26.2146H168.593V15.8471L161.76 26.2146H157.82Z" fill="#AE8CBF"/>
<path d="M65.2804 26.2737C61.8866 24.8198 60.9867 22.3023 59.9545 20.5093C58.9217 23.0992 60.4388 25.6682 61.3264 26.6289C53.1967 20.7264 66.4194 15.0506 56.7467 11.8233C50.0678 9.59492 41.6277 21.7052 40.2745 27.7088C40.2131 27.9815 40.495 28.1906 40.7545 28.0743C45.6014 25.9019 48.8992 23.3737 50.1108 26.0768C50.9784 28.0125 47.8836 30.1598 45.5376 31.3507C45.2198 31.512 45.2985 31.9965 45.6515 32.0545C65.4194 35.3021 66.8761 26.9573 65.2804 26.2737Z" fill="#6149AB"/>
<path d="M48.9477 59.5272C49.2993 55.9181 51.4621 54.2953 52.8804 52.7758C50.0437 52.6244 48.0236 54.837 47.3681 55.9622C50.5593 46.5611 60.1983 57.0814 60.3107 47.0812C60.3882 40.1761 45.9965 36.1114 39.7458 36.7282C39.4619 36.7562 39.3469 37.0837 39.5408 37.2886C43.1633 41.1162 46.6474 43.3925 44.4017 45.363C42.7936 46.7741 39.7426 44.5675 37.8539 42.7584C37.5981 42.5134 37.1524 42.7377 37.2063 43.084C40.2267 62.4758 48.7823 61.2241 48.9477 59.5272Z" fill="#6149AB"/>
<path d="M11.4219 54.4861C15.0433 53.7211 17.2786 55.2468 19.1879 56.1095C18.4763 53.418 15.7098 52.2039 14.4155 51.9334C24.5374 52.0627 17.2108 64.2384 26.9838 61.3149C33.732 59.2963 33.3325 44.6428 30.8389 38.9999C30.7257 38.7436 30.372 38.7355 30.2311 38.9784C27.6005 43.516 26.4386 47.4548 23.8395 45.957C21.9784 44.8845 23.2034 41.3708 24.3934 39.0614C24.5545 38.7487 24.201 38.4009 23.8801 38.5561C5.90943 47.2453 9.71926 54.8457 11.4219 54.4861Z" fill="#6149AB"/>
<path d="M4.89115 18.0278C6.73823 21.1705 5.93369 23.7187 5.67534 25.7611C8.07849 24.2783 8.41788 21.3299 8.28718 20.0411C11.2429 29.5156 -2.83892 26.393 2.98208 34.6129C7.00141 40.2886 21.1428 35.4549 25.8762 31.4126C26.0912 31.229 25.9913 30.8968 25.712 30.8395C20.4945 29.7688 16.3069 29.8849 16.9735 27.0062C17.4508 24.9448 21.2438 25.017 23.8539 25.4231C24.2074 25.4781 24.4383 25.0427 24.1896 24.7908C10.2607 10.6849 4.02268 16.5502 4.89115 18.0278Z" fill="#6149AB"/>
<path d="M38.3567 0.78922C35.8648 3.47195 33.1396 3.50234 31.0736 3.88679C33.2517 5.6718 36.2239 5.08555 37.4377 4.5693C29.1253 10.2229 27.853 -3.85203 21.6381 4.08696C17.3469 9.56874 26.3776 21.2639 31.7588 24.4364C32.0033 24.5806 32.2958 24.3859 32.2661 24.1081C31.7107 18.9195 30.316 15.0538 33.3205 14.7937C35.472 14.6074 36.5627 18.1632 36.9666 20.7192C37.0213 21.0654 37.5155 21.1472 37.6844 20.8384C47.1436 3.54418 39.5284 -0.472149 38.3567 0.78922Z" fill="#6149AB"/>
</g>
<defs>
<clipPath id="clip0_420_4223">
<rect width="171.976" height="64" fill="white" transform="translate(0.568359)"/>
</clipPath>
</defs>
</svg>
