<svg width="100" height="100" viewBox="0 0 100 100" fill="none" xmlns="http://www.w3.org/2000/svg">
<path d="M93.7069 40.6176C94.8455 40.6176 95.9375 41.0732 96.7426 41.884C97.5477 42.6948 98 43.7945 98 44.9412V62.2353C98 63.7642 97.3969 65.2305 96.3234 66.3116C95.25 67.3927 93.794 68 92.2759 68H20.7241C19.206 68 17.75 67.3927 16.6766 66.3116C15.6031 65.2305 15 63.7642 15 62.2353V44.9412C15 43.7945 15.4523 42.6948 16.2574 41.884C17.0625 41.0732 18.1545 40.6176 19.2931 40.6176H93.7069Z" fill="url(#paint0_linear_90_901)"/>
<path d="M45.0517 24.7647V42.0588C45.0517 43.8487 44.6379 45.614 43.8431 47.2149C43.0483 48.8159 41.8942 50.2084 40.4724 51.2824C38.4908 52.7791 36.0805 53.5882 33.6035 53.5882C31.1264 53.5882 28.7161 52.7791 26.7345 51.2824C25.3127 50.2084 24.1586 48.8159 23.3638 47.2149C22.569 45.614 22.1552 43.8487 22.1552 42.0588V24.7647C22.1552 23.2358 22.7582 21.7695 23.8317 20.6884C24.9052 19.6074 26.3612 19 27.8793 19H39.3276C40.8457 19 42.3017 19.6074 43.3752 20.6884C44.4486 21.7695 45.0517 23.2358 45.0517 24.7647Z" fill="url(#paint1_linear_90_901)"/>
<path d="M67.9483 24.7647V42.0588C67.9483 43.8487 67.5345 45.614 66.7397 47.2149C65.9448 48.8159 64.7908 50.2084 63.369 51.2824C61.3873 52.7791 58.9771 53.5882 56.5 53.5882C54.0229 53.5882 51.6127 52.7791 49.631 51.2824C48.2092 50.2084 47.0552 48.8159 46.2604 47.2149C45.4655 45.614 45.0517 43.8487 45.0517 42.0588V24.7647C45.0517 23.2358 45.6548 21.7695 46.7283 20.6884C47.8018 19.6074 49.2577 19 50.7759 19H62.2241C63.7423 19 65.1982 19.6074 66.2717 20.6884C67.3452 21.7695 67.9483 23.2358 67.9483 24.7647Z" fill="url(#paint2_linear_90_901)"/>
<path d="M90.8448 24.7647V42.0588C90.8448 43.8487 90.431 45.614 89.6362 47.2149C88.8414 48.8159 87.6873 50.2084 86.2655 51.2824C84.2839 52.7791 81.8736 53.5882 79.3966 53.5882C76.9195 53.5882 74.5092 52.7791 72.5276 51.2824C71.1058 50.2084 69.9517 48.8159 69.1569 47.2149C68.3621 45.614 67.9483 43.8487 67.9483 42.0588V24.7647C67.9483 23.2358 68.5514 21.7695 69.6248 20.6884C70.6983 19.6074 72.1543 19 73.6724 19H85.1207C86.6388 19 88.0948 19.6074 89.1683 20.6884C90.2418 21.7695 90.8448 23.2358 90.8448 24.7647Z" fill="url(#paint3_linear_90_901)"/>
<path d="M8.39399 64.2667C8.21452 64.2676 8.03663 64.2331 7.87047 64.1652C7.70432 64.0974 7.55316 63.9975 7.42561 63.8712C7.16803 63.6162 7.02231 63.2693 7.02049 62.9068C7.01868 62.5444 7.16093 62.196 7.41595 61.9384C7.67097 61.6809 8.01787 61.5351 8.38033 61.5333H8.39399C8.75646 61.5333 9.10407 61.6773 9.36037 61.9336C9.61667 62.1899 9.76066 62.5375 9.76066 62.9C9.76066 63.2625 9.61667 63.6101 9.36037 63.8664C9.10407 64.1227 8.75646 64.2667 8.39399 64.2667Z" fill="#6149AB"/>
<path d="M87.6333 43.7667C87.9958 43.7667 88.3434 43.6227 88.5997 43.3664C88.856 43.1101 89 42.7625 89 42.4C89 42.0375 88.856 41.6899 88.5997 41.4336C88.3434 41.1773 87.9958 41.0333 87.6333 41.0333H82.1667V32.8333C82.1645 31.0217 81.4439 29.2849 80.1628 28.0038C78.8818 26.7228 77.145 26.0022 75.3333 26H64.4C63.3352 26.003 62.286 26.2557 61.3366 26.7377C60.3872 27.2198 59.564 27.9178 58.9333 28.7757C58.3026 27.9178 57.4795 27.2198 56.5301 26.7377C55.5807 26.2557 54.5314 26.003 53.4667 26H42.5333C41.4686 26.003 40.4193 26.2557 39.4699 26.7377C38.5205 27.2198 37.6974 27.9178 37.0667 28.7757C36.436 27.9178 35.6128 27.2198 34.6634 26.7377C33.714 26.2557 32.6648 26.003 31.6 26H20.6667C18.855 26.0022 17.1182 26.7228 15.8372 28.0038C14.5561 29.2849 13.8355 31.0217 13.8333 32.8333V41.0333H8.36667C8.0042 41.0333 7.65659 41.1773 7.40029 41.4336C7.14399 41.6899 7 42.0375 7 42.4C7 42.7625 7.14399 43.1101 7.40029 43.3664C7.65659 43.6227 8.0042 43.7667 8.36667 43.7667H13.8333V46.5H12.4667C11.0168 46.5 9.62635 47.076 8.60115 48.1012C7.57595 49.1264 7 50.5168 7 51.9667L7 57.4333C7 57.7958 7.14399 58.1434 7.40029 58.3997C7.65659 58.656 8.0042 58.8 8.36667 58.8C8.72913 58.8 9.07675 58.656 9.33305 58.3997C9.58935 58.1434 9.73333 57.7958 9.73333 57.4333V51.9667C9.73333 51.2417 10.0213 50.5465 10.5339 50.0339C11.0465 49.5213 11.7417 49.2333 12.4667 49.2333H13.8333C13.8277 51.9952 14.7528 54.6784 16.4593 56.85C18.1658 59.0215 20.5542 60.5548 23.2391 61.2023C25.9239 61.8498 28.7487 61.5739 31.2575 60.4189C33.7663 59.264 35.8127 57.2975 37.0667 54.8367C38.0938 56.8533 39.6587 58.5465 41.5883 59.7291C43.5178 60.9117 45.7369 61.5376 48 61.5376C50.2631 61.5376 52.4822 60.9117 54.4117 59.7291C56.3413 58.5465 57.9062 56.8533 58.9333 54.8367C60.1906 57.2928 62.2377 59.2544 64.7451 60.4059C67.2525 61.5574 70.0745 61.8318 72.7567 61.1849C75.439 60.538 77.8256 59.0074 79.5325 56.8395C81.2394 54.6716 82.1672 51.9925 82.1667 49.2333H83.5333C84.2583 49.2333 84.9535 49.5213 85.4661 50.0339C85.9787 50.5465 86.2667 51.2417 86.2667 51.9667V68.3667C86.2667 69.4541 85.8347 70.4969 85.0658 71.2658C84.2969 72.0347 83.2541 72.4667 82.1667 72.4667H13.8333C12.7459 72.4667 11.7031 72.0347 10.9342 71.2658C10.1653 70.4969 9.73333 69.4541 9.73333 68.3667C9.73333 68.0042 9.58935 67.6566 9.33305 67.4003C9.07675 67.144 8.72913 67 8.36667 67C8.0042 67 7.65659 67.144 7.40029 67.4003C7.14399 67.6566 7 68.0042 7 68.3667C7.00217 70.1783 7.72281 71.9151 9.00383 73.1962C10.2849 74.4772 12.0217 75.1978 13.8333 75.2H82.1667C83.9783 75.1978 85.7151 74.4772 86.9962 73.1962C88.2772 71.9151 88.9978 70.1783 89 68.3667V51.9667C89 50.5168 88.424 49.1264 87.3988 48.1012C86.3736 47.076 84.9832 46.5 83.5333 46.5H82.1667V43.7667H87.6333ZM64.4 28.7333H75.3333C76.4207 28.7333 77.4636 29.1653 78.2325 29.9342C79.0014 30.7031 79.4333 31.7459 79.4333 32.8333V41.0333H76.7C76.7 39.9459 76.268 38.9031 75.4991 38.1342C74.7302 37.3653 73.6874 36.9333 72.6 36.9333H67.1333C66.0459 36.9333 65.0031 37.3653 64.2342 38.1342C63.4653 38.9031 63.0333 39.9459 63.0333 41.0333H60.3V32.8333C60.3 31.7459 60.732 30.7031 61.5009 29.9342C62.2698 29.1653 63.3126 28.7333 64.4 28.7333ZM65.7667 41.0333C65.7667 40.6709 65.9107 40.3233 66.167 40.067C66.4233 39.8107 66.7709 39.6667 67.1333 39.6667H72.6C72.9625 39.6667 73.3101 39.8107 73.5664 40.067C73.8227 40.3233 73.9667 40.6709 73.9667 41.0333V43.7667C73.9667 44.1291 73.8227 44.4767 73.5664 44.733C73.3101 44.9893 72.9625 45.1333 72.6 45.1333H67.1333C66.7709 45.1333 66.4233 44.9893 66.167 44.733C65.9107 44.4767 65.7667 44.1291 65.7667 43.7667V41.0333ZM42.5333 28.7333H53.4667C54.5541 28.7333 55.5969 29.1653 56.3658 29.9342C57.1347 30.7031 57.5667 31.7459 57.5667 32.8333V41.0333H54.8333C54.8333 39.9459 54.4014 38.9031 53.6325 38.1342C52.8636 37.3653 51.8207 36.9333 50.7333 36.9333H45.2667C44.1793 36.9333 43.1364 37.3653 42.3675 38.1342C41.5986 38.9031 41.1667 39.9459 41.1667 41.0333H38.4333V32.8333C38.4333 31.7459 38.8653 30.7031 39.6342 29.9342C40.4031 29.1653 41.4459 28.7333 42.5333 28.7333ZM43.9 41.0333C43.9 40.6709 44.044 40.3233 44.3003 40.067C44.5566 39.8107 44.9042 39.6667 45.2667 39.6667H50.7333C51.0958 39.6667 51.4434 39.8107 51.6997 40.067C51.956 40.3233 52.1 40.6709 52.1 41.0333V43.7667C52.1 44.1291 51.956 44.4767 51.6997 44.733C51.4434 44.9893 51.0958 45.1333 50.7333 45.1333H45.2667C44.9042 45.1333 44.5566 44.9893 44.3003 44.733C44.044 44.4767 43.9 44.1291 43.9 43.7667V41.0333ZM16.5667 32.8333C16.5667 31.7459 16.9986 30.7031 17.7675 29.9342C18.5364 29.1653 19.5793 28.7333 20.6667 28.7333H31.6C32.6874 28.7333 33.7302 29.1653 34.4991 29.9342C35.268 30.7031 35.7 31.7459 35.7 32.8333V41.0333H32.9667C32.9667 39.9459 32.5347 38.9031 31.7658 38.1342C30.9969 37.3653 29.9541 36.9333 28.8667 36.9333H23.4C22.3126 36.9333 21.2698 37.3653 20.5009 38.1342C19.732 38.9031 19.3 39.9459 19.3 41.0333H16.5667V32.8333ZM22.0333 41.0333C22.0333 40.6709 22.1773 40.3233 22.4336 40.067C22.6899 39.8107 23.0375 39.6667 23.4 39.6667H28.8667C29.2291 39.6667 29.5767 39.8107 29.833 40.067C30.0893 40.3233 30.2333 40.6709 30.2333 41.0333V43.7667C30.2333 44.1291 30.0893 44.4767 29.833 44.733C29.5767 44.9893 29.2291 45.1333 28.8667 45.1333H23.4C23.0375 45.1333 22.6899 44.9893 22.4336 44.733C22.1773 44.4767 22.0333 44.1291 22.0333 43.7667V41.0333ZM31.8733 56.8867C30.452 57.9527 28.7619 58.6018 26.9925 58.7613C25.223 58.9209 23.4441 58.5846 21.855 57.79C20.2659 56.9955 18.9295 55.7741 17.9954 54.2628C17.0614 52.7515 16.5667 51.01 16.5667 49.2333V43.7667H19.3C19.3 44.8541 19.732 45.8969 20.5009 46.6658C21.2698 47.4347 22.3126 47.8667 23.4 47.8667H28.8667C29.9541 47.8667 30.9969 47.4347 31.7658 46.6658C32.5347 45.8969 32.9667 44.8541 32.9667 43.7667H35.7V49.2333C35.6961 50.7178 35.3486 52.1813 34.6847 53.509C34.0208 54.8368 33.0586 55.9929 31.8733 56.8867ZM53.74 56.8867C52.3187 57.9527 50.6286 58.6018 48.8591 58.7613C47.0897 58.9209 45.3107 58.5846 43.7217 57.79C42.1326 56.9955 40.7961 55.7741 39.8621 54.2628C38.9281 52.7515 38.4333 51.01 38.4333 49.2333V43.7667H41.1667C41.1667 44.8541 41.5986 45.8969 42.3675 46.6658C43.1364 47.4347 44.1793 47.8667 45.2667 47.8667H50.7333C51.8207 47.8667 52.8636 47.4347 53.6325 46.6658C54.4014 45.8969 54.8333 44.8541 54.8333 43.7667H57.5667V49.2333C57.5628 50.7178 57.2153 52.1813 56.5514 53.509C55.8875 54.8368 54.9253 55.9929 53.74 56.8867ZM79.4333 49.2333C79.4333 51.7706 78.4254 54.2039 76.6313 55.998C74.8372 57.7921 72.4039 58.8 69.8667 58.8C67.3294 58.8 64.8961 57.7921 63.102 55.998C61.3079 54.2039 60.3 51.7706 60.3 49.2333V43.7667H63.0333C63.0333 44.8541 63.4653 45.8969 64.2342 46.6658C65.0031 47.4347 66.0459 47.8667 67.1333 47.8667H72.6C73.6874 47.8667 74.7302 47.4347 75.4991 46.6658C76.268 45.8969 76.7 44.8541 76.7 43.7667H79.4333V49.2333Z" fill="#6149AB"/>
<defs>
<linearGradient id="paint0_linear_90_901" x1="56.5" y1="19" x2="56.5" y2="68" gradientUnits="userSpaceOnUse">
<stop stop-color="#F5F2FF"/>
<stop offset="1" stop-color="#D0D1F9"/>
</linearGradient>
<linearGradient id="paint1_linear_90_901" x1="56.5" y1="19" x2="56.5" y2="68" gradientUnits="userSpaceOnUse">
<stop stop-color="#F5F2FF"/>
<stop offset="1" stop-color="#D0D1F9"/>
</linearGradient>
<linearGradient id="paint2_linear_90_901" x1="56.5" y1="19" x2="56.5" y2="68" gradientUnits="userSpaceOnUse">
<stop stop-color="#F5F2FF"/>
<stop offset="1" stop-color="#D0D1F9"/>
</linearGradient>
<linearGradient id="paint3_linear_90_901" x1="56.5" y1="19" x2="56.5" y2="68" gradientUnits="userSpaceOnUse">
<stop stop-color="#F5F2FF"/>
<stop offset="1" stop-color="#D0D1F9"/>
</linearGradient>
</defs>
</svg>
