<svg width="100" height="100" viewBox="0 0 100 100" fill="none" xmlns="http://www.w3.org/2000/svg">
<path d="M17.587 41.7869H13.0352C12.5851 41.787 12.1407 41.6871 11.7341 41.4944C11.3275 41.3016 10.9689 41.021 10.6842 40.6727C10.3995 40.3244 10.196 39.9172 10.0882 39.4805C9.9805 39.0439 9.9713 38.5888 10.0613 38.1482C11.4739 30.9573 15.8937 13.6675 47.544 13.0126C48.1474 13.0032 48.7466 13.1156 49.3055 13.343C49.8645 13.5705 50.3718 13.9082 50.797 14.3361C51.6468 15.1839 52.7985 15.6601 53.9992 15.6601C55.2 15.6601 56.3517 15.1839 57.2014 14.3361C57.6268 13.9055 58.135 13.5651 58.6953 13.3356C59.2556 13.1061 59.8565 12.9921 60.4621 13.0004C92.1093 13.6675 96.5291 30.9558 97.9387 38.1391C98.0287 38.5797 98.0195 39.0348 97.9118 39.4714C97.804 39.9081 97.6005 40.3153 97.3158 40.6636C97.0312 41.0119 96.6725 41.2925 96.2659 41.4853C95.8593 41.678 95.4149 41.7779 94.9648 41.7778H17.587V41.7869Z" fill="url(#paint0_linear_90_735)"/>
<path d="M41.8634 40.2905V35.727C41.8634 34.5207 41.3838 33.3638 40.5302 32.5108C39.6765 31.6578 38.5188 31.1786 37.3115 31.1786C36.1043 31.1786 34.9465 31.6578 34.0929 32.5108C33.2393 33.3638 32.7597 34.5207 32.7597 35.727V44.8237C32.7597 45.2258 32.9196 45.6114 33.2041 45.8957C33.4887 46.1801 33.8746 46.3398 34.277 46.3398H38.8288L41.8634 40.2905Z" fill="url(#paint1_linear_90_735)"/>
<path d="M53.6981 44.2172C53.8901 43.9523 53.996 43.6347 54.0015 43.3076V32.6948C54.0015 31.0864 53.3621 29.5439 52.2239 28.4065C51.0857 27.2692 49.542 26.6303 47.9324 26.6303C46.3228 26.6303 44.7791 27.2692 43.6409 28.4065C42.5028 29.5439 41.8633 31.0864 41.8633 32.6948L41.8634 40.2905L53.6981 44.2172Z" fill="url(#paint2_linear_90_735)"/>
<path d="M54.0015 46.355V56.9678C54.0076 57.5197 53.8549 58.0617 53.5615 58.5294L51.3615 59.9697C51.2307 59.9879 51.099 59.998 50.967 60H41.8633C41.0592 59.9976 40.2888 59.6774 39.7202 59.1092C39.1517 58.5411 38.8312 57.7712 38.8288 56.9678L38.8288 46.3398C38.8288 44.515 39.4875 42.7515 40.684 41.373C41.8805 39.9945 43.5345 39.0935 45.3423 38.8354C47.1501 38.5774 48.9904 38.9796 50.5253 39.9682C52.0602 40.9568 53.1867 42.4655 53.6981 44.2172C53.8996 44.9119 54.0018 45.6317 54.0015 46.355Z" fill="url(#paint3_linear_90_735)"/>
<path d="M28.2079 32.6902C29.4151 32.6902 30.5729 33.1694 31.4265 34.0224C32.2801 34.8754 32.7597 36.0323 32.7597 37.2386V46.3353C32.7597 46.7374 32.5998 47.123 32.3153 47.4073C32.0308 47.6916 31.6448 47.8514 31.2424 47.8514H25.1733C24.7709 47.8514 24.385 47.6916 24.1005 47.4073C23.8159 47.123 23.6561 46.7374 23.6561 46.3353V37.2386C23.6561 36.0323 24.1356 34.8754 24.9893 34.0224C25.8429 33.1694 27.0007 32.6902 28.2079 32.6902Z" fill="url(#paint4_linear_90_735)"/>
<path d="M20.6215 37.2386C21.4263 37.2386 22.1982 37.558 22.7673 38.1267C23.3364 38.6953 23.6561 39.4666 23.6561 40.2708V47.8514C23.6561 48.2535 23.4962 48.6391 23.2117 48.9234C22.9271 49.2078 22.5412 49.3675 22.1388 49.3675H19.1042C18.7018 49.3675 18.3159 49.2078 18.0314 48.9234C17.7468 48.6391 17.587 48.2535 17.587 47.8514V40.2708C17.587 39.4666 17.9067 38.6953 18.4758 38.1267C19.0449 37.558 19.8167 37.2386 20.6215 37.2386Z" fill="url(#paint5_linear_90_735)"/>
<path d="M82.8297 47.8529H76.7606C76.3582 47.8529 75.9723 47.6932 75.6877 47.4088C75.4032 47.1245 75.2433 46.7389 75.2433 46.3368V37.2401C75.2433 36.0338 75.7229 34.8769 76.5765 34.0239C77.4302 33.1709 78.5879 32.6917 79.7952 32.6917C81.0024 32.6917 82.1601 33.1709 83.0138 34.0239C83.8674 34.8769 84.347 36.0338 84.347 37.2401V46.3368C84.347 46.7389 84.1871 47.1245 83.9026 47.4088C83.618 47.6932 83.2321 47.8529 82.8297 47.8529Z" fill="url(#paint6_linear_90_735)"/>
<path d="M73.7261 46.3368H67.657C67.2546 46.3368 66.8686 46.177 66.5841 45.8927C66.2995 45.6084 66.1397 45.2228 66.1397 44.8207V35.724C66.1397 34.5177 66.6193 33.3608 67.4729 32.5078C68.3265 31.6548 69.4843 31.1756 70.6915 31.1756C71.8987 31.1756 73.0565 31.6548 73.9101 32.5078C74.7638 33.3608 75.2433 34.5177 75.2433 35.724V44.8207C75.2433 45.2228 75.0835 45.6084 74.7989 45.8927C74.5144 46.177 74.1285 46.3368 73.7261 46.3368Z" fill="url(#paint7_linear_90_735)"/>
<path d="M88.8988 49.369H85.8642C85.4618 49.369 85.0759 49.2093 84.7914 48.9249C84.5068 48.6406 84.347 48.255 84.347 47.8529V40.2723C84.347 39.4681 84.6667 38.6969 85.2358 38.1282C85.8049 37.5595 86.5767 37.2401 87.3815 37.2401C88.1863 37.2401 88.9582 37.5595 89.5273 38.1282C90.0964 38.6969 90.4161 39.4681 90.4161 40.2723V47.8529C90.4161 48.255 90.2562 48.6406 89.9717 48.9249C89.6871 49.2093 89.3012 49.369 88.8988 49.369Z" fill="url(#paint8_linear_90_735)"/>
<path d="M60.0706 26.6258C61.6802 26.6258 63.2239 27.2647 64.3621 28.402C65.5003 29.5393 66.1397 31.0818 66.1397 32.6902V43.303C66.1397 43.7051 65.9798 44.0908 65.6953 44.3751C65.4108 44.6594 65.0248 44.8191 64.6224 44.8191H55.5188C55.1164 44.8191 54.7305 44.6594 54.4459 44.3751C54.1614 44.0908 54.0015 43.7051 54.0015 43.303V32.6902C54.0015 31.0818 54.6409 29.5393 55.7791 28.402C56.9173 27.2647 58.461 26.6258 60.0706 26.6258Z" fill="url(#paint9_linear_90_735)"/>
<path d="M70.6103 83H66.3731C65.6147 83.0025 64.8773 82.769 64.2788 82.3368C63.6804 81.9045 63.2554 81.2986 63.0719 80.6158L60.5023 71.0474C60.3754 70.5986 60.1494 70.1792 59.8387 69.8158L50.5475 59.2842L45 53L67.9047 66.6579C68.4958 67.0197 68.9578 67.5363 69.232 68.1421L73.7585 78.6737C73.9637 79.1517 74.0398 79.6691 73.9804 80.1807C73.9209 80.6923 73.7276 81.1827 73.4173 81.6092C73.1069 82.0357 72.689 82.3853 72.1998 82.6277C71.7106 82.8701 71.1649 82.9979 70.6103 83Z" fill="url(#paint10_linear_90_735)"/>
<path d="M66.3731 83L56.9118 83C56.01 82.9975 55.1459 82.664 54.5082 82.0723C53.8705 81.4806 53.5111 80.6788 53.5084 79.8421V75.8474C53.5095 75.3594 53.3871 74.8781 53.1511 74.4421L45 59.3158H50.1051C50.2531 59.3137 50.4009 59.3032 50.5475 59.2842L59.8387 69.8158C60.1494 70.1792 60.3754 70.5986 60.5023 71.0474L63.0719 80.6158C63.2554 81.2986 63.6804 81.9045 64.2788 82.3368C64.8773 82.769 65.6147 83.0025 66.3731 83Z" fill="url(#paint11_linear_90_735)"/>
<path d="M5.81654 42.228C5.46338 42.2298 5.12397 42.0912 4.873 41.8427C4.62203 41.5942 4.48004 41.2562 4.47827 40.9031C4.47651 40.5499 4.61511 40.2105 4.86358 39.9595C5.11206 39.7086 5.45006 39.5666 5.80322 39.5648H5.81654C6.1697 39.5648 6.5084 39.7051 6.75813 39.9548C7.00785 40.2046 7.14815 40.5433 7.14815 40.8964C7.14815 41.2496 7.00785 41.5883 6.75813 41.838C6.5084 42.0877 6.1697 42.228 5.81654 42.228Z" fill="#6149AB"/>
<path d="M3.07874 45.7807C2.96121 46.3653 2.97541 46.9687 3.12029 47.5471C3.26517 48.1255 3.5371 48.6643 3.91632 49.1244C4.29028 49.5789 4.76064 49.9446 5.29334 50.195C5.82604 50.4453 6.40775 50.574 6.99633 50.5719H9.65955V54.5667C9.65955 55.273 9.94014 55.9504 10.4396 56.4499C10.939 56.9493 11.6164 57.2299 12.3228 57.2299H14.986C15.458 57.2282 15.9209 57.1007 16.3273 56.8606C16.7336 56.6204 17.0685 56.2763 17.2977 55.8637C17.414 55.8827 17.5314 55.8942 17.6492 55.8983H22.9756C23.4469 55.8958 23.9091 55.7682 24.315 55.5287C24.7209 55.2891 25.056 54.9461 25.286 54.5347C25.4026 54.5549 25.5205 54.5669 25.6389 54.5707H28.3021V62.5737C28.3021 63.6332 28.723 64.6493 29.4721 65.3984C30.2213 66.1476 31.2374 66.5685 32.2969 66.5685H35.4688L41.485 78.5863C41.5771 78.7711 41.625 78.9749 41.6248 79.1815V82.5478C41.6248 83.6073 42.0457 84.6234 42.7949 85.3726C43.5441 86.1217 44.5602 86.5426 45.6196 86.5426H56.3338C56.9866 86.5427 57.6296 86.3828 58.2063 86.0769C58.7831 85.771 59.2761 85.3284 59.6422 84.7878C60.0082 84.2472 60.2363 83.6252 60.3062 82.976C60.3762 82.3269 60.2861 81.6706 60.0436 81.0644L56.4936 72.1919C56.1835 71.418 55.638 70.7612 54.9342 70.3143L44.1815 63.4033C44.2437 63.131 44.2772 62.8529 44.2814 62.5737V53.2351H52.271C52.3888 53.231 52.5062 53.2194 52.6226 53.2005C52.8517 53.6131 53.1867 53.9572 53.593 54.1973C53.9993 54.4375 54.4623 54.565 54.9342 54.5667H60.2607C60.3785 54.5626 60.4959 54.5511 60.6122 54.5321C60.8414 54.9447 61.1763 55.2888 61.5826 55.529C61.9889 55.7691 62.4519 55.8966 62.9239 55.8983H68.2503C68.3681 55.8942 68.4855 55.8827 68.6019 55.8637C68.831 56.2763 69.166 56.6204 69.5723 56.8606C69.9786 57.1007 70.4416 57.2282 70.9136 57.2299H73.5768C74.2831 57.2299 74.9605 56.9493 75.46 56.4499C75.9594 55.9504 76.24 55.273 76.24 54.5667V50.5719H78.9032C79.4918 50.574 80.0735 50.4453 80.6062 50.195C81.1389 49.9446 81.6093 49.5789 81.9832 49.1244C82.3617 48.6649 82.6332 48.127 82.778 47.5496C82.9229 46.9722 82.9375 46.3698 82.8208 45.7861C81.7249 40.2026 78.3919 23.2553 48.6491 22.6254C47.9382 22.6166 47.2327 22.7501 46.5741 23.0179C45.9155 23.2856 45.3171 23.6824 44.814 24.1847C44.3178 24.6798 43.6454 24.9578 42.9444 24.9578C42.2435 24.9578 41.5711 24.6798 41.0749 24.1847C40.5712 23.6875 39.9744 23.2945 39.3186 23.0283C38.6628 22.762 37.9609 22.6279 37.2531 22.6334C31.6338 22.6881 26.0558 23.6006 20.7119 25.3392C20.037 25.5618 19.3762 25.825 18.7331 26.1275C18.0833 26.4205 17.4148 26.6708 16.7823 27.0024C15.5085 27.6616 14.285 28.4137 13.1217 29.2528C10.7403 30.915 8.6949 33.0127 7.09354 35.4355C6.99256 35.5834 6.92304 35.7505 6.8893 35.9264C6.85556 36.1023 6.85831 36.2833 6.89739 36.4581C6.93647 36.6328 7.01104 36.7977 7.11647 36.9425C7.22191 37.0873 7.35597 37.2089 7.51033 37.2997C7.80604 37.4721 8.15581 37.5266 8.48996 37.4526C8.82411 37.3786 9.1181 37.1814 9.31333 36.9003C10.736 34.7483 12.5548 32.8865 14.6731 31.414C15.7266 30.6552 16.8344 29.9747 17.9874 29.378C18.5627 29.0744 19.1859 28.8453 19.7784 28.579C20.3709 28.2978 20.9807 28.0545 21.6041 27.8506C26.6823 26.2095 31.9805 25.3496 37.3171 25.3006C37.667 25.2993 38.0137 25.3669 38.3375 25.4997C38.6613 25.6324 38.9557 25.8277 39.204 26.0743C40.2012 27.0666 41.5513 27.6229 42.9581 27.6214C44.3649 27.6199 45.7138 27.0607 46.7089 26.0663C46.9517 25.8132 47.2445 25.6134 47.5686 25.4796C47.8928 25.3457 48.2412 25.2807 48.5918 25.2886C76.1921 25.8705 79.2188 41.2413 80.2069 46.2934C80.2475 46.4912 80.2435 46.6956 80.1951 46.8916C80.1467 47.0877 80.0552 47.2704 79.9272 47.4266C79.8037 47.5783 79.6476 47.7002 79.4706 47.7834C79.2936 47.8666 79.1001 47.909 78.9045 47.9073H76.24C76.2426 47.2582 76.0861 46.6182 75.7841 46.0436C75.4821 45.4689 75.0439 44.977 74.5078 44.6109C73.9717 44.2448 73.354 44.0157 72.7089 43.9437C72.0637 43.8716 71.4107 43.9587 70.807 44.1975C70.5638 42.9918 69.9113 41.9072 68.96 41.1275C68.0087 40.3477 66.8171 39.9208 65.5871 39.919C64.3274 39.9242 63.1111 40.38 62.1582 41.204C61.7948 40.5821 61.308 40.0411 60.7279 39.6141C60.1478 39.1871 59.4865 38.8833 58.7847 38.7212C58.0828 38.559 57.3553 38.5421 56.6466 38.6714C55.938 38.8007 55.2633 39.0734 54.6639 39.4729C54.3381 38.2715 53.6796 37.1864 52.7643 36.3428C51.8489 35.4991 50.714 34.931 49.49 34.7039C48.266 34.4768 47.0028 34.6 45.8458 35.0592C44.6887 35.5185 43.6849 36.2951 42.9498 37.2997C42.2145 36.294 41.2099 35.5165 40.0519 35.057C38.8939 34.5974 37.6296 34.4745 36.4048 34.7023C35.1799 34.9302 34.0444 35.4995 33.1291 36.3448C32.2138 37.19 31.5561 38.2767 31.2316 39.4796C30.6323 39.0803 29.9577 38.8077 29.2492 38.6786C28.5407 38.5494 27.8133 38.5664 27.1116 38.7285C26.41 38.8906 25.7488 39.1944 25.1688 39.6212C24.5888 40.0481 24.1021 40.589 23.7386 41.2107C22.7875 40.3848 21.5721 39.9266 20.3124 39.919C19.0824 39.9208 17.8909 40.3477 16.9396 41.1275C15.9883 41.9072 15.3357 42.9918 15.0925 44.1975C14.4887 43.9587 13.8356 43.8715 13.1903 43.9437C12.5451 44.0158 11.9273 44.2451 11.3912 44.6113C10.855 44.9775 10.4168 45.4696 10.115 46.0445C9.81308 46.6193 9.65671 47.2594 9.65955 47.9087H6.99633C6.80074 47.9103 6.60728 47.8679 6.43026 47.7847C6.25325 47.7015 6.0972 47.5796 5.97366 47.4279C5.84567 47.2718 5.75415 47.089 5.70577 46.893C5.65739 46.6969 5.65338 46.4925 5.69402 46.2947C5.72777 46.1231 5.72738 45.9465 5.69288 45.775C5.65838 45.6035 5.59044 45.4405 5.49294 45.2953C5.39544 45.1501 5.27029 45.0255 5.12464 44.9286C4.97899 44.8317 4.81568 44.7645 4.64405 44.7308C4.47241 44.697 4.29581 44.6974 4.12433 44.7319C3.95284 44.7664 3.78983 44.8344 3.6446 44.9319C3.49937 45.0294 3.37477 45.1545 3.27791 45.3002C3.18105 45.4458 3.11382 45.6091 3.08007 45.7807H3.07874ZM44.2814 82.5478V79.1815C44.2809 78.5618 44.1368 77.9506 43.8606 77.3958L38.4463 66.5685H40.0202L46.87 74.9417C46.9966 75.0921 47.0876 75.2692 47.1364 75.4596L49.1497 83.5185C49.1817 83.6437 49.231 83.7596 49.2736 83.8794H45.613C45.2598 83.8794 44.9211 83.7391 44.6714 83.4894C44.4217 83.2397 44.2814 82.901 44.2814 82.5478ZM54.0141 73.1799L57.5642 82.0524C57.6452 82.2546 57.6754 82.4735 57.6521 82.69C57.6289 82.9066 57.5529 83.1141 57.4308 83.2944C57.3087 83.4747 57.1442 83.6224 56.9518 83.7243C56.7594 83.8263 56.5449 83.8796 56.3271 83.8794H53.0194C52.7223 83.8797 52.4337 83.7806 52.1994 83.598C51.9651 83.4153 51.7986 83.1596 51.7264 82.8714L49.713 74.8138C49.5702 74.2424 49.3024 73.7098 48.9287 73.2545L42.6528 65.5831L53.4988 72.5607C53.7304 72.709 53.9104 72.9253 54.0141 73.1799ZM37.0121 58.7906C36.7454 58.6192 36.4263 58.5485 36.1122 58.5914C35.7981 58.6342 35.5096 58.7878 35.2985 59.0243C35.0875 59.2609 34.9678 59.565 34.9609 59.8819C34.954 60.1989 35.0605 60.5079 35.2611 60.7534L37.8391 63.9053H32.2969C31.9437 63.9053 31.605 63.765 31.3553 63.5153C31.1056 63.2655 30.9653 62.9268 30.9653 62.5737V53.2391C30.9695 52.4148 31.164 51.6027 31.5335 50.8659C31.9031 50.1291 32.4377 49.4875 33.0959 48.9913C34.0144 48.2932 35.1381 47.9186 36.2917 47.926C37.4405 47.9301 38.5576 48.3034 39.4781 48.9908C40.3986 49.6782 41.0737 50.6433 41.4038 51.7437C41.5458 52.234 41.618 52.7419 41.6182 53.2524V61.7521L37.0121 58.7906ZM72.2452 46.577C72.5983 46.577 72.937 46.7173 73.1868 46.9671C73.4365 47.2168 73.5768 47.5555 73.5768 47.9087V54.5667H70.9136V47.9087C70.9136 47.5555 71.0538 47.2168 71.3036 46.9671C71.5533 46.7173 71.892 46.577 72.2452 46.577ZM65.5871 42.5822C66.2934 42.5822 66.9709 42.8628 67.4703 43.3623C67.9697 43.8617 68.2503 44.5391 68.2503 45.2454V53.2351H62.9239V45.2454C62.9239 44.5391 63.2045 43.8617 63.7039 43.3623C64.2034 42.8628 64.8808 42.5822 65.5871 42.5822ZM57.5975 41.2506C58.3038 41.2506 58.9812 41.5312 59.4806 42.0307C59.9801 42.5301 60.2607 43.2075 60.2607 43.9138V51.9035H54.9342V43.9138C54.9342 43.2075 55.2148 42.5301 55.7143 42.0307C56.2137 41.5312 56.8911 41.2506 57.5975 41.2506ZM44.2814 41.2506C44.2814 40.1911 44.7023 39.175 45.4514 38.4258C46.2006 37.6767 47.2167 37.2558 48.2762 37.2558C49.3357 37.2558 50.3518 37.6767 51.101 38.4258C51.8501 39.175 52.271 40.1911 52.271 41.2506V50.5719H44.2814V41.2506ZM33.6285 41.2506C33.6285 40.1911 34.0494 39.175 34.7986 38.4258C35.5477 37.6767 36.5638 37.2558 37.6233 37.2558C38.6828 37.2558 39.6989 37.6767 40.4481 38.4258C41.1973 39.175 41.6182 40.1911 41.6182 41.2506V47.3374C40.56 46.3657 39.2567 45.7013 37.8487 45.4159C36.4407 45.1306 34.9815 45.2351 33.6285 45.7182V41.2546V41.2506ZM25.6389 43.9138C25.6389 43.2075 25.9194 42.5301 26.4189 42.0307C26.9183 41.5312 27.5957 41.2506 28.3021 41.2506C29.0084 41.2506 29.6858 41.5312 30.1853 42.0307C30.6847 42.5301 30.9653 43.2075 30.9653 43.9138V47.3081C29.6315 48.5136 28.7406 50.1317 28.4352 51.9035H25.6389V43.9138ZM17.6492 45.2454C17.6492 44.5391 17.9298 43.8617 18.4292 43.3623C18.9287 42.8628 19.6061 42.5822 20.3124 42.5822C21.0187 42.5822 21.6961 42.8628 22.1956 43.3623C22.695 43.8617 22.9756 44.5391 22.9756 45.2454V53.2351H17.6492V45.2454ZM12.3228 47.9087C12.3228 47.5555 12.4631 47.2168 12.7128 46.9671C12.9625 46.7173 13.3012 46.577 13.6544 46.577C14.0075 46.577 14.3462 46.7173 14.596 46.9671C14.8457 47.2168 14.986 47.5555 14.986 47.9087V54.5667H12.3228V47.9087Z" fill="#6149AB"/>
<defs>
<linearGradient id="paint0_linear_90_735" x1="54" y1="13" x2="54" y2="60" gradientUnits="userSpaceOnUse">
<stop stop-color="#F5F2FF"/>
<stop offset="1" stop-color="#D0D1F9"/>
</linearGradient>
<linearGradient id="paint1_linear_90_735" x1="54" y1="13" x2="54" y2="60" gradientUnits="userSpaceOnUse">
<stop stop-color="#F5F2FF"/>
<stop offset="1" stop-color="#D0D1F9"/>
</linearGradient>
<linearGradient id="paint2_linear_90_735" x1="54" y1="13" x2="54" y2="60" gradientUnits="userSpaceOnUse">
<stop stop-color="#F5F2FF"/>
<stop offset="1" stop-color="#D0D1F9"/>
</linearGradient>
<linearGradient id="paint3_linear_90_735" x1="54" y1="13" x2="54" y2="60" gradientUnits="userSpaceOnUse">
<stop stop-color="#F5F2FF"/>
<stop offset="1" stop-color="#D0D1F9"/>
</linearGradient>
<linearGradient id="paint4_linear_90_735" x1="54" y1="13" x2="54" y2="60" gradientUnits="userSpaceOnUse">
<stop stop-color="#F5F2FF"/>
<stop offset="1" stop-color="#D0D1F9"/>
</linearGradient>
<linearGradient id="paint5_linear_90_735" x1="54" y1="13" x2="54" y2="60" gradientUnits="userSpaceOnUse">
<stop stop-color="#F5F2FF"/>
<stop offset="1" stop-color="#D0D1F9"/>
</linearGradient>
<linearGradient id="paint6_linear_90_735" x1="54" y1="13" x2="54" y2="60" gradientUnits="userSpaceOnUse">
<stop stop-color="#F5F2FF"/>
<stop offset="1" stop-color="#D0D1F9"/>
</linearGradient>
<linearGradient id="paint7_linear_90_735" x1="54" y1="13" x2="54" y2="60" gradientUnits="userSpaceOnUse">
<stop stop-color="#F5F2FF"/>
<stop offset="1" stop-color="#D0D1F9"/>
</linearGradient>
<linearGradient id="paint8_linear_90_735" x1="54" y1="13" x2="54" y2="60" gradientUnits="userSpaceOnUse">
<stop stop-color="#F5F2FF"/>
<stop offset="1" stop-color="#D0D1F9"/>
</linearGradient>
<linearGradient id="paint9_linear_90_735" x1="54" y1="13" x2="54" y2="60" gradientUnits="userSpaceOnUse">
<stop stop-color="#F5F2FF"/>
<stop offset="1" stop-color="#D0D1F9"/>
</linearGradient>
<linearGradient id="paint10_linear_90_735" x1="59.5" y1="53" x2="59.5" y2="83" gradientUnits="userSpaceOnUse">
<stop stop-color="#F5F2FF"/>
<stop offset="1" stop-color="#D0D1F9"/>
</linearGradient>
<linearGradient id="paint11_linear_90_735" x1="59.5" y1="53" x2="59.5" y2="83" gradientUnits="userSpaceOnUse">
<stop stop-color="#F5F2FF"/>
<stop offset="1" stop-color="#D0D1F9"/>
</linearGradient>
</defs>
</svg>
