<svg width="100" height="100" viewBox="0 0 100 100" fill="none" xmlns="http://www.w3.org/2000/svg">
<path d="M77.4419 37.2549C79.9141 29.2104 81.9364 20.0457 76.8179 13.3387C71.7653 6.7178 62.9898 3.09119 53.9119 6.03185C53.8823 6.04651 53.8526 6.04651 53.823 6.06118C51.4092 6.8531 48.8018 6.8531 46.388 6.06118C46.3583 6.04651 46.3287 6.04651 46.2991 6.03185C30.1256 0.796672 14.8852 16.4142 20.0098 32.6623L20.7651 35.0526C22.0946 39.5588 23.9747 43.8875 26.3636 47.9426C27.4332 49.5525 28.0516 51.4149 28.1558 53.3391C28.1558 57.7384 29.6072 90 38.3901 90C44.0182 90 45.6622 81.2014 45.6622 72.4028V65.0706C45.6622 65.0706 45.7215 59.2048 50.1055 59.2048C54.4895 59.2048 54.5488 65.0706 54.5488 65.0706V72.4028C54.5488 81.2014 56.1928 90 61.8209 90C69.9076 90 71.7738 62.651 72.0256 54.8788L77.4419 37.2549Z" fill="url(#paint0_linear_88_504)"/>
<path d="M12.6254 32.2508C12.9599 32.3188 13.3078 32.2538 13.5953 32.0696C13.8828 31.8854 14.0873 31.5965 14.1654 31.2641C14.7962 28.9376 15.8404 26.7436 17.248 24.7868C18.7268 22.8855 20.5362 21.2663 22.5894 20.0068C24.6729 18.8166 26.9737 18.0559 29.356 17.7694C31.7472 17.5614 34.156 17.8186 36.4494 18.5268L36.5067 18.5494H36.5267C38.9694 19.3615 41.6093 19.3615 44.052 18.5494H44.068L44.1307 18.5281C46.6087 17.6886 49.2495 17.4443 51.8394 17.8149C54.4293 18.1855 56.8956 19.1607 59.0387 20.6614C62.5278 23.0647 65.0764 26.6027 66.2507 30.6734C63.7888 28.6905 60.8639 27.3648 57.75 26.8205C54.6361 26.2762 51.4349 26.5311 48.4464 27.5614C45.4578 28.5916 42.7796 30.3635 40.6626 32.7111C38.5455 35.0586 37.0589 37.9051 36.342 40.9838C35.625 44.0626 35.7012 47.273 36.5633 50.3143C37.4254 53.3556 39.0453 56.1284 41.2712 58.373C43.4972 60.6175 46.2563 62.2604 49.2904 63.1478C52.3244 64.0352 55.534 64.1381 58.6187 63.4468C57.9734 77.7401 55.1187 92.2734 50.836 92.2734C47.572 92.2734 45.6227 86.7908 45.6227 77.6068V70.9268C45.5987 68.6254 44.4547 64.2734 40.2894 64.2734C36.124 64.2734 34.98 68.6254 34.956 70.9401V77.6068C34.956 86.7908 33.0067 92.2734 29.7427 92.2734C24.2067 92.2734 21.8627 69.3814 21.8627 60.2734C21.7812 58.2774 21.1571 56.3413 20.0574 54.6734C17.9617 51.0779 16.3135 47.2396 15.1494 43.2441L14.468 41.0734C14.3619 40.7361 14.1262 40.4547 13.8126 40.2912C13.4991 40.1276 13.1334 40.0954 12.796 40.2014C12.4587 40.3075 12.1773 40.5433 12.0137 40.8568C11.8502 41.1704 11.8179 41.5361 11.924 41.8734L12.6027 44.0441C13.83 48.2446 15.5669 52.2791 17.7747 56.0574C18.6134 57.3121 19.1039 58.767 19.196 60.2734C19.196 60.6201 19.6493 94.9401 29.7427 94.9401C34.8974 94.9401 37.6227 88.9468 37.6227 77.6068V70.9574C37.6227 70.7934 37.716 66.9401 40.2894 66.9401C42.8627 66.9401 42.956 70.7934 42.956 70.9401V77.6068C42.956 88.9468 45.6814 94.9401 50.836 94.9401C59.2947 94.9401 60.988 71.3054 61.3227 62.6254C61.6134 62.5121 61.9 62.3908 62.1854 62.2641L64.0053 64.0828C64.5873 64.6695 65.3384 65.0591 66.1532 65.1969C66.9681 65.3347 67.8056 65.2136 68.548 64.8508L82.8 79.1041C83.1662 79.4986 83.6082 79.8151 84.0996 80.0347C84.591 80.2543 85.1217 80.3724 85.6599 80.3821C86.198 80.3917 86.7326 80.2927 87.2315 80.0908C87.7305 79.889 88.1836 79.5886 88.5637 79.2075C88.9438 78.8264 89.243 78.3725 89.4436 77.873C89.6441 77.3736 89.7418 76.8387 89.7307 76.3006C89.7197 75.7625 89.6001 75.2321 89.3793 74.7413C89.1584 74.2505 88.8408 73.8093 88.4454 73.4441L74.2 59.1988C74.5574 58.4549 74.6755 57.6185 74.5379 56.8048C74.4004 55.991 74.014 55.2399 73.432 54.6548L71.6133 52.8361C72.9707 49.8143 73.4951 46.4844 73.1322 43.1916C72.7693 39.8989 71.5323 36.7631 69.5494 34.1094C69.3106 30.9944 68.3783 27.9721 66.8206 25.2639C65.2629 22.5557 63.1193 20.2301 60.5467 18.4574C58.0591 16.7403 55.2069 15.6239 52.2146 15.1964C49.2223 14.7688 46.1716 15.0417 43.3027 15.9934H43.2827L43.2227 16.0201C41.3185 16.6538 39.2602 16.6538 37.356 16.0201L37.276 15.9988V15.9921L37.2227 15.9788C34.5887 15.1638 31.8209 14.8712 29.0747 15.1174C26.3155 15.443 23.6506 16.3228 21.24 17.7041C18.8782 19.1433 16.7996 21.0023 15.1067 23.1894C13.4879 25.43 12.2906 27.9466 11.5734 30.6161C11.5317 30.7927 11.5261 30.9759 11.5569 31.1547C11.5876 31.3335 11.654 31.5043 11.7522 31.6568C11.8504 31.8094 11.9783 31.9406 12.1283 32.0427C12.2783 32.1447 12.4474 32.2155 12.6254 32.2508ZM86.956 76.2734C86.956 76.537 86.8778 76.7945 86.7315 77.0137C86.5851 77.2328 86.3771 77.4036 86.1338 77.5047C85.8904 77.6057 85.6225 77.6323 85.364 77.5812C85.1055 77.5301 84.868 77.4035 84.6814 77.2174L70.6067 63.1374L72.488 61.2574L86.5654 75.3401C86.6889 75.4621 86.7871 75.6074 86.8542 75.7676C86.9212 75.9279 86.9558 76.0998 86.956 76.2734ZM71.5467 56.5401C71.6707 56.6639 71.769 56.811 71.8361 56.9729C71.9032 57.1347 71.9377 57.3082 71.9377 57.4834C71.9377 57.6587 71.9032 57.8322 71.8361 57.994C71.769 58.1559 71.6707 58.303 71.5467 58.4268L67.776 62.1974C67.526 62.4474 67.1869 62.5878 66.8334 62.5878C66.4798 62.5878 66.1407 62.4474 65.8907 62.1974L64.636 60.9441C66.9127 59.4954 68.8428 57.5635 70.2893 55.2854L71.5467 56.5401ZM65.8907 56.5401C64.1078 58.3254 61.9261 59.6613 59.5253 60.4374L59.508 60.4441C55.7836 61.6491 51.7465 61.4461 48.1619 59.8733C44.5772 58.3006 41.694 55.4675 40.0587 51.911C38.4233 48.3544 38.1495 44.3215 39.2891 40.5766C40.4286 36.8316 42.9024 33.6348 46.2416 31.5919C49.5807 29.5491 53.5533 28.8021 57.4064 29.4926C61.2595 30.1832 64.7255 32.2632 67.1474 35.3385C69.5694 38.4138 70.779 42.2707 70.5471 46.1784C70.3153 50.086 68.6593 53.7728 65.8907 56.5401Z" fill="#6149AB"/>
<path d="M12.34 37.5614C11.9864 37.5632 11.6466 37.4244 11.3953 37.1756C11.144 36.9268 11.0018 36.5884 11 36.2348C10.9982 35.8812 11.137 35.5413 11.3858 35.29C11.6346 35.0387 11.9731 34.8965 12.3267 34.8948H12.34C12.6936 34.8948 13.0328 35.0353 13.2828 35.2853C13.5329 35.5353 13.6734 35.8745 13.6734 36.2281C13.6734 36.5817 13.5329 36.9209 13.2828 37.1709C13.0328 37.421 12.6936 37.5614 12.34 37.5614Z" fill="#6149AB"/>
<path d="M54.5773 31.8934C52.8257 31.8886 51.0905 32.2313 49.4721 32.9017C47.8538 33.5721 46.3845 34.5567 45.1493 35.7988C44.9065 36.0503 44.7721 36.3871 44.7751 36.7366C44.7782 37.0862 44.9184 37.4207 45.1656 37.6679C45.4128 37.9151 45.7472 38.0553 46.0968 38.0583C46.4464 38.0614 46.7832 37.927 47.0347 37.6841C48.0252 36.6936 49.2011 35.9078 50.4953 35.3717C51.7894 34.8356 53.1765 34.5597 54.5773 34.5597C55.9782 34.5597 57.3653 34.8356 58.6594 35.3717C59.9536 35.9078 61.1295 36.6936 62.12 37.6841C62.3715 37.927 62.7083 38.0614 63.0579 38.0583C63.4075 38.0553 63.7419 37.9151 63.9891 37.6679C64.2363 37.4207 64.3765 37.0862 64.3796 36.7366C64.3826 36.3871 64.2482 36.0503 64.0053 35.7988C62.7701 34.5569 61.3008 33.5722 59.6825 32.9019C58.0642 32.2316 56.329 31.8888 54.5773 31.8934Z" fill="#6149AB"/>
<defs>
<linearGradient id="paint0_linear_88_504" x1="49.4999" y1="5" x2="49.4999" y2="90" gradientUnits="userSpaceOnUse">
<stop stop-color="#F5F2FF"/>
<stop offset="1" stop-color="#D0D1F9"/>
</linearGradient>
</defs>
</svg>
