<svg width="100" height="100" viewBox="0 0 100 100" fill="none" xmlns="http://www.w3.org/2000/svg">
<path d="M77.1466 42.6389C78.8133 42.6389 80.4118 43.2988 81.5904 44.4733C82.7689 45.6478 83.431 47.2408 83.431 48.9019V50.2936C83.4333 51.9336 84.0799 53.5075 85.2323 54.6781C86.3848 55.8488 87.9515 56.5231 89.5968 56.5566C91.2773 56.5476 92.8932 57.2008 94.0926 58.3739C95.292 59.547 95.9775 61.1449 96 62.8195V78.8247C96 79.9321 95.5586 80.9941 94.7729 81.7771C93.9872 82.5601 92.9215 83 91.8104 83H19.1897C18.0785 83 17.0128 82.5601 16.2271 81.7771C15.4414 80.9941 15 79.9321 15 78.8247V62.8195C15.0022 61.1795 15.6488 59.6056 16.8013 58.435C17.9538 57.2643 19.5205 56.59 21.1658 56.5566C22.8463 56.5655 24.4622 55.9123 25.6616 54.7392C26.8609 53.5661 27.5465 51.9682 27.569 50.2936V48.9019C27.569 47.2408 28.2311 45.6478 29.4096 44.4733C30.5882 43.2988 32.1867 42.6389 33.8535 42.6389H77.1466Z" fill="url(#paint0_linear_90_966)"/>
<path d="M78.4705 28.7714L77.9007 30.5696C76.8783 33.966 75.4412 37.2244 73.6216 40.2716C72.8084 41.4756 72.3374 42.8765 72.2586 44.3258C72.2586 47.6368 71.9793 71.916 65.2758 71.916C60.9787 71.916 58.2931 65.294 58.2931 58.672V53.1551C58.2931 53.1551 58.2931 46.8643 55.5 46.8643C52.7069 46.8643 52.7069 53.1551 52.7069 53.1551V58.672C52.7069 65.294 50.0213 71.916 45.7241 71.916C39.0207 71.916 38.7414 47.6368 38.7414 44.3258C38.6638 42.8741 38.1927 41.4706 37.3783 40.2646C35.5588 37.2174 34.1216 33.959 33.0993 30.5626L32.5295 28.7714C31.6478 25.9882 31.5485 23.0174 32.2425 20.1818C32.9364 17.3463 34.3971 14.7547 36.4657 12.6886C38.5343 10.6225 41.1316 9.16105 43.9754 8.46314C46.8191 7.76524 49.8004 7.85756 52.5952 8.73008L52.6594 8.75096C54.5055 9.34946 56.4945 9.34946 58.3406 8.75096L58.4048 8.73008C61.1996 7.85756 64.1809 7.76524 67.0246 8.46314C69.8683 9.16105 72.4657 10.6225 74.5342 12.6886C76.6028 14.7547 78.0635 17.3463 78.7575 20.1818C79.4515 23.0174 79.3522 25.9882 78.4705 28.7714Z" fill="url(#paint1_linear_90_966)"/>
<path d="M74.1911 64.045C73.0603 64.0217 71.9835 63.5567 71.1913 62.7495C70.3991 61.9423 69.9543 60.857 69.9523 59.7259V58.4916C69.9504 56.6916 69.2345 54.966 67.9617 53.6932C66.6889 52.4205 64.9633 51.7046 63.1633 51.7026H60.9748C61.0193 51.6273 61.0526 51.5545 61.0983 51.4779C62.7601 48.69 64.0722 45.7079 65.005 42.5992L65.5086 41.0081C66.366 38.3148 66.4624 35.437 65.7871 32.6924C65.1118 29.9478 63.6912 27.4432 61.6821 25.4552C59.706 23.4386 57.2034 22.0174 54.4591 21.3535C51.7149 20.6897 48.8394 20.8098 46.16 21.7003C44.755 22.1558 43.2409 22.1494 41.8398 21.6818C39.1678 20.8015 36.3025 20.6885 33.5695 21.3556C30.8365 22.0226 28.3454 23.443 26.3794 25.4552C24.37 27.443 22.9491 29.9476 22.2738 32.6923C21.5985 35.4369 21.6951 38.3149 22.5529 41.0081L23.0578 42.6128C23.9907 45.7211 25.3028 48.7027 26.9645 51.4903C27.0114 51.5656 27.0435 51.6384 27.088 51.7125H24.8982C23.0983 51.7144 21.3726 52.4303 20.0998 53.7031C18.8271 54.9758 18.1112 56.7015 18.1092 58.5014V59.7358C18.0888 60.8967 17.6101 62.0023 16.7777 62.8116C15.9452 63.621 14.8265 64.0683 13.6655 64.0561C11.8872 64.0906 10.1932 64.8208 8.94708 66.0901C7.70094 67.3593 7.00193 69.0663 7 70.845V85.0402C7 86.3497 7.52019 87.6055 8.44614 88.5315C9.37209 89.4574 10.6279 89.9776 11.9374 89.9776H76.1241C77.4336 89.9776 78.6895 89.4574 79.6154 88.5315C80.5414 87.6055 81.0615 86.3497 81.0615 85.0402V70.845C81.0488 69.0333 80.3186 67.3004 79.0309 66.0259C77.7432 64.7513 76.0029 64.039 74.1911 64.045ZM25.408 41.8549L24.9044 40.2502C24.1666 37.9917 24.0769 35.5715 24.6455 33.2646C25.2142 30.9576 26.4183 28.8563 28.1211 27.1993C29.778 25.5071 31.877 24.3146 34.1788 23.7576C36.4807 23.2006 38.8927 23.3017 41.1399 24.0493C43.0369 24.6663 45.0815 24.6602 46.9747 24.032C49.2152 23.2958 51.6171 23.2024 53.9081 23.7622C56.1989 24.3221 58.2871 25.5128 59.9355 27.1993C61.6414 28.8557 62.8483 30.9575 63.4189 33.2657C63.9895 35.5739 63.901 37.996 63.1633 40.2564L62.6609 41.8475C61.7872 44.7629 60.5593 47.5603 59.0048 50.1769C58.1524 51.438 57.6689 52.912 57.6087 54.433C57.6087 65.8545 55.7572 77.6686 52.6713 77.6686C49.9952 77.6686 47.7338 72.8546 47.7338 67.1568V62.2638C47.7338 61.1282 47.5549 55.4501 44.0308 55.4501C40.5067 55.4501 40.3277 61.1282 40.3277 62.2638V67.1568C40.3277 72.8546 38.0663 77.6686 35.3903 77.6686C32.3044 77.6686 30.4528 65.8545 30.4528 54.433C30.394 52.9148 29.9131 51.4431 29.0642 50.1831C27.5097 47.5668 26.2819 44.7699 25.408 41.8549ZM78.5928 85.0303C78.5928 85.685 78.3327 86.313 77.8698 86.7759C77.4068 87.2389 76.7788 87.499 76.1241 87.499H11.9374C11.2827 87.499 10.6548 87.2389 10.1918 86.7759C9.72881 86.313 9.46872 85.685 9.46872 85.0303V70.8352C9.47105 69.7041 9.91584 68.6189 10.708 67.8115C11.5001 67.0041 12.5767 66.5388 13.7075 66.5149C15.5174 66.5208 17.256 65.8101 18.5434 64.5379C19.8308 63.2658 20.5623 61.5358 20.5779 59.7259V58.4916C20.5779 57.3458 21.0331 56.2469 21.8433 55.4367C22.6535 54.6265 23.7524 54.1713 24.8982 54.1713H27.9582C27.9656 54.2577 27.9841 54.3491 27.9841 54.433C27.9841 62.1613 28.7062 80.1373 35.3903 80.1373C40.2043 80.1373 42.7964 73.4495 42.7964 67.1568V62.265C42.7964 60.1123 43.4235 57.9188 44.0308 57.9188C44.6381 57.9188 45.2651 60.1123 45.2651 62.2638V67.1568C45.2651 73.4495 47.8573 80.1373 52.6713 80.1373C59.3553 80.1373 60.0774 62.1613 60.0774 54.433C60.0774 54.3491 60.096 54.2577 60.1034 54.1713H63.1633C64.3091 54.1713 65.408 54.6265 66.2182 55.4367C67.0284 56.2469 67.4836 57.3458 67.4836 58.4916V59.7259C67.4852 61.5047 68.1841 63.212 69.4303 64.4813C70.6765 65.7505 72.3707 66.4807 74.1491 66.5149C75.3101 66.5027 76.4288 66.95 77.2613 67.7593C78.0937 68.5687 78.5724 69.6743 78.5928 70.8352V85.0303Z" fill="#6149AB"/>
<path d="M25.1994 22.7717C25.0373 22.7725 24.8766 22.7414 24.7265 22.6801C24.5765 22.6188 24.4399 22.5286 24.3247 22.4145C24.0921 22.1842 23.9605 21.8709 23.9588 21.5435C23.9572 21.2161 24.0857 20.9015 24.316 20.6689C24.5463 20.4362 24.8597 20.3046 25.187 20.303H25.1994C25.5268 20.303 25.8407 20.433 26.0722 20.6645C26.3037 20.896 26.4337 21.21 26.4337 21.5373C26.4337 21.8647 26.3037 22.1787 26.0722 22.4102C25.8407 22.6416 25.5268 22.7717 25.1994 22.7717Z" fill="#6149AB"/>
<path d="M8.23435 63.1525C8.46527 63.1523 8.6915 63.0873 8.88732 62.9649C10.3486 62.0782 12.0267 61.6134 13.7359 61.6219C14.2395 61.619 14.7217 61.4179 15.0781 61.0622C15.4346 60.7064 15.6366 60.2246 15.6405 59.721V58.4866C15.6483 56.7548 16.1386 55.0595 17.0563 53.5908C17.974 52.1221 19.2828 50.9382 20.8359 50.172C21.3884 49.8939 21.8163 49.4185 22.0351 48.84C22.2538 48.2615 22.2475 47.6219 22.0172 47.0478C21.5518 45.8777 21.1099 44.6371 20.7063 43.367L20.199 41.7487C19.335 39.0833 19.1202 36.25 19.5726 33.4848C20.025 30.7196 21.1314 28.1025 22.7998 25.8514C22.8955 25.7204 22.9645 25.5719 23.0028 25.4143C23.0411 25.2566 23.048 25.093 23.0231 24.9327C22.9981 24.7724 22.9419 24.6186 22.8575 24.48C22.7731 24.3415 22.6623 24.2209 22.5313 24.1252C22.4003 24.0294 22.2518 23.9605 22.0942 23.9221C21.9365 23.8838 21.7729 23.877 21.6126 23.9019C21.4523 23.9268 21.2985 23.9831 21.1599 24.0674C21.0214 24.1518 20.9008 24.2627 20.8051 24.3936C18.9068 26.9565 17.648 29.9355 17.1331 33.0829C16.6183 36.2304 16.8624 39.4553 17.8451 42.4893L18.3561 44.1088C18.7782 45.4395 19.2399 46.7355 19.7546 47.9551C17.7867 48.9249 16.1281 50.4242 14.9653 52.2846C13.8024 54.1449 13.1813 56.2927 13.1718 58.4866V59.1668C11.1929 59.2493 9.26808 59.8366 7.58014 60.8727C7.35343 61.0149 7.17911 61.2271 7.08346 61.477C6.98781 61.727 6.97601 62.0013 7.04984 62.2586C7.12366 62.5159 7.27912 62.7422 7.49277 62.9034C7.70642 63.0647 7.96669 63.1521 8.23435 63.1525Z" fill="#6149AB"/>
<path d="M70.2152 42.5066C71.1972 39.4702 71.4421 36.2436 70.9297 33.0937C70.4174 29.9438 69.1625 26.9611 67.2688 24.3924C64.7763 20.9144 61.2391 18.3225 57.1717 16.9938C53.1044 15.6651 48.7191 15.6689 44.6541 17.0048C44.2273 17.1369 43.7696 17.1299 43.3469 16.985C41.3389 16.3346 39.2414 16.0023 37.1307 16C34.2718 16.0132 31.4484 16.6347 28.8481 17.8231C28.6945 17.8885 28.5561 17.985 28.4418 18.1067C28.3275 18.2284 28.2397 18.3725 28.1841 18.5299C28.1285 18.6873 28.1063 18.8546 28.1188 19.0211C28.1313 19.1876 28.1783 19.3496 28.2569 19.4969C28.4071 19.7765 28.6562 19.99 28.9555 20.0957C29.2547 20.2014 29.5826 20.1917 29.8751 20.0684C32.1507 19.0263 34.6217 18.4793 37.1245 18.4638C38.9824 18.466 40.8284 18.7597 42.5952 19.334C43.5015 19.6363 44.4803 19.6436 45.391 19.355C48.5101 18.3552 51.8441 18.2328 55.0281 19.0013C58.2121 19.7697 61.1233 21.3993 63.443 23.7118C65.7627 26.0242 67.4014 28.9303 68.1799 32.1118C68.9583 35.2934 68.8464 38.6278 67.8564 41.75L67.3601 43.3411C66.9491 44.6433 66.5195 45.8542 66.0418 47.0441C65.8099 47.6191 65.8027 48.2602 66.0218 48.8402C66.2409 49.4202 66.6702 49.8965 67.2244 50.1745C68.778 50.9395 70.0874 52.1228 71.0054 53.5912C71.9234 55.0596 72.4137 56.7549 72.421 58.4866V59.721C72.4182 59.9597 72.4627 60.1965 72.5519 60.4179C72.6411 60.6393 72.7732 60.8408 72.9407 61.0109C73.1046 61.1949 73.304 61.3438 73.527 61.4488C73.7499 61.5538 73.9917 61.6127 74.238 61.6219C75.9792 61.6326 77.6852 62.1137 79.1754 63.0143C79.3705 63.1373 79.5965 63.2024 79.8272 63.2019C80.0955 63.202 80.3565 63.1148 80.5708 62.9533C80.785 62.7919 80.9409 62.565 81.0147 62.3071C81.0885 62.0491 81.0762 61.7742 80.9798 61.5238C80.8833 61.2734 80.7079 61.0613 80.4801 60.9196C78.7893 59.886 76.8685 59.288 74.8897 59.1791V58.4866C74.8805 56.2962 74.262 54.1516 73.1034 52.2928C71.9447 50.4339 70.2916 48.9341 68.3291 47.9613C68.8229 46.7269 69.287 45.4247 69.7079 44.0878L70.2152 42.5066Z" fill="#6149AB"/>
<defs>
<linearGradient id="paint0_linear_90_966" x1="55.5" y1="8" x2="55.5" y2="83" gradientUnits="userSpaceOnUse">
<stop stop-color="#F5F2FF"/>
<stop offset="1" stop-color="#D0D1F9"/>
</linearGradient>
<linearGradient id="paint1_linear_90_966" x1="55.5" y1="8" x2="55.5" y2="83" gradientUnits="userSpaceOnUse">
<stop stop-color="#F5F2FF"/>
<stop offset="1" stop-color="#D0D1F9"/>
</linearGradient>
</defs>
</svg>
