<svg width="100" height="100" viewBox="0 0 100 100" fill="none" xmlns="http://www.w3.org/2000/svg">
<path d="M84.9804 33.3356L84.2397 35.6978C83.9086 36.75 83.5717 37.7775 83.2231 38.7745C83.0245 39.3446 82.6529 39.8388 82.16 40.1886C81.6671 40.5384 81.0774 40.7264 80.4726 40.7266H30.4685C29.8642 40.7258 29.2751 40.5375 28.7828 40.1877C28.2905 39.838 27.9194 39.3441 27.7208 38.7745C27.3694 37.7775 27.0325 36.7456 26.7043 35.6978L25.9607 33.3356C20.9359 17.2783 35.8796 1.84411 51.7382 7.01781C51.7673 7.03231 51.7963 7.03231 51.8254 7.0468C54.1922 7.82942 56.7489 7.82942 59.1157 7.0468C59.1447 7.03231 59.1738 7.03231 59.2028 7.01781C75.0615 1.84411 90.0052 17.2783 84.9804 33.3356Z" fill="url(#paint0_linear_88_550)"/>
<path d="M78.7066 40.7266V46.5235C78.7066 47.2922 78.4006 48.0294 77.8559 48.573C77.3112 49.1165 76.5724 49.4219 75.8021 49.4219H35.1389C34.3686 49.4219 33.6298 49.1165 33.0851 48.573C32.5404 48.0294 32.2344 47.2922 32.2344 46.5235V40.7266H78.7066Z" fill="url(#paint1_linear_88_550)"/>
<path d="M72.8976 49.4219V77.2252C72.8975 78.0513 72.7205 78.8679 72.3784 79.6203C72.0362 80.3726 71.5369 81.0433 70.9138 81.5873L62.9264 88.5653C61.8675 89.4901 60.5083 89.9999 59.1012 90H51.8399C50.4328 89.9999 49.0735 89.4901 48.0146 88.5653L40.0272 81.5873C39.4042 81.0433 38.9048 80.3726 38.5627 79.6203C38.2206 78.8679 38.0435 78.0513 38.0435 77.2252V49.4219H72.8976Z" fill="url(#paint2_linear_88_550)"/>
<path d="M16.3408 37.5875C15.987 37.5893 15.6469 37.4504 15.3955 37.2015C15.144 36.9525 15.0018 36.6139 15 36.26C14.9982 35.9062 15.1371 35.5662 15.3861 35.3147C15.635 35.0633 15.9736 34.921 16.3275 34.9193H16.3408C16.6946 34.9193 17.034 35.0598 17.2842 35.31C17.5344 35.5602 17.6749 35.8995 17.6749 36.2534C17.6749 36.6072 17.5344 36.9465 17.2842 37.1967C17.034 37.4469 16.6946 37.5875 16.3408 37.5875Z" fill="#6149AB"/>
<path d="M47.3218 16.0067H47.3031L47.2417 16.0334C45.3364 16.6675 43.2769 16.6675 41.3716 16.0334L41.3182 16.0201C41.3089 16.0201 41.2995 16.0201 41.2915 16.0201C38.6401 15.1901 35.8517 14.8878 33.084 15.1302C30.3237 15.4562 27.6577 16.3365 25.2461 17.7184C22.8829 19.1584 20.803 21.0186 19.1091 23.207C17.4894 25.4489 16.2914 27.967 15.5737 30.638C15.532 30.8144 15.5262 30.9973 15.5566 31.1759C15.587 31.3545 15.653 31.5252 15.7507 31.6778C15.8484 31.8304 15.9758 31.9617 16.1253 32.0641C16.2748 32.1665 16.4434 32.2377 16.621 32.2737C16.9558 32.3417 17.3039 32.2766 17.5915 32.0924C17.8792 31.9081 18.0838 31.619 18.1619 31.2864C18.7932 28.9586 19.838 26.7632 21.2464 24.8053C22.7277 22.9024 24.5399 21.2822 26.5962 20.0224C28.6809 18.8314 30.9831 18.0702 33.3669 17.7838C35.7594 17.5756 38.1697 17.833 40.4644 18.5416L40.5218 18.5642H40.5418C42.9859 19.3767 45.6274 19.3767 48.0715 18.5642H48.0875L48.1503 18.5429C51.152 17.5417 54.3745 17.403 57.4512 18.1426C60.5279 18.8822 63.3352 20.4705 65.5539 22.7267C67.9384 25.0687 69.629 28.0244 70.439 31.2671C71.2489 34.5098 71.1465 37.9133 70.1432 41.1015L69.4615 43.2762C69.1627 44.23 68.8585 45.1613 68.541 46.0645C68.4494 46.3278 68.2785 46.5563 68.0518 46.7185C67.8251 46.8807 67.5536 46.9687 67.2749 46.9703H21.3384C21.0597 46.9687 20.7882 46.8807 20.5615 46.7185C20.3348 46.5563 20.1639 46.3278 20.0724 46.0645C19.7548 45.1613 19.4507 44.23 19.1518 43.2762L18.4701 41.1015C18.4175 40.9344 18.3325 40.7792 18.22 40.6449C18.1075 40.5106 17.9696 40.3998 17.8143 40.3188C17.6589 40.2378 17.4891 40.1881 17.3146 40.1727C17.1401 40.1573 16.9642 40.1765 16.7971 40.229C16.6299 40.2816 16.4748 40.3665 16.3405 40.4791C16.2062 40.5916 16.0954 40.7295 16.0143 40.8848C15.9333 41.0402 15.8837 41.21 15.8683 41.3845C15.8529 41.559 15.872 41.7349 15.9246 41.902L16.605 44.0766C16.9132 45.0599 17.2267 46.0204 17.5549 46.9517C17.8304 47.7358 18.3421 48.4154 19.0196 48.8968C19.6972 49.3782 20.5073 49.6378 21.3384 49.6399H21.6266V53.6423C21.6266 54.7038 22.0483 55.7218 22.7989 56.4724C23.5495 57.223 24.5675 57.6446 25.629 57.6446H26.9631V81.9056C26.9632 82.8565 27.1665 83.7963 27.5595 84.6622C27.9525 85.528 28.5261 86.2999 29.2418 86.9259L36.5794 93.3497C37.7953 94.4135 39.3558 94.9999 40.9713 95H47.642C49.2576 95.0008 50.8185 94.4143 52.0339 93.3497L59.3715 86.9259C60.0872 86.2999 60.6608 85.528 61.0538 84.6622C61.4468 83.7963 61.6502 82.8565 61.6502 81.9056V57.6446H62.9843C64.0458 57.6446 65.0638 57.223 65.8144 56.4724C66.565 55.7218 66.9867 54.7038 66.9867 53.6423V49.6399H67.2749C68.106 49.6378 68.9161 49.3782 69.5937 48.8968C70.2712 48.4154 70.7829 47.7358 71.0584 46.9517C71.3866 46.0178 71.7001 45.0585 72.0083 44.0753L72.6887 41.8993C73.8407 38.2427 73.9589 34.3387 73.0303 30.619C72.1017 26.8994 70.1624 23.509 67.427 20.8229C64.8616 18.22 61.6176 16.3889 58.0636 15.5375C54.5096 14.6862 50.788 14.8487 47.3218 16.0067ZM47.8234 57.6446L29.6313 65.8041V57.6446H47.8234ZM29.6313 81.9056V81.3226L58.982 68.1628V78.126L35.348 88.7296L30.9975 84.9234C30.5675 84.547 30.2232 84.083 29.9875 83.5625C29.7519 83.0419 29.6304 82.477 29.6313 81.9056ZM57.6158 84.9181L50.2782 91.3418C49.5484 91.9803 48.6116 92.332 47.642 92.3318H40.9713C40.0017 92.332 39.0649 91.9803 38.3351 91.3418L37.5533 90.6574L58.982 81.0504V81.9056C58.9821 82.4761 58.8603 83.04 58.6247 83.5596C58.3891 84.0791 58.0451 84.5423 57.6158 84.9181ZM58.982 65.2384L29.6313 78.3982V68.7285L54.3446 57.6446H58.982V65.2384ZM64.3185 53.6423C64.3185 53.9961 64.1779 54.3354 63.9277 54.5856C63.6775 54.8358 63.3382 54.9764 62.9843 54.9764H25.629C25.2751 54.9764 24.9358 54.8358 24.6856 54.5856C24.4354 54.3354 24.2948 53.9961 24.2948 53.6423V49.6399H64.3185V53.6423Z" fill="#6149AB"/>
<path d="M35.1012 23.0082C35.455 23.0082 35.7944 22.8676 36.0446 22.6175C36.2948 22.3673 36.4353 22.0279 36.4353 21.6741C36.4353 21.3203 36.2948 20.9809 36.0446 20.7307C35.7944 20.4805 35.455 20.34 35.1012 20.34C32.7912 20.376 30.5217 20.9527 28.4746 22.0237C26.4275 23.0948 24.6597 24.6304 23.3129 26.5076C21.8647 28.4604 20.9013 30.7294 20.5021 33.1276C20.1029 35.5257 20.2794 37.9845 21.0169 40.3011C21.1231 40.6386 21.3589 40.9202 21.6727 41.0838C21.9864 41.2474 22.3523 41.2797 22.6899 41.1736C23.0274 41.0674 23.309 40.8315 23.4726 40.5178C23.6363 40.2041 23.6686 39.8382 23.5624 39.5006C22.9504 37.5831 22.8031 35.5475 23.1327 33.5619C23.4623 31.5762 24.2594 29.6974 25.4582 28.0805C26.5581 26.5411 28.0031 25.2805 29.6776 24.3997C31.3521 23.5189 33.2095 23.0424 35.1012 23.0082Z" fill="#6149AB"/>
<defs>
<linearGradient id="paint0_linear_88_550" x1="55.4705" y1="6" x2="55.4705" y2="90" gradientUnits="userSpaceOnUse">
<stop stop-color="#F5F2FF"/>
<stop offset="1" stop-color="#D0D1F9"/>
</linearGradient>
<linearGradient id="paint1_linear_88_550" x1="55.4705" y1="6" x2="55.4705" y2="90" gradientUnits="userSpaceOnUse">
<stop stop-color="#F5F2FF"/>
<stop offset="1" stop-color="#D0D1F9"/>
</linearGradient>
<linearGradient id="paint2_linear_88_550" x1="55.4705" y1="6" x2="55.4705" y2="90" gradientUnits="userSpaceOnUse">
<stop stop-color="#F5F2FF"/>
<stop offset="1" stop-color="#D0D1F9"/>
</linearGradient>
</defs>
</svg>
